<?xml version="1.0" encoding="UTF-8" standalone="no"?>
<svg xmlns="http://www.w3.org/2000/svg" height="571" version="1.1" viewBox="0 0 1921 571" width="1921">
   <path d="M1275,65 H1305 V145 H1365" fill="none" stroke="#000000" stroke-linecap="square" stroke-width="4"/>
   <path d="M145,45 V85" fill="none" stroke="#000000" stroke-linecap="square" stroke-width="4"/>
   <path d="M165,5 H435 V45 H455" fill="none" stroke="#000000" stroke-linecap="square" stroke-width="4"/>
   <path d="M675,535 H865 V185 H945" fill="none" stroke="#000000" stroke-linecap="square" stroke-width="4"/>
   <path d="M165,25 H415 V395 H455" fill="none" stroke="#000000" stroke-linecap="square" stroke-width="4"/>
   <path d="M1025,325 V145 H1065" fill="none" stroke="#000000" stroke-linecap="square" stroke-width="4"/>
   <path d="M1305,65 H1345" fill="none" stroke="#000000" stroke-linecap="square" stroke-width="4"/>
   <path d="M165,35 H405 V515 H455" fill="none" stroke="#000000" stroke-linecap="square" stroke-width="4"/>
   <path d="M965,145 H1025" fill="none" stroke="#000000" stroke-linecap="square" stroke-width="4"/>
   <path d="M675,65 H725 V155 H945" fill="none" stroke="#000000" stroke-linecap="square" stroke-width="4"/>
   <path d="M1095,145 H1215 V75 H1255" fill="none" stroke="#000000" stroke-linecap="square" stroke-width="4"/>
   <path d="M1055,445 H1065 V405 H1005 V335" fill="none" stroke="#000000" stroke-linecap="square" stroke-width="4"/>
   <path d="M165,15 H425 V235 H455" fill="none" stroke="#000000" stroke-linecap="square" stroke-width="4"/>
   <path d="M1265,225 H1345 V165 H1365" fill="none" stroke="#000000" stroke-linecap="square" stroke-width="3"/>
   <path d="M845,45 H895" fill="none" stroke="#000000" stroke-linecap="square" stroke-width="4"/>
   <path d="M675,255 H825 V165 H945" fill="none" stroke="#000000" stroke-linecap="square" stroke-width="4"/>
   <path d="M1135,85 V175 H1085 V155" fill="none" stroke="#000000" stroke-linecap="square" stroke-width="4"/>
   <path d="M1115,45 H1345" fill="none" stroke="#000000" stroke-linecap="square" stroke-width="3"/>
   <path d="M1685,125 V145 H1585" fill="none" stroke="#000000" stroke-linecap="square" stroke-width="4"/>
   <path d="M945,175 H845 V415 H675" fill="none" stroke="#000000" stroke-linecap="square" stroke-width="4"/>
   <path d="M1115,65 H1135 V85 H1255" fill="none" stroke="#000000" stroke-linecap="square" stroke-width="4"/>
   <circle cx="1305" cy="65" fill="#000000" r="6" stroke="none" stroke-width="4"/>
   <circle cx="1025" cy="145" fill="#000000" r="6" stroke="none" stroke-width="4"/>
   <circle cx="1135" cy="85" fill="#000000" r="6" stroke="none" stroke-width="4"/>
   <rect fill="#000000" height="4" stroke="none" stroke-linecap="square" stroke-width="1" width="10" x="455" y="43"/>
   <rect fill="#000000" height="3" stroke="none" stroke-linecap="square" stroke-width="1" width="10" x="665" y="44"/>
   <text fill="#404040" font-family="Dialog" font-size="12" x="652" y="49">V</text>
   <rect fill="#000000" height="4" stroke="none" stroke-linecap="square" stroke-width="1" width="10" x="665" y="63"/>
   <text fill="#404040" font-family="Dialog" font-size="12" x="653" y="69">Y</text>
   <rect fill="#000000" height="20" stroke="none" stroke-linecap="square" stroke-width="1" width="200" x="465" y="75"/>
   <rect fill="none" height="60" stroke="#000000" stroke-linecap="square" stroke-width="2" width="200" x="465" y="35"/>
   <text fill="#FFFFFF" font-family="Dialog" font-size="14" font-weight="bold" x="532" y="89">four2pe2</text>
   <circle cx="455" cy="45" fill="#000000" r="2" stroke="none" stroke-width="1"/>
   <circle cx="675" cy="45" fill="#000000" r="2" stroke="none" stroke-width="1"/>
   <circle cx="675" cy="65" fill="#000000" r="2" stroke="none" stroke-width="1"/>
   <rect fill="#000000" height="4" stroke="none" stroke-linecap="square" stroke-width="1" width="10" x="455" y="233"/>
   <rect fill="#000000" height="3" stroke="none" stroke-linecap="square" stroke-width="1" width="10" x="665" y="234"/>
   <text fill="#404040" font-family="Dialog" font-size="12" x="652" y="239">V</text>
   <rect fill="#000000" height="4" stroke="none" stroke-linecap="square" stroke-width="1" width="10" x="665" y="253"/>
   <text fill="#404040" font-family="Dialog" font-size="12" x="653" y="259">Y</text>
   <rect fill="#000000" height="20" stroke="none" stroke-linecap="square" stroke-width="1" width="200" x="465" y="265"/>
   <rect fill="none" height="60" stroke="#000000" stroke-linecap="square" stroke-width="2" width="200" x="465" y="225"/>
   <text fill="#FFFFFF" font-family="Dialog" font-size="14" font-weight="bold" x="532" y="279">four2pe2</text>
   <circle cx="455" cy="235" fill="#000000" r="2" stroke="none" stroke-width="1"/>
   <circle cx="675" cy="235" fill="#000000" r="2" stroke="none" stroke-width="1"/>
   <circle cx="675" cy="255" fill="#000000" r="2" stroke="none" stroke-width="1"/>
   <rect fill="#000000" height="4" stroke="none" stroke-linecap="square" stroke-width="1" width="10" x="455" y="393"/>
   <rect fill="#000000" height="3" stroke="none" stroke-linecap="square" stroke-width="1" width="10" x="665" y="394"/>
   <text fill="#404040" font-family="Dialog" font-size="12" x="652" y="399">V</text>
   <rect fill="#000000" height="4" stroke="none" stroke-linecap="square" stroke-width="1" width="10" x="665" y="413"/>
   <text fill="#404040" font-family="Dialog" font-size="12" x="653" y="419">Y</text>
   <rect fill="#000000" height="20" stroke="none" stroke-linecap="square" stroke-width="1" width="200" x="465" y="425"/>
   <rect fill="none" height="60" stroke="#000000" stroke-linecap="square" stroke-width="2" width="200" x="465" y="385"/>
   <text fill="#FFFFFF" font-family="Dialog" font-size="14" font-weight="bold" x="532" y="439">four2pe2</text>
   <circle cx="455" cy="395" fill="#000000" r="2" stroke="none" stroke-width="1"/>
   <circle cx="675" cy="395" fill="#000000" r="2" stroke="none" stroke-width="1"/>
   <circle cx="675" cy="415" fill="#000000" r="2" stroke="none" stroke-width="1"/>
   <rect fill="#000000" height="4" stroke="none" stroke-linecap="square" stroke-width="1" width="10" x="455" y="513"/>
   <rect fill="#000000" height="3" stroke="none" stroke-linecap="square" stroke-width="1" width="10" x="665" y="514"/>
   <text fill="#404040" font-family="Dialog" font-size="12" x="652" y="519">V</text>
   <rect fill="#000000" height="4" stroke="none" stroke-linecap="square" stroke-width="1" width="10" x="665" y="533"/>
   <text fill="#404040" font-family="Dialog" font-size="12" x="653" y="539">Y</text>
   <rect fill="#000000" height="20" stroke="none" stroke-linecap="square" stroke-width="1" width="200" x="465" y="545"/>
   <rect fill="none" height="60" stroke="#000000" stroke-linecap="square" stroke-width="2" width="200" x="465" y="505"/>
   <text fill="#FFFFFF" font-family="Dialog" font-size="14" font-weight="bold" x="532" y="559">four2pe2</text>
   <circle cx="455" cy="515" fill="#000000" r="2" stroke="none" stroke-width="1"/>
   <circle cx="675" cy="515" fill="#000000" r="2" stroke="none" stroke-width="1"/>
   <circle cx="675" cy="535" fill="#000000" r="2" stroke="none" stroke-width="1"/>
   <path d="M165,5 H151" fill="none" stroke="#000000" stroke-linecap="square" stroke-width="3"/>
   <path d="M165,15 H151" fill="none" stroke="#000000" stroke-linecap="square" stroke-width="3"/>
   <path d="M165,25 H151" fill="none" stroke="#000000" stroke-linecap="square" stroke-width="3"/>
   <path d="M165,35 H151" fill="none" stroke="#000000" stroke-linecap="square" stroke-width="3"/>
   <path d="M151,6 V39 L146,44" fill="none" stroke="#000000" stroke-linecap="square" stroke-width="5"/>
   <text fill="#000000" font-family="sans-serif" font-size="7" x="154" y="12">3-0</text>
   <text fill="#000000" font-family="sans-serif" font-size="7" x="154" y="22">7-4</text>
   <text fill="#000000" font-family="sans-serif" font-size="7" x="154" y="32">11-8</text>
   <text fill="#000000" font-family="sans-serif" font-size="7" x="154" y="42">15-12</text>
   <circle cx="145" cy="45" fill="#000000" r="2" stroke="none" stroke-width="5"/>
   <circle cx="165" cy="5" fill="#000000" r="2" stroke="none" stroke-width="5"/>
   <circle cx="165" cy="15" fill="#000000" r="2" stroke="none" stroke-width="5"/>
   <circle cx="165" cy="25" fill="#000000" r="2" stroke="none" stroke-width="5"/>
   <circle cx="165" cy="35" fill="#000000" r="2" stroke="none" stroke-width="5"/>
   <rect fill="#000000" height="4" stroke="none" stroke-linecap="square" stroke-width="1" width="10" x="895" y="43"/>
   <rect fill="#000000" height="3" stroke="none" stroke-linecap="square" stroke-width="1" width="10" x="1105" y="44"/>
   <text fill="#404040" font-family="Dialog" font-size="12" x="1092" y="49">V</text>
   <rect fill="#000000" height="4" stroke="none" stroke-linecap="square" stroke-width="1" width="10" x="1105" y="63"/>
   <text fill="#404040" font-family="Dialog" font-size="12" x="1093" y="69">Y</text>
   <rect fill="#000000" height="20" stroke="none" stroke-linecap="square" stroke-width="1" width="200" x="905" y="75"/>
   <rect fill="none" height="60" stroke="#000000" stroke-linecap="square" stroke-width="2" width="200" x="905" y="35"/>
   <text fill="#FFFFFF" font-family="Dialog" font-size="14" font-weight="bold" x="972" y="89">four2pe2</text>
   <circle cx="895" cy="45" fill="#000000" r="2" stroke="none" stroke-width="1"/>
   <circle cx="1115" cy="45" fill="#000000" r="2" stroke="none" stroke-width="1"/>
   <circle cx="1115" cy="65" fill="#000000" r="2" stroke="none" stroke-width="1"/>
   <path d="M675,45 H765 V55 H839" fill="none" stroke="#000000" stroke-linecap="square" stroke-width="3"/>
   <path d="M675,235 H795 V65 H839" fill="none" stroke="#000000" stroke-linecap="square" stroke-width="3"/>
   <path d="M675,395 H805 V75 H839" fill="none" stroke="#000000" stroke-linecap="square" stroke-width="3"/>
   <path d="M675,515 H815 V85 H839" fill="none" stroke="#000000" stroke-linecap="square" stroke-width="3"/>
   <path d="M839,84 V51 L844,46" fill="none" stroke="#000000" stroke-linecap="square" stroke-width="5"/>
   <text fill="#000000" font-family="sans-serif" font-size="7" x="832" y="52">0</text>
   <text fill="#000000" font-family="sans-serif" font-size="7" x="832" y="62">1</text>
   <text fill="#000000" font-family="sans-serif" font-size="7" x="832" y="72">2</text>
   <text fill="#000000" font-family="sans-serif" font-size="7" x="832" y="82">3</text>
   <circle cx="845" cy="45" fill="#000000" r="2" stroke="none" stroke-width="5"/>
   <circle cx="825" cy="55" fill="#000000" r="2" stroke="none" stroke-width="5"/>
   <circle cx="825" cy="65" fill="#000000" r="2" stroke="none" stroke-width="5"/>
   <circle cx="825" cy="75" fill="#000000" r="2" stroke="none" stroke-width="5"/>
   <circle cx="825" cy="85" fill="#000000" r="2" stroke="none" stroke-width="5"/>
   <path d="M45,95 H139" fill="none" stroke="#000000" stroke-linecap="square" stroke-width="3"/>
   <path d="M45,105 H139" fill="none" stroke="#000000" stroke-linecap="square" stroke-width="3"/>
   <path d="M45,115 H139" fill="none" stroke="#000000" stroke-linecap="square" stroke-width="3"/>
   <path d="M45,125 H139" fill="none" stroke="#000000" stroke-linecap="square" stroke-width="3"/>
   <path d="M45,135 H139" fill="none" stroke="#000000" stroke-linecap="square" stroke-width="3"/>
   <path d="M45,145 H139" fill="none" stroke="#000000" stroke-linecap="square" stroke-width="3"/>
   <path d="M45,155 H139" fill="none" stroke="#000000" stroke-linecap="square" stroke-width="3"/>
   <path d="M45,165 H139" fill="none" stroke="#000000" stroke-linecap="square" stroke-width="3"/>
   <path d="M45,175 H139" fill="none" stroke="#000000" stroke-linecap="square" stroke-width="3"/>
   <path d="M45,185 H139" fill="none" stroke="#000000" stroke-linecap="square" stroke-width="3"/>
   <path d="M45,195 H139" fill="none" stroke="#000000" stroke-linecap="square" stroke-width="3"/>
   <path d="M45,205 H139" fill="none" stroke="#000000" stroke-linecap="square" stroke-width="3"/>
   <path d="M45,215 H139" fill="none" stroke="#000000" stroke-linecap="square" stroke-width="3"/>
   <path d="M45,225 H139" fill="none" stroke="#000000" stroke-linecap="square" stroke-width="3"/>
   <path d="M45,235 H139" fill="none" stroke="#000000" stroke-linecap="square" stroke-width="3"/>
   <path d="M45,245 H139" fill="none" stroke="#000000" stroke-linecap="square" stroke-width="3"/>
   <path d="M139,244 V91 L144,86" fill="none" stroke="#000000" stroke-linecap="square" stroke-width="5"/>
   <text fill="#000000" font-family="sans-serif" font-size="7" x="132" y="92">0</text>
   <text fill="#000000" font-family="sans-serif" font-size="7" x="132" y="102">1</text>
   <text fill="#000000" font-family="sans-serif" font-size="7" x="132" y="112">2</text>
   <text fill="#000000" font-family="sans-serif" font-size="7" x="132" y="122">3</text>
   <text fill="#000000" font-family="sans-serif" font-size="7" x="132" y="132">4</text>
   <text fill="#000000" font-family="sans-serif" font-size="7" x="132" y="142">5</text>
   <text fill="#000000" font-family="sans-serif" font-size="7" x="132" y="152">6</text>
   <text fill="#000000" font-family="sans-serif" font-size="7" x="132" y="162">7</text>
   <text fill="#000000" font-family="sans-serif" font-size="7" x="132" y="172">8</text>
   <text fill="#000000" font-family="sans-serif" font-size="7" x="132" y="182">9</text>
   <text fill="#000000" font-family="sans-serif" font-size="7" x="128" y="192">10</text>
   <text fill="#000000" font-family="sans-serif" font-size="7" x="128" y="202">11</text>
   <text fill="#000000" font-family="sans-serif" font-size="7" x="128" y="212">12</text>
   <text fill="#000000" font-family="sans-serif" font-size="7" x="128" y="222">13</text>
   <text fill="#000000" font-family="sans-serif" font-size="7" x="128" y="232">14</text>
   <text fill="#000000" font-family="sans-serif" font-size="7" x="128" y="242">15</text>
   <circle cx="145" cy="85" fill="#000000" r="2" stroke="none" stroke-width="5"/>
   <circle cx="125" cy="95" fill="#000000" r="2" stroke="none" stroke-width="5"/>
   <circle cx="125" cy="105" fill="#000000" r="2" stroke="none" stroke-width="5"/>
   <circle cx="125" cy="115" fill="#000000" r="2" stroke="none" stroke-width="5"/>
   <circle cx="125" cy="125" fill="#000000" r="2" stroke="none" stroke-width="5"/>
   <circle cx="125" cy="135" fill="#000000" r="2" stroke="none" stroke-width="5"/>
   <circle cx="125" cy="145" fill="#000000" r="2" stroke="none" stroke-width="5"/>
   <circle cx="125" cy="155" fill="#000000" r="2" stroke="none" stroke-width="5"/>
   <circle cx="125" cy="165" fill="#000000" r="2" stroke="none" stroke-width="5"/>
   <circle cx="125" cy="175" fill="#000000" r="2" stroke="none" stroke-width="5"/>
   <circle cx="125" cy="185" fill="#000000" r="2" stroke="none" stroke-width="5"/>
   <circle cx="125" cy="195" fill="#000000" r="2" stroke="none" stroke-width="5"/>
   <circle cx="125" cy="205" fill="#000000" r="2" stroke="none" stroke-width="5"/>
   <circle cx="125" cy="215" fill="#000000" r="2" stroke="none" stroke-width="5"/>
   <circle cx="125" cy="225" fill="#000000" r="2" stroke="none" stroke-width="5"/>
   <circle cx="125" cy="235" fill="#000000" r="2" stroke="none" stroke-width="5"/>
   <circle cx="125" cy="245" fill="#000000" r="2" stroke="none" stroke-width="5"/>
   <rect fill="#404040" height="168" stroke="none" stroke-linecap="square" stroke-width="1" width="38" x="6" y="86"/>
   <rect fill="#FFFFFF" height="6" stroke="none" stroke-linecap="square" stroke-width="1" width="20" x="9" y="92"/>
   <text fill="#FFFFFF" font-family="sans-serif" font-size="7" transform="rotate(-270,33,92)" x="33" y="92">1</text>
   <rect fill="#FFFFFF" height="6" stroke="none" stroke-linecap="square" stroke-width="1" width="20" x="9" y="102"/>
   <text fill="#FFFFFF" font-family="sans-serif" font-size="7" transform="rotate(-270,33,102)" x="33" y="102">2</text>
   <rect fill="#FFFFFF" height="6" stroke="none" stroke-linecap="square" stroke-width="1" width="20" x="9" y="112"/>
   <text fill="#FFFFFF" font-family="sans-serif" font-size="7" transform="rotate(-270,33,112)" x="33" y="112">3</text>
   <rect fill="#FFFFFF" height="6" stroke="none" stroke-linecap="square" stroke-width="1" width="20" x="9" y="122"/>
   <text fill="#FFFFFF" font-family="sans-serif" font-size="7" transform="rotate(-270,33,122)" x="33" y="122">4</text>
   <rect fill="#FFFFFF" height="6" stroke="none" stroke-linecap="square" stroke-width="1" width="20" x="9" y="132"/>
   <text fill="#FFFFFF" font-family="sans-serif" font-size="7" transform="rotate(-270,33,132)" x="33" y="132">5</text>
   <rect fill="#FFFFFF" height="6" stroke="none" stroke-linecap="square" stroke-width="1" width="20" x="9" y="142"/>
   <text fill="#FFFFFF" font-family="sans-serif" font-size="7" transform="rotate(-270,33,142)" x="33" y="142">6</text>
   <rect fill="#FFFFFF" height="6" stroke="none" stroke-linecap="square" stroke-width="1" width="20" x="9" y="152"/>
   <text fill="#FFFFFF" font-family="sans-serif" font-size="7" transform="rotate(-270,33,152)" x="33" y="152">7</text>
   <rect fill="#FFFFFF" height="6" stroke="none" stroke-linecap="square" stroke-width="1" width="20" x="9" y="162"/>
   <text fill="#FFFFFF" font-family="sans-serif" font-size="7" transform="rotate(-270,33,162)" x="33" y="162">8</text>
   <rect fill="#FFFFFF" height="6" stroke="none" stroke-linecap="square" stroke-width="1" width="20" x="9" y="172"/>
   <text fill="#FFFFFF" font-family="sans-serif" font-size="7" transform="rotate(-270,33,172)" x="33" y="172">9</text>
   <rect fill="#FFFFFF" height="6" stroke="none" stroke-linecap="square" stroke-width="1" width="20" x="9" y="182"/>
   <text fill="#FFFFFF" font-family="sans-serif" font-size="7" transform="rotate(-270,33,179)" x="33" y="179">10</text>
   <rect fill="#FFFFFF" height="6" stroke="none" stroke-linecap="square" stroke-width="1" width="20" x="9" y="192"/>
   <text fill="#FFFFFF" font-family="sans-serif" font-size="7" transform="rotate(-270,33,189)" x="33" y="189">11</text>
   <rect fill="#FFFFFF" height="6" stroke="none" stroke-linecap="square" stroke-width="1" width="20" x="9" y="202"/>
   <text fill="#FFFFFF" font-family="sans-serif" font-size="7" transform="rotate(-270,33,199)" x="33" y="199">12</text>
   <rect fill="#FFFFFF" height="6" stroke="none" stroke-linecap="square" stroke-width="1" width="20" x="9" y="212"/>
   <text fill="#FFFFFF" font-family="sans-serif" font-size="7" transform="rotate(-270,33,209)" x="33" y="209">13</text>
   <rect fill="#FFFFFF" height="6" stroke="none" stroke-linecap="square" stroke-width="1" width="20" x="9" y="222"/>
   <text fill="#FFFFFF" font-family="sans-serif" font-size="7" transform="rotate(-270,33,219)" x="33" y="219">14</text>
   <rect fill="#FFFFFF" height="6" stroke="none" stroke-linecap="square" stroke-width="1" width="20" x="9" y="232"/>
   <text fill="#FFFFFF" font-family="sans-serif" font-size="7" transform="rotate(-270,33,229)" x="33" y="229">15</text>
   <rect fill="#FFFFFF" height="6" stroke="none" stroke-linecap="square" stroke-width="1" width="20" x="9" y="242"/>
   <text fill="#FFFFFF" font-family="sans-serif" font-size="7" transform="rotate(-270,33,239)" x="33" y="239">16</text>
   <rect fill="#808080" height="4" stroke="none" stroke-linecap="square" stroke-width="1" width="9" x="10" y="93"/>
   <rect fill="#808080" height="4" stroke="none" stroke-linecap="square" stroke-width="1" width="9" x="10" y="103"/>
   <rect fill="#808080" height="4" stroke="none" stroke-linecap="square" stroke-width="1" width="9" x="10" y="113"/>
   <rect fill="#808080" height="4" stroke="none" stroke-linecap="square" stroke-width="1" width="9" x="10" y="123"/>
   <rect fill="#808080" height="4" stroke="none" stroke-linecap="square" stroke-width="1" width="9" x="10" y="133"/>
   <rect fill="#808080" height="4" stroke="none" stroke-linecap="square" stroke-width="1" width="9" x="10" y="143"/>
   <rect fill="#808080" height="4" stroke="none" stroke-linecap="square" stroke-width="1" width="9" x="10" y="153"/>
   <rect fill="#808080" height="4" stroke="none" stroke-linecap="square" stroke-width="1" width="9" x="10" y="163"/>
   <rect fill="#808080" height="4" stroke="none" stroke-linecap="square" stroke-width="1" width="9" x="10" y="173"/>
   <rect fill="#808080" height="4" stroke="none" stroke-linecap="square" stroke-width="1" width="9" x="10" y="183"/>
   <rect fill="#808080" height="4" stroke="none" stroke-linecap="square" stroke-width="1" width="9" x="10" y="193"/>
   <rect fill="#808080" height="4" stroke="none" stroke-linecap="square" stroke-width="1" width="9" x="10" y="203"/>
   <rect fill="#808080" height="4" stroke="none" stroke-linecap="square" stroke-width="1" width="9" x="10" y="213"/>
   <rect fill="#808080" height="4" stroke="none" stroke-linecap="square" stroke-width="1" width="9" x="10" y="223"/>
   <rect fill="#808080" height="4" stroke="none" stroke-linecap="square" stroke-width="1" width="9" x="10" y="233"/>
   <rect fill="#808080" height="4" stroke="none" stroke-linecap="square" stroke-width="1" width="9" x="10" y="243"/>
   <circle cx="45" cy="95" fill="#000000" r="2" stroke="none" stroke-width="1"/>
   <circle cx="45" cy="105" fill="#000000" r="2" stroke="none" stroke-width="1"/>
   <circle cx="45" cy="115" fill="#000000" r="2" stroke="none" stroke-width="1"/>
   <circle cx="45" cy="125" fill="#000000" r="2" stroke="none" stroke-width="1"/>
   <circle cx="45" cy="135" fill="#000000" r="2" stroke="none" stroke-width="1"/>
   <circle cx="45" cy="145" fill="#000000" r="2" stroke="none" stroke-width="1"/>
   <circle cx="45" cy="155" fill="#000000" r="2" stroke="none" stroke-width="1"/>
   <circle cx="45" cy="165" fill="#000000" r="2" stroke="none" stroke-width="1"/>
   <circle cx="45" cy="175" fill="#000000" r="2" stroke="none" stroke-width="1"/>
   <circle cx="45" cy="185" fill="#000000" r="2" stroke="none" stroke-width="1"/>
   <circle cx="45" cy="195" fill="#000000" r="2" stroke="none" stroke-width="1"/>
   <circle cx="45" cy="205" fill="#000000" r="2" stroke="none" stroke-width="1"/>
   <circle cx="45" cy="215" fill="#000000" r="2" stroke="none" stroke-width="1"/>
   <circle cx="45" cy="225" fill="#000000" r="2" stroke="none" stroke-width="1"/>
   <circle cx="45" cy="235" fill="#000000" r="2" stroke="none" stroke-width="1"/>
   <circle cx="45" cy="245" fill="#000000" r="2" stroke="none" stroke-width="1"/>
   <path d="M945,155 H959" fill="none" stroke="#000000" stroke-linecap="square" stroke-width="3"/>
   <path d="M945,165 H959" fill="none" stroke="#000000" stroke-linecap="square" stroke-width="3"/>
   <path d="M945,175 H959" fill="none" stroke="#000000" stroke-linecap="square" stroke-width="3"/>
   <path d="M945,185 H959" fill="none" stroke="#000000" stroke-linecap="square" stroke-width="3"/>
   <path d="M959,184 V151 L964,146" fill="none" stroke="#000000" stroke-linecap="square" stroke-width="5"/>
   <text fill="#000000" font-family="sans-serif" font-size="7" x="944" y="152">1-0</text>
   <text fill="#000000" font-family="sans-serif" font-size="7" x="944" y="162">3-2</text>
   <text fill="#000000" font-family="sans-serif" font-size="7" x="944" y="172">5-4</text>
   <text fill="#000000" font-family="sans-serif" font-size="7" x="944" y="182">7-6</text>
   <circle cx="965" cy="145" fill="#000000" r="2" stroke="none" stroke-width="5"/>
   <circle cx="945" cy="155" fill="#000000" r="2" stroke="none" stroke-width="5"/>
   <circle cx="945" cy="165" fill="#000000" r="2" stroke="none" stroke-width="5"/>
   <circle cx="945" cy="175" fill="#000000" r="2" stroke="none" stroke-width="5"/>
   <circle cx="945" cy="185" fill="#000000" r="2" stroke="none" stroke-width="5"/>
   <path d="M1065,130 L1095,139 V151 L1065,160 Z" fill="none" stroke="#000000" stroke-linecap="square" stroke-width="2"/>
   <text fill="#000000" font-family="sans-serif" font-size="12" x="1072" y="151">Sel</text>
   <circle cx="1095" cy="145" fill="#000000" r="2" stroke="none" stroke-width="2"/>
   <circle cx="1065" cy="145" fill="#000000" r="2" stroke="none" stroke-width="2"/>
   <circle cx="1085" cy="155" fill="#000000" r="2" stroke="none" stroke-width="2"/>
   <path d="M1255,75 H1269" fill="none" stroke="#000000" stroke-linecap="square" stroke-width="3"/>
   <path d="M1255,85 H1269" fill="none" stroke="#000000" stroke-linecap="square" stroke-width="3"/>
   <path d="M1269,84 V71 L1274,66" fill="none" stroke="#000000" stroke-linecap="square" stroke-width="5"/>
   <text fill="#000000" font-family="sans-serif" font-size="7" x="1254" y="72">1-0</text>
   <text fill="#000000" font-family="sans-serif" font-size="7" x="1254" y="82">3-2</text>
   <circle cx="1275" cy="65" fill="#000000" r="2" stroke="none" stroke-width="5"/>
   <circle cx="1255" cy="75" fill="#000000" r="2" stroke="none" stroke-width="5"/>
   <circle cx="1255" cy="85" fill="#000000" r="2" stroke="none" stroke-width="5"/>
   <path d="M1349,65 H1348" fill="none" stroke="#000000" stroke-linecap="square" stroke-width="4"/>
   <path d="M1351,56 H1405 L1415,65 L1405,74 H1351 Z" fill="none" stroke="#000000" stroke-linecap="square" stroke-width="2"/>
   <text fill="#000000" font-family="monospace" font-size="12" x="1366" y="71">x4</text>
   <text fill="#000000" font-family="sans-serif" font-size="16" font-weight="bold" x="1417" y="73">Y</text>
   <circle cx="1345" cy="65" fill="#000000" r="2" stroke="none" stroke-width="2"/>
   <path d="M1349,45 H1346" fill="none" stroke="#000000" stroke-linecap="square" stroke-width="3"/>
   <path d="M1351,36 H1375 L1385,45 L1375,54 H1351 Z" fill="none" stroke="#000000" stroke-linecap="square" stroke-width="2"/>
   <text fill="#000000" font-family="monospace" font-size="12" x="1351" y="51">x1</text>
   <text fill="#000000" font-family="sans-serif" font-size="16" font-weight="bold" x="1387" y="53">V</text>
   <circle cx="1345" cy="45" fill="#000000" r="2" stroke="none" stroke-width="2"/>
   <path d="M1005,335 H1019" fill="none" stroke="#000000" stroke-linecap="square" stroke-width="3"/>
   <path d="M1019,334 V331 L1024,326" fill="none" stroke="#000000" stroke-linecap="square" stroke-width="5"/>
   <text fill="#000000" font-family="sans-serif" font-size="7" x="1004" y="332">7-0</text>
   <circle cx="1025" cy="325" fill="#000000" r="2" stroke="none" stroke-width="5"/>
   <circle cx="1005" cy="335" fill="#000000" r="2" stroke="none" stroke-width="5"/>
   <path d="M1052,445 H1053" fill="none" stroke="#000000" stroke-linecap="square" stroke-width="4"/>
   <path d="M1050,454 H956 L946,445 L956,436 H1050 Z" fill="none" stroke="#000000" stroke-linecap="square" stroke-width="2"/>
   <text fill="#000000" font-family="monospace" font-size="12" x="986" y="451">x8</text>
   <text fill="#000000" font-family="sans-serif" font-size="16" font-weight="bold" x="884" y="453">groups</text>
   <circle cx="1055" cy="445" fill="#000000" r="2" stroke="none" stroke-width="2"/>
   <rect fill="#000000" height="4" stroke="none" stroke-linecap="square" stroke-width="1" width="10" x="1365" y="143"/>
   <rect fill="#000000" height="3" stroke="none" stroke-linecap="square" stroke-width="1" width="10" x="1365" y="164"/>
   <text fill="#404040" font-family="Dialog" font-size="12" x="1380" y="169">hex_enable</text>
   <rect fill="#000000" height="4" stroke="none" stroke-linecap="square" stroke-width="1" width="10" x="1575" y="143"/>
   <rect fill="#000000" height="20" stroke="none" stroke-linecap="square" stroke-width="1" width="200" x="1375" y="175"/>
   <rect fill="none" height="60" stroke="#000000" stroke-linecap="square" stroke-width="2" width="200" x="1375" y="135"/>
   <text fill="#FFFFFF" font-family="Dialog" font-size="14" font-weight="bold" x="1428" y="189">sevenSegHex</text>
   <circle cx="1365" cy="145" fill="#000000" r="2" stroke="none" stroke-width="1"/>
   <circle cx="1365" cy="165" fill="#000000" r="2" stroke="none" stroke-width="1"/>
   <circle cx="1585" cy="145" fill="#000000" r="2" stroke="none" stroke-width="1"/>
   <text fill="#000000" font-family="monospace" font-size="12" x="1255" y="229">1</text>
   <circle cx="1265" cy="225" fill="#000000" r="2" stroke="none" stroke-width="1"/>
   <rect fill="none" height="60" stroke="#000000" stroke-linecap="square" stroke-width="2" width="40" x="1800" y="105"/>
   <rect fill="#404040" height="4" stroke="none" stroke-linecap="square" stroke-width="1" width="19" x="1808" y="113"/>
   <rect fill="#404040" height="19" stroke="none" stroke-linecap="square" stroke-width="1" width="4" x="1828" y="115"/>
   <rect fill="#404040" height="19" stroke="none" stroke-linecap="square" stroke-width="1" width="4" x="1828" y="135"/>
   <rect fill="#404040" height="4" stroke="none" stroke-linecap="square" stroke-width="1" width="19" x="1808" y="152"/>
   <rect fill="#404040" height="19" stroke="none" stroke-linecap="square" stroke-width="1" width="4" x="1803" y="135"/>
   <rect fill="#404040" height="19" stroke="none" stroke-linecap="square" stroke-width="1" width="4" x="1803" y="115"/>
   <rect fill="#404040" height="4" stroke="none" stroke-linecap="square" stroke-width="1" width="19" x="1808" y="133"/>
   <circle cx="1835" cy="155" fill="#404040" r="2.5" stroke="none" stroke-width="1"/>
   <circle cx="1825" cy="105" fill="#000000" r="2" stroke="none" stroke-width="1"/>
   <circle cx="1835" cy="105" fill="#000000" r="2" stroke="none" stroke-width="1"/>
   <circle cx="1825" cy="165" fill="#000000" r="2" stroke="none" stroke-width="1"/>
   <circle cx="1815" cy="165" fill="#000000" r="2" stroke="none" stroke-width="1"/>
   <circle cx="1805" cy="165" fill="#000000" r="2" stroke="none" stroke-width="1"/>
   <circle cx="1815" cy="105" fill="#000000" r="2" stroke="none" stroke-width="1"/>
   <circle cx="1805" cy="105" fill="#000000" r="2" stroke="none" stroke-width="1"/>
   <circle cx="1835" cy="165" fill="#000000" r="2" stroke="none" stroke-width="1"/>
   <path d="M1825,105 V45 H1691" fill="none" stroke="#000000" stroke-linecap="square" stroke-width="3"/>
   <path d="M1835,105 V55 H1691" fill="none" stroke="#000000" stroke-linecap="square" stroke-width="3"/>
   <path d="M1825,165 V205 H1895 V65 H1691" fill="none" stroke="#000000" stroke-linecap="square" stroke-width="3"/>
   <path d="M1815,165 V215 H1915 V75 H1691" fill="none" stroke="#000000" stroke-linecap="square" stroke-width="3"/>
   <path d="M1805,165 V195 H1745 V85 H1691" fill="none" stroke="#000000" stroke-linecap="square" stroke-width="3"/>
   <path d="M1815,105 V85 H1755 V95 H1691" fill="none" stroke="#000000" stroke-linecap="square" stroke-width="3"/>
   <path d="M1805,105 H1691" fill="none" stroke="#000000" stroke-linecap="square" stroke-width="3"/>
   <path d="M1835,165 V245 H1705 V115 H1691" fill="none" stroke="#000000" stroke-linecap="square" stroke-width="3"/>
   <path d="M1691,46 V119 L1686,124" fill="none" stroke="#000000" stroke-linecap="square" stroke-width="5"/>
   <text fill="#000000" font-family="sans-serif" font-size="7" x="1694" y="52">0</text>
   <text fill="#000000" font-family="sans-serif" font-size="7" x="1694" y="62">1</text>
   <text fill="#000000" font-family="sans-serif" font-size="7" x="1694" y="72">2</text>
   <text fill="#000000" font-family="sans-serif" font-size="7" x="1694" y="82">3</text>
   <text fill="#000000" font-family="sans-serif" font-size="7" x="1694" y="92">4</text>
   <text fill="#000000" font-family="sans-serif" font-size="7" x="1694" y="102">5</text>
   <text fill="#000000" font-family="sans-serif" font-size="7" x="1694" y="112">6</text>
   <text fill="#000000" font-family="sans-serif" font-size="7" x="1694" y="122">7</text>
   <circle cx="1685" cy="125" fill="#000000" r="2" stroke="none" stroke-width="5"/>
   <circle cx="1705" cy="45" fill="#000000" r="2" stroke="none" stroke-width="5"/>
   <circle cx="1705" cy="55" fill="#000000" r="2" stroke="none" stroke-width="5"/>
   <circle cx="1705" cy="65" fill="#000000" r="2" stroke="none" stroke-width="5"/>
   <circle cx="1705" cy="75" fill="#000000" r="2" stroke="none" stroke-width="5"/>
   <circle cx="1705" cy="85" fill="#000000" r="2" stroke="none" stroke-width="5"/>
   <circle cx="1705" cy="95" fill="#000000" r="2" stroke="none" stroke-width="5"/>
   <circle cx="1705" cy="105" fill="#000000" r="2" stroke="none" stroke-width="5"/>
   <circle cx="1705" cy="115" fill="#000000" r="2" stroke="none" stroke-width="5"/>
</svg>
