<?xml version="1.0" encoding="UTF-8" standalone="no"?>
<svg xmlns="http://www.w3.org/2000/svg" height="182" version="1.1" viewBox="0 0 662 182" width="662">
   <path d="M546,95 H606" fill="none" stroke="#000000" stroke-linecap="square" stroke-width="3"/>
   <path d="M346,65 H166 V125 H356" fill="none" stroke="#000000" stroke-linecap="square" stroke-width="3"/>
   <circle cx="356" cy="25" fill="#000000" r="5" stroke="none" stroke-width="3"/>
   <circle cx="166" cy="95" fill="#000000" r="5" stroke="none" stroke-width="3"/>
   <path d="M61,15 H306 V25 H356 V35" fill="none" stroke="#000000" stroke-linecap="square" stroke-width="3"/>
   <path d="M27,6 H51 L61,15 L51,24 H27 Z" fill="none" stroke="#000000" stroke-linecap="square" stroke-width="2"/>
   <text fill="#000000" font-family="monospace" font-size="12" x="32" y="22">x1</text>
   <text fill="#000000" font-family="sans-serif" font-size="16" font-weight="bold" x="5" y="23">d0</text>
   <circle cx="66" cy="15" fill="#000000" r="2" stroke="none" stroke-width="2"/>
   <path d="M61,165 H356" fill="none" stroke="#000000" stroke-linecap="square" stroke-width="3"/>
   <path d="M27,156 H51 L61,165 L51,174 H27 Z" fill="none" stroke="#000000" stroke-linecap="square" stroke-width="2"/>
   <text fill="#000000" font-family="monospace" font-size="12" x="32" y="172">x1</text>
   <text fill="#000000" font-family="sans-serif" font-size="16" font-weight="bold" x="5" y="173">d1</text>
   <circle cx="66" cy="165" fill="#000000" r="2" stroke="none" stroke-width="2"/>
   <path d="M61,95 H166" fill="none" stroke="#000000" stroke-linecap="square" stroke-width="3"/>
   <path d="M27,86 H51 L61,95 L51,104 H27 Z" fill="none" stroke="#000000" stroke-linecap="square" stroke-width="2"/>
   <text fill="#000000" font-family="monospace" font-size="12" x="32" y="102">x1</text>
   <text fill="#000000" font-family="sans-serif" font-size="16" font-weight="bold" x="15" y="103">s</text>
   <circle cx="66" cy="95" fill="#000000" r="2" stroke="none" stroke-width="2"/>
   <circle cx="351" cy="65" fill="none" r="4.5" stroke="#000000" stroke-width="2"/>
   <path d="M381,70 A25,25 90 0,0 381,20" fill="none" stroke="#000000" stroke-width="2"/>
   <path d="M381,20 H357 V70 H381" fill="none" stroke="#000000" stroke-linecap="square" stroke-width="2"/>
   <path d="M381,170 A25,25 90 0,0 381,120" fill="none" stroke="#000000" stroke-width="2"/>
   <path d="M381,120 H357 V170 H381" fill="none" stroke="#000000" stroke-linecap="square" stroke-width="2"/>
   <path d="M406,45 H436 V75 H496" fill="none" stroke="#000000" stroke-linecap="square" stroke-width="3"/>
   <path d="M496,115 H436 V145 H406" fill="none" stroke="#000000" stroke-linecap="square" stroke-width="3"/>
   <path d="M546,95 Q526,70 496,70 Q509,95 496,120 Q526,120 546,95 Z" fill="none" stroke="#000000" stroke-linecap="square" stroke-width="2"/>
   <path d="M610,95 H607" fill="none" stroke="#000000" stroke-linecap="square" stroke-width="3"/>
   <path d="M612,86 H636 L646,95 L636,104 H612 Z" fill="none" stroke="#000000" stroke-linecap="square" stroke-width="2"/>
   <text fill="#000000" font-family="monospace" font-size="12" x="612" y="102">x1</text>
   <text fill="#000000" font-family="sans-serif" font-size="16" font-weight="bold" x="648" y="103">y</text>
   <circle cx="606" cy="95" fill="#000000" r="2" stroke="none" stroke-width="2"/>
</svg>
