<?xml version="1.0" encoding="UTF-8" standalone="no"?>
<svg xmlns="http://www.w3.org/2000/svg" height="356" version="1.1" viewBox="0 0 809 356" width="809">
   <path d="M120,40 V190 H230" fill="none" stroke="#000000" stroke-linecap="square" stroke-width="3"/>
   <path d="M390,60 H140 V280 H390" fill="none" stroke="#000000" stroke-linecap="square" stroke-width="3"/>
   <path d="M390,80 H160 V300 H390" fill="none" stroke="#000000" stroke-linecap="square" stroke-width="3"/>
   <path d="M610,320 H720 V180 H740" fill="none" stroke="#000000" stroke-linecap="square" stroke-width="3"/>
   <path d="M610,260 H640 V120 H740" fill="none" stroke="#000000" stroke-linecap="square" stroke-width="3"/>
   <path d="M330,30 H350 V40 H390" fill="none" stroke="#000000" stroke-linecap="square" stroke-width="3"/>
   <path d="M350,190 H370 V260 H390" fill="none" stroke="#000000" stroke-linecap="square" stroke-width="3"/>
   <path d="M260,190 H270 V210 H300" fill="none" stroke="#000000" stroke-linecap="square" stroke-width="3"/>
   <path d="M610,40 H740" fill="none" stroke="#000000" stroke-linecap="square" stroke-width="3"/>
   <path d="M610,60 H740" fill="none" stroke="#000000" stroke-linecap="square" stroke-width="3"/>
   <path d="M610,80 H740" fill="none" stroke="#000000" stroke-linecap="square" stroke-width="3"/>
   <path d="M610,100 H740" fill="none" stroke="#000000" stroke-linecap="square" stroke-width="3"/>
   <path d="M220,10 V170 H300" fill="none" stroke="#000000" stroke-linecap="square" stroke-width="3"/>
   <path d="M610,300 H690 V160 H740" fill="none" stroke="#000000" stroke-linecap="square" stroke-width="3"/>
   <path d="M610,280 H660 V140 H740" fill="none" stroke="#000000" stroke-linecap="square" stroke-width="3"/>
   <circle cx="220" cy="10" fill="#000000" r="5" stroke="none" stroke-width="3"/>
   <circle cx="140" cy="60" fill="#000000" r="5" stroke="none" stroke-width="3"/>
   <circle cx="160" cy="80" fill="#000000" r="5" stroke="none" stroke-width="3"/>
   <circle cx="120" cy="40" fill="#000000" r="5" stroke="none" stroke-width="3"/>
   <rect fill="#000000" height="3" stroke="none" stroke-linecap="square" stroke-width="1" width="10" x="390" y="39"/>
   <text fill="#404040" font-family="Dialog" font-size="12" x="405" y="44">EN</text>
   <rect fill="#000000" height="3" stroke="none" stroke-linecap="square" stroke-width="1" width="10" x="390" y="59"/>
   <text fill="#404040" font-family="Dialog" font-size="12" x="405" y="64">A1</text>
   <rect fill="#000000" height="3" stroke="none" stroke-linecap="square" stroke-width="1" width="10" x="390" y="79"/>
   <text fill="#404040" font-family="Dialog" font-size="12" x="405" y="84">A0</text>
   <rect fill="#000000" height="3" stroke="none" stroke-linecap="square" stroke-width="1" width="10" x="600" y="39"/>
   <text fill="#404040" font-family="Dialog" font-size="12" x="580" y="44">Y3</text>
   <rect fill="#000000" height="3" stroke="none" stroke-linecap="square" stroke-width="1" width="10" x="600" y="59"/>
   <text fill="#404040" font-family="Dialog" font-size="12" x="580" y="64">Y2</text>
   <rect fill="#000000" height="3" stroke="none" stroke-linecap="square" stroke-width="1" width="10" x="600" y="79"/>
   <text fill="#404040" font-family="Dialog" font-size="12" x="580" y="84">Y1</text>
   <rect fill="#000000" height="3" stroke="none" stroke-linecap="square" stroke-width="1" width="10" x="600" y="99"/>
   <text fill="#404040" font-family="Dialog" font-size="12" x="580" y="104">Y0</text>
   <rect fill="#000000" height="20" stroke="none" stroke-linecap="square" stroke-width="1" width="200" x="400" y="110"/>
   <rect fill="none" height="100" stroke="#000000" stroke-linecap="square" stroke-width="2" width="200" x="400" y="30"/>
   <text fill="#FFFFFF" font-family="Dialog" font-size="14" font-weight="bold" x="489" y="124">tfd</text>
   <circle cx="390" cy="40" fill="#000000" r="2" stroke="none" stroke-width="1"/>
   <circle cx="390" cy="60" fill="#000000" r="2" stroke="none" stroke-width="1"/>
   <circle cx="390" cy="80" fill="#000000" r="2" stroke="none" stroke-width="1"/>
   <circle cx="610" cy="40" fill="#000000" r="2" stroke="none" stroke-width="1"/>
   <circle cx="610" cy="60" fill="#000000" r="2" stroke="none" stroke-width="1"/>
   <circle cx="610" cy="80" fill="#000000" r="2" stroke="none" stroke-width="1"/>
   <circle cx="610" cy="100" fill="#000000" r="2" stroke="none" stroke-width="1"/>
   <rect fill="#000000" height="3" stroke="none" stroke-linecap="square" stroke-width="1" width="10" x="390" y="259"/>
   <text fill="#404040" font-family="Dialog" font-size="12" x="405" y="264">EN</text>
   <rect fill="#000000" height="3" stroke="none" stroke-linecap="square" stroke-width="1" width="10" x="390" y="279"/>
   <text fill="#404040" font-family="Dialog" font-size="12" x="405" y="284">A1</text>
   <rect fill="#000000" height="3" stroke="none" stroke-linecap="square" stroke-width="1" width="10" x="390" y="299"/>
   <text fill="#404040" font-family="Dialog" font-size="12" x="405" y="304">A0</text>
   <rect fill="#000000" height="3" stroke="none" stroke-linecap="square" stroke-width="1" width="10" x="600" y="259"/>
   <text fill="#404040" font-family="Dialog" font-size="12" x="580" y="264">Y3</text>
   <rect fill="#000000" height="3" stroke="none" stroke-linecap="square" stroke-width="1" width="10" x="600" y="279"/>
   <text fill="#404040" font-family="Dialog" font-size="12" x="580" y="284">Y2</text>
   <rect fill="#000000" height="3" stroke="none" stroke-linecap="square" stroke-width="1" width="10" x="600" y="299"/>
   <text fill="#404040" font-family="Dialog" font-size="12" x="580" y="304">Y1</text>
   <rect fill="#000000" height="3" stroke="none" stroke-linecap="square" stroke-width="1" width="10" x="600" y="319"/>
   <text fill="#404040" font-family="Dialog" font-size="12" x="580" y="324">Y0</text>
   <rect fill="#000000" height="20" stroke="none" stroke-linecap="square" stroke-width="1" width="200" x="400" y="330"/>
   <rect fill="none" height="100" stroke="#000000" stroke-linecap="square" stroke-width="2" width="200" x="400" y="250"/>
   <text fill="#FFFFFF" font-family="Dialog" font-size="14" font-weight="bold" x="489" y="344">tfd</text>
   <circle cx="390" cy="260" fill="#000000" r="2" stroke="none" stroke-width="1"/>
   <circle cx="390" cy="280" fill="#000000" r="2" stroke="none" stroke-width="1"/>
   <circle cx="390" cy="300" fill="#000000" r="2" stroke="none" stroke-width="1"/>
   <circle cx="610" cy="260" fill="#000000" r="2" stroke="none" stroke-width="1"/>
   <circle cx="610" cy="280" fill="#000000" r="2" stroke="none" stroke-width="1"/>
   <circle cx="610" cy="300" fill="#000000" r="2" stroke="none" stroke-width="1"/>
   <circle cx="610" cy="320" fill="#000000" r="2" stroke="none" stroke-width="1"/>
   <path d="M744,40 H741" fill="none" stroke="#000000" stroke-linecap="square" stroke-width="3"/>
   <path d="M746,31 H770 L780,40 L770,49 H746 Z" fill="none" stroke="#000000" stroke-linecap="square" stroke-width="2"/>
   <text fill="#000000" font-family="monospace" font-size="12" x="746" y="46">x1</text>
   <text fill="#000000" font-family="sans-serif" font-size="16" font-weight="bold" x="782" y="48">Y7</text>
   <circle cx="740" cy="40" fill="#000000" r="2" stroke="none" stroke-width="2"/>
   <path d="M744,60 H741" fill="none" stroke="#000000" stroke-linecap="square" stroke-width="3"/>
   <path d="M746,51 H770 L780,60 L770,69 H746 Z" fill="none" stroke="#000000" stroke-linecap="square" stroke-width="2"/>
   <text fill="#000000" font-family="monospace" font-size="12" x="746" y="66">x1</text>
   <text fill="#000000" font-family="sans-serif" font-size="16" font-weight="bold" x="782" y="68">Y6</text>
   <circle cx="740" cy="60" fill="#000000" r="2" stroke="none" stroke-width="2"/>
   <path d="M744,80 H741" fill="none" stroke="#000000" stroke-linecap="square" stroke-width="3"/>
   <path d="M746,71 H770 L780,80 L770,89 H746 Z" fill="none" stroke="#000000" stroke-linecap="square" stroke-width="2"/>
   <text fill="#000000" font-family="monospace" font-size="12" x="746" y="86">x1</text>
   <text fill="#000000" font-family="sans-serif" font-size="16" font-weight="bold" x="782" y="88">Y5</text>
   <circle cx="740" cy="80" fill="#000000" r="2" stroke="none" stroke-width="2"/>
   <path d="M744,100 H741" fill="none" stroke="#000000" stroke-linecap="square" stroke-width="3"/>
   <path d="M746,91 H770 L780,100 L770,109 H746 Z" fill="none" stroke="#000000" stroke-linecap="square" stroke-width="2"/>
   <text fill="#000000" font-family="monospace" font-size="12" x="746" y="106">x1</text>
   <text fill="#000000" font-family="sans-serif" font-size="16" font-weight="bold" x="782" y="108">Y4</text>
   <circle cx="740" cy="100" fill="#000000" r="2" stroke="none" stroke-width="2"/>
   <path d="M744,120 H741" fill="none" stroke="#000000" stroke-linecap="square" stroke-width="3"/>
   <path d="M746,111 H770 L780,120 L770,129 H746 Z" fill="none" stroke="#000000" stroke-linecap="square" stroke-width="2"/>
   <text fill="#000000" font-family="monospace" font-size="12" x="746" y="126">x1</text>
   <text fill="#000000" font-family="sans-serif" font-size="16" font-weight="bold" x="782" y="128">Y3</text>
   <circle cx="740" cy="120" fill="#000000" r="2" stroke="none" stroke-width="2"/>
   <path d="M744,140 H741" fill="none" stroke="#000000" stroke-linecap="square" stroke-width="3"/>
   <path d="M746,131 H770 L780,140 L770,149 H746 Z" fill="none" stroke="#000000" stroke-linecap="square" stroke-width="2"/>
   <text fill="#000000" font-family="monospace" font-size="12" x="746" y="146">x1</text>
   <text fill="#000000" font-family="sans-serif" font-size="16" font-weight="bold" x="782" y="148">Y2</text>
   <circle cx="740" cy="140" fill="#000000" r="2" stroke="none" stroke-width="2"/>
   <path d="M744,160 H741" fill="none" stroke="#000000" stroke-linecap="square" stroke-width="3"/>
   <path d="M746,151 H770 L780,160 L770,169 H746 Z" fill="none" stroke="#000000" stroke-linecap="square" stroke-width="2"/>
   <text fill="#000000" font-family="monospace" font-size="12" x="746" y="166">x1</text>
   <text fill="#000000" font-family="sans-serif" font-size="16" font-weight="bold" x="782" y="168">Y1</text>
   <circle cx="740" cy="160" fill="#000000" r="2" stroke="none" stroke-width="2"/>
   <path d="M744,180 H741" fill="none" stroke="#000000" stroke-linecap="square" stroke-width="3"/>
   <path d="M746,171 H770 L780,180 L770,189 H746 Z" fill="none" stroke="#000000" stroke-linecap="square" stroke-width="2"/>
   <text fill="#000000" font-family="monospace" font-size="12" x="746" y="186">x1</text>
   <text fill="#000000" font-family="sans-serif" font-size="16" font-weight="bold" x="782" y="188">Y0</text>
   <circle cx="740" cy="180" fill="#000000" r="2" stroke="none" stroke-width="2"/>
   <path d="M65,80 H160" fill="none" stroke="#000000" stroke-linecap="square" stroke-width="3"/>
   <path d="M31,71 H55 L65,80 L55,89 H31 Z" fill="none" stroke="#000000" stroke-linecap="square" stroke-width="2"/>
   <text fill="#000000" font-family="monospace" font-size="12" x="36" y="86">x1</text>
   <text fill="#000000" font-family="sans-serif" font-size="16" font-weight="bold" x="5" y="88">A0</text>
   <circle cx="70" cy="80" fill="#000000" r="2" stroke="none" stroke-width="2"/>
   <path d="M65,60 H140" fill="none" stroke="#000000" stroke-linecap="square" stroke-width="3"/>
   <path d="M31,51 H55 L65,60 L55,69 H31 Z" fill="none" stroke="#000000" stroke-linecap="square" stroke-width="2"/>
   <text fill="#000000" font-family="monospace" font-size="12" x="36" y="66">x1</text>
   <text fill="#000000" font-family="sans-serif" font-size="16" font-weight="bold" x="5" y="68">A1</text>
   <circle cx="70" cy="60" fill="#000000" r="2" stroke="none" stroke-width="2"/>
   <path d="M65,40 H180 V50 H280" fill="none" stroke="#000000" stroke-linecap="square" stroke-width="3"/>
   <path d="M31,31 H55 L65,40 L55,49 H31 Z" fill="none" stroke="#000000" stroke-linecap="square" stroke-width="2"/>
   <text fill="#000000" font-family="monospace" font-size="12" x="36" y="46">x1</text>
   <text fill="#000000" font-family="sans-serif" font-size="16" font-weight="bold" x="5" y="48">A2</text>
   <circle cx="70" cy="40" fill="#000000" r="2" stroke="none" stroke-width="2"/>
   <path d="M65,20 H180 V10 H280" fill="none" stroke="#000000" stroke-linecap="square" stroke-width="3"/>
   <path d="M31,11 H55 L65,20 L55,29 H31 Z" fill="none" stroke="#000000" stroke-linecap="square" stroke-width="2"/>
   <text fill="#000000" font-family="monospace" font-size="12" x="36" y="26">x1</text>
   <text fill="#000000" font-family="sans-serif" font-size="16" font-weight="bold" x="6" y="28">EN</text>
   <circle cx="70" cy="20" fill="#000000" r="2" stroke="none" stroke-width="2"/>
   <path d="M305,55 A25,25 90 0,0 305,5" fill="none" stroke="#000000" stroke-width="2"/>
   <path d="M305,5 H281 V55 H305" fill="none" stroke="#000000" stroke-linecap="square" stroke-width="2"/>
   <path d="M325,215 A25,25 90 0,0 325,165" fill="none" stroke="#000000" stroke-width="2"/>
   <path d="M325,165 H301 V215 H325" fill="none" stroke="#000000" stroke-linecap="square" stroke-width="2"/>
   <path d="M250,190 L231,183 V197 L250,190" fill="none" stroke="#000000" stroke-linecap="square" stroke-width="2"/>
   <circle cx="255" cy="190" fill="none" r="4.5" stroke="#000000" stroke-width="2"/>
   <circle cx="260" cy="190" fill="#000000" r="2" stroke="none" stroke-width="2"/>
   <circle cx="230" cy="190" fill="#000000" r="2" stroke="none" stroke-width="2"/>
</svg>
