<?xml version="1.0" encoding="UTF-8" standalone="no"?>
<svg xmlns="http://www.w3.org/2000/svg" height="921" version="1.1" viewBox="0 0 1381 921" width="1381">
   <path d="M1196,495 H1316" fill="none" stroke="#000000" stroke-linecap="square" stroke-width="4"/>
   <path d="M466,165 H436 V155 H526 V205 H546" fill="none" stroke="#000000" stroke-linecap="square" stroke-width="3"/>
   <path d="M456,435 H426 V425 H516 V475 H536" fill="none" stroke="#000000" stroke-linecap="square" stroke-width="3"/>
   <path d="M656,385 V425 H596 V505 H606" fill="none" stroke="#000000" stroke-linecap="square" stroke-width="3"/>
   <path d="M516,425 H596" fill="none" stroke="#000000" stroke-linecap="square" stroke-width="3"/>
   <path d="M526,155 H606 V235 H616" fill="none" stroke="#000000" stroke-linecap="square" stroke-width="3"/>
   <path d="M606,155 H686 V345 H656" fill="none" stroke="#000000" stroke-linecap="square" stroke-width="3"/>
   <path d="M386,325 H436" fill="none" stroke="#000000" stroke-linecap="square" stroke-width="3"/>
   <path d="M616,85 H606 V5 H756 V325 H656" fill="none" stroke="#000000" stroke-linecap="square" stroke-width="3"/>
   <path d="M416,725 H386 V715 H476 V765 H496" fill="none" stroke="#000000" stroke-linecap="square" stroke-width="3"/>
   <path d="M466,15 H436 V5 H526 V55 H546" fill="none" stroke="#000000" stroke-linecap="square" stroke-width="3"/>
   <path d="M656,365 H676 V675 H616 V715 H556 V795 H566" fill="none" stroke="#000000" stroke-linecap="square" stroke-width="3"/>
   <path d="M476,715 H556" fill="none" stroke="#000000" stroke-linecap="square" stroke-width="3"/>
   <path d="M526,5 H606" fill="none" stroke="#000000" stroke-linecap="square" stroke-width="3"/>
   <circle cx="606" cy="5" fill="#000000" r="5" stroke="none" stroke-width="3"/>
   <circle cx="526" cy="5" fill="#000000" r="5" stroke="none" stroke-width="3"/>
   <circle cx="596" cy="425" fill="#000000" r="5" stroke="none" stroke-width="3"/>
   <circle cx="606" cy="155" fill="#000000" r="5" stroke="none" stroke-width="3"/>
   <circle cx="556" cy="715" fill="#000000" r="5" stroke="none" stroke-width="3"/>
   <circle cx="516" cy="425" fill="#000000" r="5" stroke="none" stroke-width="3"/>
   <circle cx="526" cy="155" fill="#000000" r="5" stroke="none" stroke-width="3"/>
   <circle cx="476" cy="715" fill="#000000" r="5" stroke="none" stroke-width="3"/>
   <path d="M456,475 H406 V415 H192" fill="none" stroke="#000000" stroke-linecap="square" stroke-width="3"/>
   <path d="M536,515 H516 V495 H416 V425 H192" fill="none" stroke="#000000" stroke-linecap="square" stroke-width="3"/>
   <path d="M606,545 H506 V515 H396 V435 H192" fill="none" stroke="#000000" stroke-linecap="square" stroke-width="3"/>
   <path d="M192,416 V439 L187,444" fill="none" stroke="#000000" stroke-linecap="square" stroke-width="5"/>
   <text fill="#000000" font-family="sans-serif" font-size="7" x="195" y="423">0</text>
   <text fill="#000000" font-family="sans-serif" font-size="7" x="195" y="433">1</text>
   <text fill="#000000" font-family="sans-serif" font-size="7" x="195" y="443">2</text>
   <circle cx="186" cy="445" fill="#000000" r="2" stroke="none" stroke-width="5"/>
   <circle cx="206" cy="415" fill="#000000" r="2" stroke="none" stroke-width="5"/>
   <circle cx="206" cy="425" fill="#000000" r="2" stroke="none" stroke-width="5"/>
   <circle cx="206" cy="435" fill="#000000" r="2" stroke="none" stroke-width="5"/>
   <path d="M641,280 A25,25 90 0,0 641,230" fill="none" stroke="#000000" stroke-width="2"/>
   <path d="M641,230 H617 V280 H641" fill="none" stroke="#000000" stroke-linecap="square" stroke-width="2"/>
   <path d="M491,60 A25,25 90 0,0 491,10" fill="none" stroke="#000000" stroke-width="2"/>
   <path d="M491,10 H467 V60 H491" fill="none" stroke="#000000" stroke-linecap="square" stroke-width="2"/>
   <path d="M631,550 A25,25 90 0,0 631,500" fill="none" stroke="#000000" stroke-width="2"/>
   <path d="M631,500 H607 V550 H631" fill="none" stroke="#000000" stroke-linecap="square" stroke-width="2"/>
   <path d="M466,205 H416 V175 H182" fill="none" stroke="#000000" stroke-linecap="square" stroke-width="3"/>
   <path d="M546,245 H526 V225 H436 V185 H182" fill="none" stroke="#000000" stroke-linecap="square" stroke-width="3"/>
   <path d="M616,275 H516 V245 H436 V265 H296 V195 H182" fill="none" stroke="#000000" stroke-linecap="square" stroke-width="3"/>
   <path d="M182,176 V199 L177,204" fill="none" stroke="#000000" stroke-linecap="square" stroke-width="5"/>
   <text fill="#000000" font-family="sans-serif" font-size="7" x="185" y="183">0</text>
   <text fill="#000000" font-family="sans-serif" font-size="7" x="185" y="193">1</text>
   <text fill="#000000" font-family="sans-serif" font-size="7" x="185" y="203">2</text>
   <circle cx="176" cy="205" fill="#000000" r="2" stroke="none" stroke-width="5"/>
   <circle cx="196" cy="175" fill="#000000" r="2" stroke="none" stroke-width="5"/>
   <circle cx="196" cy="185" fill="#000000" r="2" stroke="none" stroke-width="5"/>
   <circle cx="196" cy="195" fill="#000000" r="2" stroke="none" stroke-width="5"/>
   <path d="M381,365 H436" fill="none" stroke="#000000" stroke-linecap="square" stroke-width="3"/>
   <path d="M347,356 H371 L381,365 L371,374 H347 Z" fill="none" stroke="#000000" stroke-linecap="square" stroke-width="2"/>
   <text fill="#000000" font-family="monospace" font-size="12" x="352" y="372">x1</text>
   <text fill="#000000" font-family="sans-serif" font-size="16" font-weight="bold" x="326" y="373">s0</text>
   <circle cx="386" cy="365" fill="#000000" r="2" stroke="none" stroke-width="2"/>
   <path d="M466,55 H416 V15 H182" fill="none" stroke="#000000" stroke-linecap="square" stroke-width="3"/>
   <path d="M546,95 H526 V75 H426 V25 H182" fill="none" stroke="#000000" stroke-linecap="square" stroke-width="3"/>
   <path d="M616,125 H516 V95 H446 V35 H182" fill="none" stroke="#000000" stroke-linecap="square" stroke-width="3"/>
   <path d="M182,16 V39 L177,44" fill="none" stroke="#000000" stroke-linecap="square" stroke-width="5"/>
   <text fill="#000000" font-family="sans-serif" font-size="7" x="185" y="23">0</text>
   <text fill="#000000" font-family="sans-serif" font-size="7" x="185" y="33">1</text>
   <text fill="#000000" font-family="sans-serif" font-size="7" x="185" y="43">2</text>
   <circle cx="176" cy="45" fill="#000000" r="2" stroke="none" stroke-width="5"/>
   <circle cx="196" cy="15" fill="#000000" r="2" stroke="none" stroke-width="5"/>
   <circle cx="196" cy="25" fill="#000000" r="2" stroke="none" stroke-width="5"/>
   <circle cx="196" cy="35" fill="#000000" r="2" stroke="none" stroke-width="5"/>
   <path d="M641,130 A25,25 90 0,0 641,80" fill="none" stroke="#000000" stroke-width="2"/>
   <path d="M641,80 H617 V130 H641" fill="none" stroke="#000000" stroke-linecap="square" stroke-width="2"/>
   <path d="M561,520 A25,25 90 0,0 561,470" fill="none" stroke="#000000" stroke-width="2"/>
   <path d="M561,470 H537 V520 H561" fill="none" stroke="#000000" stroke-linecap="square" stroke-width="2"/>
   <rect fill="#000000" height="3" stroke="none" stroke-linecap="square" stroke-width="1" width="10" x="436" y="324"/>
   <text fill="#404040" font-family="Dialog" font-size="12" x="451" y="329">EN</text>
   <rect fill="#000000" height="3" stroke="none" stroke-linecap="square" stroke-width="1" width="10" x="436" y="344"/>
   <text fill="#404040" font-family="Dialog" font-size="12" x="451" y="349">A1</text>
   <rect fill="#000000" height="3" stroke="none" stroke-linecap="square" stroke-width="1" width="10" x="436" y="364"/>
   <text fill="#404040" font-family="Dialog" font-size="12" x="451" y="369">A0</text>
   <rect fill="#000000" height="3" stroke="none" stroke-linecap="square" stroke-width="1" width="10" x="646" y="324"/>
   <text fill="#404040" font-family="Dialog" font-size="12" x="627" y="329">Y3</text>
   <rect fill="#000000" height="3" stroke="none" stroke-linecap="square" stroke-width="1" width="10" x="646" y="344"/>
   <text fill="#404040" font-family="Dialog" font-size="12" x="627" y="349">Y2</text>
   <rect fill="#000000" height="3" stroke="none" stroke-linecap="square" stroke-width="1" width="10" x="646" y="364"/>
   <text fill="#404040" font-family="Dialog" font-size="12" x="627" y="369">Y1</text>
   <rect fill="#000000" height="3" stroke="none" stroke-linecap="square" stroke-width="1" width="10" x="646" y="384"/>
   <text fill="#404040" font-family="Dialog" font-size="12" x="627" y="389">Y0</text>
   <rect fill="#000000" height="20" stroke="none" stroke-linecap="square" stroke-width="1" width="200" x="446" y="395"/>
   <rect fill="none" height="100" stroke="#000000" stroke-linecap="square" stroke-width="2" width="200" x="446" y="315"/>
   <text fill="#FFFFFF" font-family="Dialog" font-size="14" font-weight="bold" x="536" y="409">tfd</text>
   <circle cx="436" cy="325" fill="#000000" r="2" stroke="none" stroke-width="1"/>
   <circle cx="436" cy="345" fill="#000000" r="2" stroke="none" stroke-width="1"/>
   <circle cx="436" cy="365" fill="#000000" r="2" stroke="none" stroke-width="1"/>
   <circle cx="656" cy="325" fill="#000000" r="2" stroke="none" stroke-width="1"/>
   <circle cx="656" cy="345" fill="#000000" r="2" stroke="none" stroke-width="1"/>
   <circle cx="656" cy="365" fill="#000000" r="2" stroke="none" stroke-width="1"/>
   <circle cx="656" cy="385" fill="#000000" r="2" stroke="none" stroke-width="1"/>
   <path d="M416,765 H356 V705 H182" fill="none" stroke="#000000" stroke-linecap="square" stroke-width="3"/>
   <path d="M496,805 H476 V785 H366 V715 H182" fill="none" stroke="#000000" stroke-linecap="square" stroke-width="3"/>
   <path d="M566,835 H466 V805 H376 V725 H182" fill="none" stroke="#000000" stroke-linecap="square" stroke-width="3"/>
   <path d="M182,706 V729 L177,734" fill="none" stroke="#000000" stroke-linecap="square" stroke-width="5"/>
   <text fill="#000000" font-family="sans-serif" font-size="7" x="185" y="713">0</text>
   <text fill="#000000" font-family="sans-serif" font-size="7" x="185" y="723">1</text>
   <text fill="#000000" font-family="sans-serif" font-size="7" x="185" y="733">2</text>
   <circle cx="176" cy="735" fill="#000000" r="2" stroke="none" stroke-width="5"/>
   <circle cx="196" cy="705" fill="#000000" r="2" stroke="none" stroke-width="5"/>
   <circle cx="196" cy="715" fill="#000000" r="2" stroke="none" stroke-width="5"/>
   <circle cx="196" cy="725" fill="#000000" r="2" stroke="none" stroke-width="5"/>
   <path d="M441,770 A25,25 90 0,0 441,720" fill="none" stroke="#000000" stroke-width="2"/>
   <path d="M441,720 H417 V770 H441" fill="none" stroke="#000000" stroke-linecap="square" stroke-width="2"/>
   <path d="M591,840 A25,25 90 0,0 591,790" fill="none" stroke="#000000" stroke-width="2"/>
   <path d="M591,790 H567 V840 H591" fill="none" stroke="#000000" stroke-linecap="square" stroke-width="2"/>
   <path d="M381,345 H436" fill="none" stroke="#000000" stroke-linecap="square" stroke-width="3"/>
   <path d="M347,336 H371 L381,345 L371,354 H347 Z" fill="none" stroke="#000000" stroke-linecap="square" stroke-width="2"/>
   <text fill="#000000" font-family="monospace" font-size="12" x="352" y="352">x1</text>
   <text fill="#000000" font-family="sans-serif" font-size="16" font-weight="bold" x="326" y="353">s1</text>
   <circle cx="386" cy="345" fill="#000000" r="2" stroke="none" stroke-width="2"/>
   <path d="M506,455 H816 V465 H828" fill="none" stroke="#000000" stroke-linecap="square" stroke-width="3"/>
   <path d="M466,745 H776 V475 H831" fill="none" stroke="#000000" stroke-linecap="square" stroke-width="3"/>
   <path d="M516,185 H806 V495 H831" fill="none" stroke="#000000" stroke-linecap="square" stroke-width="3"/>
   <path d="M516,35 H786 V505 H828" fill="none" stroke="#000000" stroke-linecap="square" stroke-width="3"/>
   <path d="M876,485 Q856,460 826,460 Q839,485 826,510 Q856,510 876,485 Z" fill="none" stroke="#000000" stroke-linecap="square" stroke-width="2"/>
   <path d="M586,495 H726 V585 H828" fill="none" stroke="#000000" stroke-linecap="square" stroke-width="3"/>
   <path d="M546,785 H686 V875 H806 V595 H831" fill="none" stroke="#000000" stroke-linecap="square" stroke-width="3"/>
   <path d="M596,225 H736 V615 H831" fill="none" stroke="#000000" stroke-linecap="square" stroke-width="3"/>
   <path d="M596,75 H766 V625 H828" fill="none" stroke="#000000" stroke-linecap="square" stroke-width="3"/>
   <path d="M876,605 Q856,580 826,580 Q839,605 826,630 Q856,630 876,605 Z" fill="none" stroke="#000000" stroke-linecap="square" stroke-width="2"/>
   <path d="M571,100 A25,25 90 0,0 571,50" fill="none" stroke="#000000" stroke-width="2"/>
   <path d="M571,50 H547 V100 H571" fill="none" stroke="#000000" stroke-linecap="square" stroke-width="2"/>
   <path d="M656,525 H706 V695 H828" fill="none" stroke="#000000" stroke-linecap="square" stroke-width="3"/>
   <path d="M616,815 H666 V915 H816 V705 H831" fill="none" stroke="#000000" stroke-linecap="square" stroke-width="3"/>
   <path d="M666,255 H716 V725 H831" fill="none" stroke="#000000" stroke-linecap="square" stroke-width="3"/>
   <path d="M666,105 H746 V735 H828" fill="none" stroke="#000000" stroke-linecap="square" stroke-width="3"/>
   <path d="M876,715 Q856,690 826,690 Q839,715 826,740 Q856,740 876,715 Z" fill="none" stroke="#000000" stroke-linecap="square" stroke-width="2"/>
   <text fill="#000000" font-family="monospace" font-size="12" x="376" y="330">1</text>
   <circle cx="386" cy="325" fill="#000000" r="2" stroke="none" stroke-width="1"/>
   <path d="M521,810 A25,25 90 0,0 521,760" fill="none" stroke="#000000" stroke-width="2"/>
   <path d="M521,760 H497 V810 H521" fill="none" stroke="#000000" stroke-linecap="square" stroke-width="2"/>
   <path d="M571,250 A25,25 90 0,0 571,200" fill="none" stroke="#000000" stroke-width="2"/>
   <path d="M571,200 H547 V250 H571" fill="none" stroke="#000000" stroke-linecap="square" stroke-width="2"/>
   <path d="M491,210 A25,25 90 0,0 491,160" fill="none" stroke="#000000" stroke-width="2"/>
   <path d="M491,160 H467 V210 H491" fill="none" stroke="#000000" stroke-linecap="square" stroke-width="2"/>
   <path d="M481,480 A25,25 90 0,0 481,430" fill="none" stroke="#000000" stroke-width="2"/>
   <path d="M481,430 H457 V480 H481" fill="none" stroke="#000000" stroke-linecap="square" stroke-width="2"/>
   <path d="M83,735 H176" fill="none" stroke="#000000" stroke-linecap="square" stroke-width="4"/>
   <path d="M27,726 H71 L81,735 L71,744 H27 Z" fill="none" stroke="#000000" stroke-linecap="square" stroke-width="2"/>
   <text fill="#000000" font-family="monospace" font-size="12" x="42" y="742">x3</text>
   <text fill="#000000" font-family="sans-serif" font-size="16" font-weight="bold" x="5" y="743">d1</text>
   <circle cx="86" cy="735" fill="#000000" r="2" stroke="none" stroke-width="2"/>
   <path d="M113,445 H186" fill="none" stroke="#000000" stroke-linecap="square" stroke-width="4"/>
   <path d="M57,436 H101 L111,445 L101,454 H57 Z" fill="none" stroke="#000000" stroke-linecap="square" stroke-width="2"/>
   <text fill="#000000" font-family="monospace" font-size="12" x="72" y="452">x3</text>
   <text fill="#000000" font-family="sans-serif" font-size="16" font-weight="bold" x="35" y="453">d0</text>
   <circle cx="116" cy="445" fill="#000000" r="2" stroke="none" stroke-width="2"/>
   <path d="M113,205 H176" fill="none" stroke="#000000" stroke-linecap="square" stroke-width="4"/>
   <path d="M57,196 H101 L111,205 L101,214 H57 Z" fill="none" stroke="#000000" stroke-linecap="square" stroke-width="2"/>
   <text fill="#000000" font-family="monospace" font-size="12" x="72" y="212">x3</text>
   <text fill="#000000" font-family="sans-serif" font-size="16" font-weight="bold" x="35" y="213">d2</text>
   <circle cx="116" cy="205" fill="#000000" r="2" stroke="none" stroke-width="2"/>
   <path d="M113,45 H176" fill="none" stroke="#000000" stroke-linecap="square" stroke-width="4"/>
   <path d="M57,36 H101 L111,45 L101,54 H57 Z" fill="none" stroke="#000000" stroke-linecap="square" stroke-width="2"/>
   <text fill="#000000" font-family="monospace" font-size="12" x="72" y="52">x3</text>
   <text fill="#000000" font-family="sans-serif" font-size="16" font-weight="bold" x="35" y="53">d3</text>
   <circle cx="116" cy="45" fill="#000000" r="2" stroke="none" stroke-width="2"/>
   <path d="M876,485 H1176 V505 H1190" fill="none" stroke="#000000" stroke-linecap="square" stroke-width="3"/>
   <path d="M876,605 H1006 V515 H1190" fill="none" stroke="#000000" stroke-linecap="square" stroke-width="3"/>
   <path d="M876,715 H1126 V525 H1190" fill="none" stroke="#000000" stroke-linecap="square" stroke-width="3"/>
   <path d="M1190,524 V501 L1195,496" fill="none" stroke="#000000" stroke-linecap="square" stroke-width="5"/>
   <text fill="#000000" font-family="sans-serif" font-size="7" x="1183" y="502">0</text>
   <text fill="#000000" font-family="sans-serif" font-size="7" x="1183" y="512">1</text>
   <text fill="#000000" font-family="sans-serif" font-size="7" x="1183" y="522">2</text>
   <circle cx="1196" cy="495" fill="#000000" r="2" stroke="none" stroke-width="5"/>
   <circle cx="1176" cy="505" fill="#000000" r="2" stroke="none" stroke-width="5"/>
   <circle cx="1176" cy="515" fill="#000000" r="2" stroke="none" stroke-width="5"/>
   <circle cx="1176" cy="525" fill="#000000" r="2" stroke="none" stroke-width="5"/>
   <path d="M1320,495 H1319" fill="none" stroke="#000000" stroke-linecap="square" stroke-width="4"/>
   <path d="M1322,486 H1366 L1376,495 L1366,504 H1322 Z" fill="none" stroke="#000000" stroke-linecap="square" stroke-width="2"/>
   <text fill="#000000" font-family="monospace" font-size="12" x="1332" y="502">x3</text>
   <circle cx="1316" cy="495" fill="#000000" r="2" stroke="none" stroke-width="2"/>
</svg>
