<?xml version="1.0" encoding="UTF-8" standalone="no"?>
<svg xmlns="http://www.w3.org/2000/svg" height="238" version="1.1" viewBox="0 0 1060 238" width="1060">
   <path d="M325,180 H495" fill="none" stroke="#000000" stroke-linecap="square" stroke-width="3"/>
   <path d="M945,120 H1005" fill="none" stroke="#000000" stroke-linecap="square" stroke-width="4"/>
   <path d="M225,200 H265" fill="none" stroke="#000000" stroke-linecap="square" stroke-width="3"/>
   <path d="M345,130 H305 V40 H395" fill="none" stroke="#000000" stroke-linecap="square" stroke-width="3"/>
   <path d="M405,130 H495" fill="none" stroke="#000000" stroke-linecap="square" stroke-width="3"/>
   <path d="M395,50 H335 V150 H345" fill="none" stroke="#000000" stroke-linecap="square" stroke-width="3"/>
   <path d="M225,130 H305" fill="none" stroke="#000000" stroke-linecap="square" stroke-width="3"/>
   <path d="M285,110 H355" fill="none" stroke="#000000" stroke-linecap="square" stroke-width="3"/>
   <path d="M455,30 H465 V90 H495" fill="none" stroke="#000000" stroke-linecap="square" stroke-width="3"/>
   <path d="M265,150 H335" fill="none" stroke="#000000" stroke-linecap="square" stroke-width="3"/>
   <circle cx="335" cy="150" fill="#000000" r="5" stroke="none" stroke-width="3"/>
   <circle cx="265" cy="150" fill="#000000" r="5" stroke="none" stroke-width="3"/>
   <circle cx="225" cy="130" fill="#000000" r="5" stroke="none" stroke-width="3"/>
   <circle cx="285" cy="110" fill="#000000" r="5" stroke="none" stroke-width="3"/>
   <circle cx="305" cy="130" fill="#000000" r="5" stroke="none" stroke-width="3"/>
   <circle cx="225" cy="200" fill="#000000" r="5" stroke="none" stroke-width="3"/>
   <path d="M72,220 H125 V140" fill="none" stroke="#000000" stroke-linecap="square" stroke-width="4"/>
   <path d="M6,211 H60 L70,220 L60,229 H6 Z" fill="none" stroke="#000000" stroke-linecap="square" stroke-width="2"/>
   <text fill="#000000" font-family="monospace" font-size="12" x="26" y="226">x4</text>
   <circle cx="75" cy="220" fill="#000000" r="2" stroke="none" stroke-width="2"/>
   <text fill="#000000" font-family="sans-serif" font-size="16" font-weight="bold" x="610" y="96">a1</text>
   <path d="M607,77 H632 V80 L636,90 L632,100 V103 H607 Z" fill="none" stroke="#000000" stroke-linecap="square" stroke-width="2"/>
   <circle cx="635" cy="90" fill="#000000" r="2" stroke="none" stroke-width="2"/>
   <text fill="#000000" font-family="sans-serif" font-size="16" font-weight="bold" x="500" y="226">a3</text>
   <path d="M499,207 H523 V233 H499 V230 L495,220 L499,210 Z" fill="none" stroke="#000000" stroke-linecap="square" stroke-width="2"/>
   <circle cx="495" cy="220" fill="#000000" r="2" stroke="none" stroke-width="2"/>
   <text fill="#000000" font-family="sans-serif" font-size="16" font-weight="bold" x="500" y="136">a1</text>
   <path d="M499,117 H523 V143 H499 V140 L495,130 L499,120 Z" fill="none" stroke="#000000" stroke-linecap="square" stroke-width="2"/>
   <circle cx="495" cy="130" fill="#000000" r="2" stroke="none" stroke-width="2"/>
   <path d="M635,90 H707" fill="none" stroke="#000000" stroke-linecap="square" stroke-width="3"/>
   <path d="M635,130 H705" fill="none" stroke="#000000" stroke-linecap="square" stroke-width="3"/>
   <path d="M755,110 Q735,85 705,85 Q718,110 705,135 Q735,135 755,110 Z" fill="none" stroke="#000000" stroke-linecap="square" stroke-width="2"/>
   <text fill="#000000" font-family="sans-serif" font-size="16" font-weight="bold" x="610" y="176">a2</text>
   <path d="M607,157 H632 V160 L636,170 L632,180 V183 H607 Z" fill="none" stroke="#000000" stroke-linecap="square" stroke-width="2"/>
   <circle cx="635" cy="170" fill="#000000" r="2" stroke="none" stroke-width="2"/>
   <path d="M635,170 H707" fill="none" stroke="#000000" stroke-linecap="square" stroke-width="3"/>
   <path d="M635,210 H707" fill="none" stroke="#000000" stroke-linecap="square" stroke-width="3"/>
   <path d="M755,190 Q735,165 705,165 Q718,190 705,215 Q735,215 755,190 Z" fill="none" stroke="#000000" stroke-linecap="square" stroke-width="2"/>
   <circle cx="270" cy="200" fill="none" r="4.5" stroke="#000000" stroke-width="2"/>
   <path d="M300,205 A25,25 90 0,0 300,155" fill="none" stroke="#000000" stroke-width="2"/>
   <path d="M300,155 H276 V205 H300" fill="none" stroke="#000000" stroke-linecap="square" stroke-width="2"/>
   <text fill="#000000" font-family="sans-serif" font-size="16" font-weight="bold" x="610" y="136">a3</text>
   <path d="M607,117 H632 V120 L636,130 L632,140 V143 H607 Z" fill="none" stroke="#000000" stroke-linecap="square" stroke-width="2"/>
   <circle cx="635" cy="130" fill="#000000" r="2" stroke="none" stroke-width="2"/>
   <text fill="#000000" font-family="sans-serif" font-size="16" font-weight="bold" x="500" y="96">a0</text>
   <path d="M499,77 H523 V103 H499 V100 L495,90 L499,80 Z" fill="none" stroke="#000000" stroke-linecap="square" stroke-width="2"/>
   <circle cx="495" cy="90" fill="#000000" r="2" stroke="none" stroke-width="2"/>
   <path d="M405,10 H165 V100 H131" fill="none" stroke="#000000" stroke-linecap="square" stroke-width="3"/>
   <path d="M395,20 H285 V110 H131" fill="none" stroke="#000000" stroke-linecap="square" stroke-width="3"/>
   <path d="M275,160 H265 V120 H131" fill="none" stroke="#000000" stroke-linecap="square" stroke-width="3"/>
   <path d="M495,220 H225 V130 H131" fill="none" stroke="#000000" stroke-linecap="square" stroke-width="3"/>
   <path d="M131,101 V134 L126,139" fill="none" stroke="#000000" stroke-linecap="square" stroke-width="5"/>
   <text fill="#000000" font-family="sans-serif" font-size="7" x="134" y="107">0</text>
   <text fill="#000000" font-family="sans-serif" font-size="7" x="134" y="117">1</text>
   <text fill="#000000" font-family="sans-serif" font-size="7" x="134" y="127">2</text>
   <text fill="#000000" font-family="sans-serif" font-size="7" x="134" y="137">3</text>
   <circle cx="125" cy="140" fill="#000000" r="2" stroke="none" stroke-width="5"/>
   <circle cx="145" cy="100" fill="#000000" r="2" stroke="none" stroke-width="5"/>
   <circle cx="145" cy="110" fill="#000000" r="2" stroke="none" stroke-width="5"/>
   <circle cx="145" cy="120" fill="#000000" r="2" stroke="none" stroke-width="5"/>
   <circle cx="145" cy="130" fill="#000000" r="2" stroke="none" stroke-width="5"/>
   <circle cx="350" cy="130" fill="none" r="4.5" stroke="#000000" stroke-width="2"/>
   <circle cx="350" cy="150" fill="none" r="4.5" stroke="#000000" stroke-width="2"/>
   <path d="M380,155 A25,25 90 0,0 380,105" fill="none" stroke="#000000" stroke-width="2"/>
   <path d="M380,105 H356 V155 H380" fill="none" stroke="#000000" stroke-linecap="square" stroke-width="2"/>
   <text fill="#000000" font-family="sans-serif" font-size="16" font-weight="bold" x="500" y="186">a2</text>
   <path d="M499,167 H523 V193 H499 V190 L495,180 L499,170 Z" fill="none" stroke="#000000" stroke-linecap="square" stroke-width="2"/>
   <circle cx="495" cy="180" fill="#000000" r="2" stroke="none" stroke-width="2"/>
   <path d="M755,110 H845 V130 H939" fill="none" stroke="#000000" stroke-linecap="square" stroke-width="3"/>
   <path d="M755,190 H825 V140 H939" fill="none" stroke="#000000" stroke-linecap="square" stroke-width="3"/>
   <path d="M939,139 V126 L944,121" fill="none" stroke="#000000" stroke-linecap="square" stroke-width="5"/>
   <text fill="#000000" font-family="sans-serif" font-size="7" x="932" y="127">0</text>
   <text fill="#000000" font-family="sans-serif" font-size="7" x="932" y="137">1</text>
   <circle cx="945" cy="120" fill="#000000" r="2" stroke="none" stroke-width="5"/>
   <circle cx="925" cy="130" fill="#000000" r="2" stroke="none" stroke-width="5"/>
   <circle cx="925" cy="140" fill="#000000" r="2" stroke="none" stroke-width="5"/>
   <path d="M1009,120 H1008" fill="none" stroke="#000000" stroke-linecap="square" stroke-width="4"/>
   <path d="M1011,111 H1045 L1055,120 L1045,129 H1011 Z" fill="none" stroke="#000000" stroke-linecap="square" stroke-width="2"/>
   <text fill="#000000" font-family="monospace" font-size="12" x="1016" y="126">x2</text>
   <circle cx="1005" cy="120" fill="#000000" r="2" stroke="none" stroke-width="2"/>
   <text fill="#000000" font-family="sans-serif" font-size="16" font-weight="bold" x="610" y="216">a3</text>
   <path d="M607,197 H632 V200 L636,210 L632,220 V223 H607 Z" fill="none" stroke="#000000" stroke-linecap="square" stroke-width="2"/>
   <circle cx="635" cy="210" fill="#000000" r="2" stroke="none" stroke-width="2"/>
   <circle cx="400" cy="20" fill="none" r="4.5" stroke="#000000" stroke-width="2"/>
   <circle cx="400" cy="40" fill="none" r="4.5" stroke="#000000" stroke-width="2"/>
   <circle cx="400" cy="50" fill="none" r="4.5" stroke="#000000" stroke-width="2"/>
   <path d="M430,55 A25,25 90 0,0 430,5" fill="none" stroke="#000000" stroke-width="2"/>
   <path d="M430,5 H406 V55 H430" fill="none" stroke="#000000" stroke-linecap="square" stroke-width="2"/>
</svg>
