<?xml version="1.0" encoding="UTF-8" standalone="no"?>
<svg xmlns="http://www.w3.org/2000/svg" height="210" version="1.1" viewBox="0 0 693 210" width="693">
   <path d="M575,80 H635" fill="none" stroke="#000000" stroke-linecap="square" stroke-width="4"/>
   <path d="M555,30 H635" fill="none" stroke="#000000" stroke-linecap="square" stroke-width="3"/>
   <circle cx="235" cy="110" fill="#000000" r="5" stroke="none" stroke-width="3"/>
   <circle cx="265" cy="140" fill="#000000" r="5" stroke="none" stroke-width="3"/>
   <circle cx="175" cy="120" fill="#000000" r="5" stroke="none" stroke-width="3"/>
   <circle cx="285" cy="120" fill="#000000" r="5" stroke="none" stroke-width="3"/>
   <circle cx="195" cy="100" fill="#000000" r="5" stroke="none" stroke-width="3"/>
   <path d="M72,150 H145 V130" fill="none" stroke="#000000" stroke-linecap="square" stroke-width="4"/>
   <path d="M6,141 H60 L70,150 L60,159 H6 Z" fill="none" stroke="#000000" stroke-linecap="square" stroke-width="2"/>
   <text fill="#000000" font-family="monospace" font-size="12" x="26" y="156">x4</text>
   <circle cx="75" cy="150" fill="#000000" r="2" stroke="none" stroke-width="2"/>
   <path d="M195,100 H151" fill="none" stroke="#000000" stroke-linecap="square" stroke-width="3"/>
   <path d="M275,140 H235 V110 H151" fill="none" stroke="#000000" stroke-linecap="square" stroke-width="3"/>
   <path d="M175,120 H151" fill="none" stroke="#000000" stroke-linecap="square" stroke-width="3"/>
   <path d="M151,91 V124 L146,129" fill="none" stroke="#000000" stroke-linecap="square" stroke-width="5"/>
   <text fill="#000000" font-family="sans-serif" font-size="7" x="154" y="97">0</text>
   <text fill="#000000" font-family="sans-serif" font-size="7" x="154" y="107">1</text>
   <text fill="#000000" font-family="sans-serif" font-size="7" x="154" y="117">2</text>
   <text fill="#000000" font-family="sans-serif" font-size="7" x="154" y="127">3</text>
   <circle cx="145" cy="130" fill="#000000" r="2" stroke="none" stroke-width="5"/>
   <circle cx="165" cy="90" fill="#000000" r="2" stroke="none" stroke-width="5"/>
   <circle cx="165" cy="100" fill="#000000" r="2" stroke="none" stroke-width="5"/>
   <circle cx="165" cy="110" fill="#000000" r="2" stroke="none" stroke-width="5"/>
   <circle cx="165" cy="120" fill="#000000" r="2" stroke="none" stroke-width="5"/>
   <path d="M285,120 H365" fill="none" stroke="#000000" stroke-linecap="square" stroke-width="3"/>
   <path d="M415,100 Q395,75 365,75 Q378,100 365,125 Q395,125 415,100 Z" fill="none" stroke="#000000" stroke-linecap="square" stroke-width="2"/>
   <path d="M325,160 H365" fill="none" stroke="#000000" stroke-linecap="square" stroke-width="3"/>
   <path d="M415,180 Q395,155 365,155 Q378,180 365,205 Q395,205 415,180 Z" fill="none" stroke="#000000" stroke-linecap="square" stroke-width="2"/>
   <circle cx="270" cy="140" fill="none" r="4.5" stroke="#000000" stroke-width="2"/>
   <path d="M300,185 A25,25 90 0,0 300,135" fill="none" stroke="#000000" stroke-width="2"/>
   <path d="M300,135 H276 V185 H300" fill="none" stroke="#000000" stroke-linecap="square" stroke-width="2"/>
   <path d="M415,180 H495 V90 H569" fill="none" stroke="#000000" stroke-linecap="square" stroke-width="3"/>
   <path d="M415,100 H569" fill="none" stroke="#000000" stroke-linecap="square" stroke-width="3"/>
   <path d="M569,99 V86 L574,81" fill="none" stroke="#000000" stroke-linecap="square" stroke-width="5"/>
   <text fill="#000000" font-family="sans-serif" font-size="7" x="562" y="87">0</text>
   <text fill="#000000" font-family="sans-serif" font-size="7" x="562" y="97">1</text>
   <circle cx="575" cy="80" fill="#000000" r="2" stroke="none" stroke-width="5"/>
   <circle cx="555" cy="90" fill="#000000" r="2" stroke="none" stroke-width="5"/>
   <circle cx="555" cy="100" fill="#000000" r="2" stroke="none" stroke-width="5"/>
   <path d="M682,80 H683" fill="none" stroke="#000000" stroke-linecap="square" stroke-width="4"/>
   <path d="M680,89 H646 L636,80 L646,71 H680 Z" fill="none" stroke="#000000" stroke-linecap="square" stroke-width="2"/>
   <text fill="#000000" font-family="monospace" font-size="12" x="646" y="86">x2</text>
   <text fill="#000000" font-family="sans-serif" font-size="16" font-weight="bold" x="622" y="88">Y</text>
   <circle cx="685" cy="80" fill="#000000" r="2" stroke="none" stroke-width="2"/>
   <path d="M639,30 H636" fill="none" stroke="#000000" stroke-linecap="square" stroke-width="3"/>
   <path d="M641,21 H665 L675,30 L665,39 H641 Z" fill="none" stroke="#000000" stroke-linecap="square" stroke-width="2"/>
   <text fill="#000000" font-family="monospace" font-size="12" x="641" y="36">x1</text>
   <text fill="#000000" font-family="sans-serif" font-size="16" font-weight="bold" x="677" y="38">V</text>
   <circle cx="635" cy="30" fill="#000000" r="2" stroke="none" stroke-width="2"/>
   <path d="M505,10 H185 V90 H151" fill="none" stroke="#000000" stroke-linecap="square" stroke-width="3"/>
   <path d="M275,180 H195 V20 H510" fill="none" stroke="#000000" stroke-linecap="square" stroke-width="3"/>
   <path d="M365,80 H335 V110 H235 V40 H510" fill="none" stroke="#000000" stroke-linecap="square" stroke-width="3"/>
   <path d="M365,200 H175 V120 H285 V50 H505" fill="none" stroke="#000000" stroke-linecap="square" stroke-width="3"/>
   <path d="M555,30 Q535,5 505,5 Q518,30 505,55 Q535,55 555,30 Z" fill="none" stroke="#000000" stroke-linecap="square" stroke-width="2"/>
</svg>
