<?xml version="1.0" encoding="UTF-8" standalone="no"?>
<svg xmlns="http://www.w3.org/2000/svg" height="312" version="1.1" viewBox="0 0 655 312" width="655">
   <path d="M383,16 H453" fill="none" stroke="#000000" stroke-linecap="square" stroke-width="4"/>
   <path d="M163,16 H143 V96 H413 V236 H383" fill="none" stroke="#000000" stroke-linecap="square" stroke-width="4"/>
   <path d="M513,16 H453 V146 H123 V256 H163" fill="none" stroke="#000000" stroke-linecap="square" stroke-width="4"/>
   <path d="M93,276 H163" fill="none" stroke="#000000" stroke-linecap="square" stroke-width="4"/>
   <circle cx="453" cy="16" fill="#000000" r="6" stroke="none" stroke-width="4"/>
   <rect fill="#000000" height="4" stroke="none" stroke-linecap="square" stroke-width="1" width="10" x="163" y="14"/>
   <text fill="#404040" font-family="Dialog" font-size="12" x="178" y="20">D</text>
   <rect fill="#000000" height="3" stroke="none" stroke-linecap="square" stroke-width="1" width="10" x="163" y="35"/>
   <path d="M174,32 L181,36 L174,40" fill="none" stroke="#000000" stroke-linecap="square" stroke-width="2"/>
   <text fill="#404040" font-family="Dialog" font-size="12" x="186" y="40">Clk</text>
   <rect fill="#000000" height="3" stroke="none" stroke-linecap="square" stroke-width="1" width="10" x="163" y="55"/>
   <text fill="#404040" font-family="Dialog" font-size="12" x="178" y="60">EN</text>
   <rect fill="#000000" height="4" stroke="none" stroke-linecap="square" stroke-width="1" width="10" x="373" y="14"/>
   <text fill="#404040" font-family="Dialog" font-size="12" x="359" y="20">Q</text>
   <rect fill="#000000" height="20" stroke="none" stroke-linecap="square" stroke-width="1" width="200" x="173" y="66"/>
   <rect fill="none" height="80" stroke="#000000" stroke-linecap="square" stroke-width="2" width="200" x="173" y="6"/>
   <text fill="#FFFFFF" font-family="Dialog" font-size="14" font-weight="bold" x="228" y="80">Register4Bit</text>
   <circle cx="163" cy="16" fill="#000000" r="2" stroke="none" stroke-width="1"/>
   <circle cx="163" cy="36" fill="#000000" r="2" stroke="none" stroke-width="1"/>
   <circle cx="163" cy="56" fill="#000000" r="2" stroke="none" stroke-width="1"/>
   <circle cx="383" cy="16" fill="#000000" r="2" stroke="none" stroke-width="1"/>
   <rect fill="#000000" height="3" stroke="none" stroke-linecap="square" stroke-width="1" width="10" x="163" y="235"/>
   <text fill="#404040" font-family="Dialog" font-size="12" x="178" y="240">Cin</text>
   <rect fill="#000000" height="4" stroke="none" stroke-linecap="square" stroke-width="1" width="10" x="163" y="254"/>
   <text fill="#404040" font-family="Dialog" font-size="12" x="178" y="260">A</text>
   <rect fill="#000000" height="4" stroke="none" stroke-linecap="square" stroke-width="1" width="10" x="163" y="274"/>
   <text fill="#404040" font-family="Dialog" font-size="12" x="178" y="280">B</text>
   <rect fill="#000000" height="4" stroke="none" stroke-linecap="square" stroke-width="1" width="10" x="373" y="234"/>
   <text fill="#404040" font-family="Dialog" font-size="12" x="362" y="240">S</text>
   <rect fill="#000000" height="3" stroke="none" stroke-linecap="square" stroke-width="1" width="10" x="373" y="255"/>
   <text fill="#404040" font-family="Dialog" font-size="12" x="342" y="260">Cout</text>
   <rect fill="#000000" height="20" stroke="none" stroke-linecap="square" stroke-width="1" width="200" x="173" y="286"/>
   <rect fill="none" height="80" stroke="#000000" stroke-linecap="square" stroke-width="2" width="200" x="173" y="226"/>
   <text fill="#FFFFFF" font-family="Dialog" font-size="14" font-weight="bold" x="236" y="300">full_add_4</text>
   <circle cx="163" cy="236" fill="#000000" r="2" stroke="none" stroke-width="1"/>
   <circle cx="163" cy="256" fill="#000000" r="2" stroke="none" stroke-width="1"/>
   <circle cx="163" cy="276" fill="#000000" r="2" stroke="none" stroke-width="1"/>
   <circle cx="383" cy="236" fill="#000000" r="2" stroke="none" stroke-width="1"/>
   <circle cx="383" cy="256" fill="#000000" r="2" stroke="none" stroke-width="1"/>
   <text fill="#000000" font-family="monospace" font-size="12" x="83" y="280">1</text>
   <circle cx="93" cy="276" fill="#000000" r="2" stroke="none" stroke-width="1"/>
   <path d="M517,16 H516" fill="none" stroke="#000000" stroke-linecap="square" stroke-width="4"/>
   <path d="M519,7 H573 L583,16 L573,25 H519 Z" fill="none" stroke="#000000" stroke-linecap="square" stroke-width="2"/>
   <text fill="#000000" font-family="monospace" font-size="12" x="534" y="22">x4</text>
   <text fill="#000000" font-family="sans-serif" font-size="16" font-weight="bold" x="585" y="24">Counter</text>
   <circle cx="513" cy="16" fill="#000000" r="2" stroke="none" stroke-width="2"/>
   <path d="M68,36 H163" fill="none" stroke="#000000" stroke-linecap="square" stroke-width="3"/>
   <path d="M34,27 H58 L68,36 L58,45 H34 Z" fill="none" stroke="#000000" stroke-linecap="square" stroke-width="2"/>
   <text fill="#000000" font-family="monospace" font-size="12" x="39" y="42">x1</text>
   <text fill="#000000" font-family="sans-serif" font-size="16" font-weight="bold" x="5" y="44">Clk</text>
   <circle cx="73" cy="36" fill="#000000" r="2" stroke="none" stroke-width="2"/>
   <path d="M68,56 H163" fill="none" stroke="#000000" stroke-linecap="square" stroke-width="3"/>
   <path d="M34,47 H58 L68,56 L58,65 H34 Z" fill="none" stroke="#000000" stroke-linecap="square" stroke-width="2"/>
   <text fill="#000000" font-family="monospace" font-size="12" x="39" y="62">x1</text>
   <text fill="#000000" font-family="sans-serif" font-size="16" font-weight="bold" x="9" y="64">EN</text>
   <circle cx="73" cy="56" fill="#000000" r="2" stroke="none" stroke-width="2"/>
</svg>
