<?xml version="1.0" encoding="UTF-8" standalone="no"?>
<svg xmlns="http://www.w3.org/2000/svg" height="225" version="1.1" viewBox="0 0 882 225" width="882">
   <path d="M431,195 H541 V165 H561" fill="none" stroke="#000000" stroke-linecap="square" stroke-width="3"/>
   <path d="M241,135 H351 V125 H371" fill="none" stroke="#000000" stroke-linecap="square" stroke-width="3"/>
   <path d="M171,75 H331 V85 H361" fill="none" stroke="#000000" stroke-linecap="square" stroke-width="3"/>
   <path d="M511,35 H541 V145 H561" fill="none" stroke="#000000" stroke-linecap="square" stroke-width="3"/>
   <path d="M781,145 H811" fill="none" stroke="#000000" stroke-linecap="square" stroke-width="3"/>
   <path d="M781,165 H811" fill="none" stroke="#000000" stroke-linecap="square" stroke-width="3"/>
   <path d="M281,15 V195 H381" fill="none" stroke="#000000" stroke-linecap="square" stroke-width="3"/>
   <circle cx="171" cy="75" fill="#000000" r="5" stroke="none" stroke-width="3"/>
   <circle cx="281" cy="15" fill="#000000" r="5" stroke="none" stroke-width="3"/>
   <circle cx="241" cy="135" fill="#000000" r="5" stroke="none" stroke-width="3"/>
   <path d="M66,135 H241 V215 H381" fill="none" stroke="#000000" stroke-linecap="square" stroke-width="3"/>
   <path d="M32,126 H56 L66,135 L56,144 H32 Z" fill="none" stroke="#000000" stroke-linecap="square" stroke-width="2"/>
   <text fill="#000000" font-family="monospace" font-size="12" x="37" y="141">x1</text>
   <text fill="#000000" font-family="sans-serif" font-size="16" font-weight="bold" x="5" y="143">WE</text>
   <circle cx="71" cy="135" fill="#000000" r="2" stroke="none" stroke-width="2"/>
   <circle cx="366" cy="85" fill="none" r="4.5" stroke="#000000" stroke-width="2"/>
   <path d="M396,130 A25,25 90 0,0 396,80" fill="none" stroke="#000000" stroke-width="2"/>
   <path d="M396,80 H372 V130 H396" fill="none" stroke="#000000" stroke-linecap="square" stroke-width="2"/>
   <path d="M136,75 H171 V175 H381" fill="none" stroke="#000000" stroke-linecap="square" stroke-width="3"/>
   <path d="M102,66 H126 L136,75 L126,84 H102 Z" fill="none" stroke="#000000" stroke-linecap="square" stroke-width="2"/>
   <text fill="#000000" font-family="monospace" font-size="12" x="107" y="81">x1</text>
   <text fill="#000000" font-family="sans-serif" font-size="16" font-weight="bold" x="86" y="83">D</text>
   <circle cx="141" cy="75" fill="#000000" r="2" stroke="none" stroke-width="2"/>
   <rect fill="#000000" height="3" stroke="none" stroke-linecap="square" stroke-width="1" width="10" x="561" y="144"/>
   <text fill="#404040" font-family="Dialog" font-size="12" x="576" y="149">R</text>
   <rect fill="#000000" height="3" stroke="none" stroke-linecap="square" stroke-width="1" width="10" x="561" y="164"/>
   <text fill="#404040" font-family="Dialog" font-size="12" x="576" y="169">S</text>
   <rect fill="#000000" height="3" stroke="none" stroke-linecap="square" stroke-width="1" width="10" x="771" y="144"/>
   <text fill="#404040" font-family="Dialog" font-size="12" x="757" y="149">Q</text>
   <rect fill="#000000" height="3" stroke="none" stroke-linecap="square" stroke-width="1" width="10" x="771" y="164"/>
   <text fill="#404040" font-family="Dialog" font-size="12" x="750" y="169">nQ</text>
   <rect fill="#000000" height="20" stroke="none" stroke-linecap="square" stroke-width="1" width="200" x="571" y="175"/>
   <rect fill="none" height="60" stroke="#000000" stroke-linecap="square" stroke-width="2" width="200" x="571" y="135"/>
   <text fill="#FFFFFF" font-family="Dialog" font-size="14" font-weight="bold" x="643" y="189">SRLatch</text>
   <circle cx="561" cy="145" fill="#000000" r="2" stroke="none" stroke-width="1"/>
   <circle cx="561" cy="165" fill="#000000" r="2" stroke="none" stroke-width="1"/>
   <circle cx="781" cy="145" fill="#000000" r="2" stroke="none" stroke-width="1"/>
   <circle cx="781" cy="165" fill="#000000" r="2" stroke="none" stroke-width="1"/>
   <path d="M815,145 H812" fill="none" stroke="#000000" stroke-linecap="square" stroke-width="3"/>
   <path d="M817,136 H841 L851,145 L841,154 H817 Z" fill="none" stroke="#000000" stroke-linecap="square" stroke-width="2"/>
   <text fill="#000000" font-family="monospace" font-size="12" x="817" y="151">x1</text>
   <text fill="#000000" font-family="sans-serif" font-size="16" font-weight="bold" x="853" y="153">Q</text>
   <circle cx="811" cy="145" fill="#000000" r="2" stroke="none" stroke-width="2"/>
   <path d="M815,165 H812" fill="none" stroke="#000000" stroke-linecap="square" stroke-width="3"/>
   <path d="M817,156 H841 L851,165 L841,174 H817 Z" fill="none" stroke="#000000" stroke-linecap="square" stroke-width="2"/>
   <text fill="#000000" font-family="monospace" font-size="12" x="817" y="171">x1</text>
   <text fill="#000000" font-family="sans-serif" font-size="16" font-weight="bold" x="853" y="173">nQ</text>
   <circle cx="811" cy="165" fill="#000000" r="2" stroke="none" stroke-width="2"/>
   <path d="M92,6 H116 L126,15 L116,24 H92 Z" fill="none" stroke="#000000" stroke-linecap="square" stroke-width="2"/>
   <text fill="#000000" font-family="monospace" font-size="12" x="97" y="21">x1</text>
   <text fill="#000000" font-family="sans-serif" font-size="16" font-weight="bold" x="34" y="23">nReset</text>
   <circle cx="131" cy="15" fill="#000000" r="2" stroke="none" stroke-width="2"/>
   <path d="M406,220 A25,25 90 0,0 406,170" fill="none" stroke="#000000" stroke-width="2"/>
   <path d="M406,170 H382 V220 H406" fill="none" stroke="#000000" stroke-linecap="square" stroke-width="2"/>
   <path d="M126,15 H453" fill="none" stroke="#000000" stroke-linecap="square" stroke-width="3"/>
   <circle cx="458" cy="15" fill="none" r="4.5" stroke="#000000" stroke-width="2"/>
   <path d="M421,105 H441 V55 H463" fill="none" stroke="#000000" stroke-linecap="square" stroke-width="3"/>
   <path d="M511,35 Q491,10 461,10 Q474,35 461,60 Q491,60 511,35 Z" fill="none" stroke="#000000" stroke-linecap="square" stroke-width="2"/>
</svg>
