<?xml version="1.0" encoding="UTF-8" standalone="no"?>
<svg xmlns="http://www.w3.org/2000/svg" height="239" version="1.1" viewBox="0 0 1003 239" width="1003">
   <path d="M893,113 H943" fill="none" stroke="#000000" stroke-linecap="square" stroke-width="3"/>
   <path d="M193,13 H283 V113 H343" fill="none" stroke="#000000" stroke-linecap="square" stroke-width="3"/>
   <path d="M143,173 H243 V153 H273" fill="none" stroke="#000000" stroke-linecap="square" stroke-width="3"/>
   <path d="M673,153 H623 V233 H243 V173" fill="none" stroke="#000000" stroke-linecap="square" stroke-width="3"/>
   <path d="M283,33 H643 V113 H673" fill="none" stroke="#000000" stroke-linecap="square" stroke-width="3"/>
   <path d="M303,153 H343" fill="none" stroke="#000000" stroke-linecap="square" stroke-width="3"/>
   <path d="M563,113 H613 V133 H673" fill="none" stroke="#000000" stroke-linecap="square" stroke-width="3"/>
   <circle cx="243" cy="173" fill="#000000" r="5" stroke="none" stroke-width="3"/>
   <circle cx="283" cy="33" fill="#000000" r="5" stroke="none" stroke-width="3"/>
   <rect fill="#000000" height="3" stroke="none" stroke-linecap="square" stroke-width="1" width="10" x="343" y="112"/>
   <text fill="#404040" font-family="Dialog" font-size="12" x="358" y="117">nReset</text>
   <rect fill="#000000" height="3" stroke="none" stroke-linecap="square" stroke-width="1" width="10" x="343" y="132"/>
   <text fill="#404040" font-family="Dialog" font-size="12" x="358" y="137">D</text>
   <rect fill="#000000" height="3" stroke="none" stroke-linecap="square" stroke-width="1" width="10" x="343" y="152"/>
   <text fill="#404040" font-family="Dialog" font-size="12" x="358" y="157">WE</text>
   <rect fill="#000000" height="3" stroke="none" stroke-linecap="square" stroke-width="1" width="10" x="553" y="112"/>
   <text fill="#404040" font-family="Dialog" font-size="12" x="539" y="117">Q</text>
   <rect fill="#000000" height="3" stroke="none" stroke-linecap="square" stroke-width="1" width="10" x="553" y="132"/>
   <text fill="#404040" font-family="Dialog" font-size="12" x="532" y="137">nQ</text>
   <rect fill="#000000" height="20" stroke="none" stroke-linecap="square" stroke-width="1" width="200" x="353" y="163"/>
   <rect fill="none" height="80" stroke="#000000" stroke-linecap="square" stroke-width="2" width="200" x="353" y="103"/>
   <text fill="#FFFFFF" font-family="Dialog" font-size="14" font-weight="bold" x="428" y="177">DLatch</text>
   <circle cx="343" cy="113" fill="#000000" r="2" stroke="none" stroke-width="1"/>
   <circle cx="343" cy="133" fill="#000000" r="2" stroke="none" stroke-width="1"/>
   <circle cx="343" cy="153" fill="#000000" r="2" stroke="none" stroke-width="1"/>
   <circle cx="563" cy="113" fill="#000000" r="2" stroke="none" stroke-width="1"/>
   <circle cx="563" cy="133" fill="#000000" r="2" stroke="none" stroke-width="1"/>
   <rect fill="#000000" height="3" stroke="none" stroke-linecap="square" stroke-width="1" width="10" x="673" y="112"/>
   <text fill="#404040" font-family="Dialog" font-size="12" x="688" y="117">nReset</text>
   <rect fill="#000000" height="3" stroke="none" stroke-linecap="square" stroke-width="1" width="10" x="673" y="132"/>
   <text fill="#404040" font-family="Dialog" font-size="12" x="688" y="137">D</text>
   <rect fill="#000000" height="3" stroke="none" stroke-linecap="square" stroke-width="1" width="10" x="673" y="152"/>
   <text fill="#404040" font-family="Dialog" font-size="12" x="688" y="157">WE</text>
   <rect fill="#000000" height="3" stroke="none" stroke-linecap="square" stroke-width="1" width="10" x="883" y="112"/>
   <text fill="#404040" font-family="Dialog" font-size="12" x="869" y="117">Q</text>
   <rect fill="#000000" height="3" stroke="none" stroke-linecap="square" stroke-width="1" width="10" x="883" y="132"/>
   <text fill="#404040" font-family="Dialog" font-size="12" x="862" y="137">nQ</text>
   <rect fill="#000000" height="20" stroke="none" stroke-linecap="square" stroke-width="1" width="200" x="683" y="163"/>
   <rect fill="none" height="80" stroke="#000000" stroke-linecap="square" stroke-width="2" width="200" x="683" y="103"/>
   <text fill="#FFFFFF" font-family="Dialog" font-size="14" font-weight="bold" x="758" y="177">DLatch</text>
   <circle cx="673" cy="113" fill="#000000" r="2" stroke="none" stroke-width="1"/>
   <circle cx="673" cy="133" fill="#000000" r="2" stroke="none" stroke-width="1"/>
   <circle cx="673" cy="153" fill="#000000" r="2" stroke="none" stroke-width="1"/>
   <circle cx="893" cy="113" fill="#000000" r="2" stroke="none" stroke-width="1"/>
   <circle cx="893" cy="133" fill="#000000" r="2" stroke="none" stroke-width="1"/>
   <text fill="#000000" font-family="monospace" font-size="12" x="183" y="17">1</text>
   <circle cx="193" cy="13" fill="#000000" r="2" stroke="none" stroke-width="1"/>
   <path d="M218,133 H343" fill="none" stroke="#000000" stroke-linecap="square" stroke-width="3"/>
   <path d="M184,124 H208 L218,133 L208,142 H184 Z" fill="none" stroke="#000000" stroke-linecap="square" stroke-width="2"/>
   <text fill="#000000" font-family="monospace" font-size="12" x="189" y="139">x1</text>
   <text fill="#000000" font-family="sans-serif" font-size="16" font-weight="bold" x="168" y="141">D</text>
   <circle cx="223" cy="133" fill="#000000" r="2" stroke="none" stroke-width="2"/>
   <path d="M68,153 H93" fill="none" stroke="#000000" stroke-linecap="square" stroke-width="3"/>
   <path d="M34,144 H58 L68,153 L58,162 H34 Z" fill="none" stroke="#000000" stroke-linecap="square" stroke-width="2"/>
   <text fill="#000000" font-family="monospace" font-size="12" x="39" y="159">x1</text>
   <text fill="#000000" font-family="sans-serif" font-size="16" font-weight="bold" x="5" y="161">Clk</text>
   <circle cx="73" cy="153" fill="#000000" r="2" stroke="none" stroke-width="2"/>
   <path d="M68,193 H93" fill="none" stroke="#000000" stroke-linecap="square" stroke-width="3"/>
   <path d="M34,184 H58 L68,193 L58,202 H34 Z" fill="none" stroke="#000000" stroke-linecap="square" stroke-width="2"/>
   <text fill="#000000" font-family="monospace" font-size="12" x="39" y="199">x1</text>
   <text fill="#000000" font-family="sans-serif" font-size="16" font-weight="bold" x="9" y="201">EN</text>
   <circle cx="73" cy="193" fill="#000000" r="2" stroke="none" stroke-width="2"/>
   <path d="M118,198 A25,25 90 0,0 118,148" fill="none" stroke="#000000" stroke-width="2"/>
   <path d="M118,148 H94 V198 H118" fill="none" stroke="#000000" stroke-linecap="square" stroke-width="2"/>
   <path d="M293,153 L274,146 V160 L293,153" fill="none" stroke="#000000" stroke-linecap="square" stroke-width="2"/>
   <circle cx="298" cy="153" fill="none" r="4.5" stroke="#000000" stroke-width="2"/>
   <circle cx="303" cy="153" fill="#000000" r="2" stroke="none" stroke-width="2"/>
   <circle cx="273" cy="153" fill="#000000" r="2" stroke="none" stroke-width="2"/>
   <path d="M947,113 H944" fill="none" stroke="#000000" stroke-linecap="square" stroke-width="3"/>
   <path d="M949,104 H973 L983,113 L973,122 H949 Z" fill="none" stroke="#000000" stroke-linecap="square" stroke-width="2"/>
   <text fill="#000000" font-family="monospace" font-size="12" x="949" y="119">x1</text>
   <text fill="#000000" font-family="sans-serif" font-size="16" font-weight="bold" x="985" y="121">Q</text>
   <circle cx="943" cy="113" fill="#000000" r="2" stroke="none" stroke-width="2"/>
</svg>
