<?xml version="1.0" encoding="UTF-8" standalone="no"?>
<svg xmlns="http://www.w3.org/2000/svg" height="122" version="1.1" viewBox="0 0 933 122" width="933">
   <path d="M833,16 H873" fill="none" stroke="#000000" stroke-linecap="square" stroke-width="3"/>
   <path d="M833,36 H873" fill="none" stroke="#000000" stroke-linecap="square" stroke-width="3"/>
   <path d="M463,16 H523 V36 H613" fill="none" stroke="#000000" stroke-linecap="square" stroke-width="3"/>
   <path d="M173,56 H243" fill="none" stroke="#000000" stroke-linecap="square" stroke-width="3"/>
   <path d="M113,56 V116 H563 V56 H613" fill="none" stroke="#000000" stroke-linecap="square" stroke-width="3"/>
   <circle cx="113" cy="56" fill="#000000" r="5" stroke="none" stroke-width="3"/>
   <rect fill="#000000" height="3" stroke="none" stroke-linecap="square" stroke-width="1" width="10" x="243" y="15"/>
   <text fill="#404040" font-family="Dialog" font-size="12" x="258" y="20">Reset</text>
   <rect fill="#000000" height="3" stroke="none" stroke-linecap="square" stroke-width="1" width="10" x="243" y="35"/>
   <text fill="#404040" font-family="Dialog" font-size="12" x="258" y="40">D</text>
   <rect fill="#000000" height="3" stroke="none" stroke-linecap="square" stroke-width="1" width="10" x="243" y="55"/>
   <text fill="#404040" font-family="Dialog" font-size="12" x="258" y="60">WE</text>
   <rect fill="#000000" height="3" stroke="none" stroke-linecap="square" stroke-width="1" width="10" x="453" y="15"/>
   <text fill="#404040" font-family="Dialog" font-size="12" x="439" y="20">Q</text>
   <rect fill="#000000" height="3" stroke="none" stroke-linecap="square" stroke-width="1" width="10" x="453" y="35"/>
   <text fill="#404040" font-family="Dialog" font-size="12" x="432" y="40">nQ</text>
   <rect fill="#000000" height="20" stroke="none" stroke-linecap="square" stroke-width="1" width="200" x="253" y="66"/>
   <rect fill="none" height="80" stroke="#000000" stroke-linecap="square" stroke-width="2" width="200" x="253" y="6"/>
   <text fill="#FFFFFF" font-family="Dialog" font-size="14" font-weight="bold" x="328" y="80">DLatch</text>
   <circle cx="243" cy="16" fill="#000000" r="2" stroke="none" stroke-width="1"/>
   <circle cx="243" cy="36" fill="#000000" r="2" stroke="none" stroke-width="1"/>
   <circle cx="243" cy="56" fill="#000000" r="2" stroke="none" stroke-width="1"/>
   <circle cx="463" cy="16" fill="#000000" r="2" stroke="none" stroke-width="1"/>
   <circle cx="463" cy="36" fill="#000000" r="2" stroke="none" stroke-width="1"/>
   <rect fill="#000000" height="3" stroke="none" stroke-linecap="square" stroke-width="1" width="10" x="613" y="15"/>
   <text fill="#404040" font-family="Dialog" font-size="12" x="628" y="20">Reset</text>
   <rect fill="#000000" height="3" stroke="none" stroke-linecap="square" stroke-width="1" width="10" x="613" y="35"/>
   <text fill="#404040" font-family="Dialog" font-size="12" x="628" y="40">D</text>
   <rect fill="#000000" height="3" stroke="none" stroke-linecap="square" stroke-width="1" width="10" x="613" y="55"/>
   <text fill="#404040" font-family="Dialog" font-size="12" x="628" y="60">WE</text>
   <rect fill="#000000" height="3" stroke="none" stroke-linecap="square" stroke-width="1" width="10" x="823" y="15"/>
   <text fill="#404040" font-family="Dialog" font-size="12" x="809" y="20">Q</text>
   <rect fill="#000000" height="3" stroke="none" stroke-linecap="square" stroke-width="1" width="10" x="823" y="35"/>
   <text fill="#404040" font-family="Dialog" font-size="12" x="802" y="40">nQ</text>
   <rect fill="#000000" height="20" stroke="none" stroke-linecap="square" stroke-width="1" width="200" x="623" y="66"/>
   <rect fill="none" height="80" stroke="#000000" stroke-linecap="square" stroke-width="2" width="200" x="623" y="6"/>
   <text fill="#FFFFFF" font-family="Dialog" font-size="14" font-weight="bold" x="698" y="80">DLatch</text>
   <circle cx="613" cy="16" fill="#000000" r="2" stroke="none" stroke-width="1"/>
   <circle cx="613" cy="36" fill="#000000" r="2" stroke="none" stroke-width="1"/>
   <circle cx="613" cy="56" fill="#000000" r="2" stroke="none" stroke-width="1"/>
   <circle cx="833" cy="16" fill="#000000" r="2" stroke="none" stroke-width="1"/>
   <circle cx="833" cy="36" fill="#000000" r="2" stroke="none" stroke-width="1"/>
   <path d="M68,56 H143" fill="none" stroke="#000000" stroke-linecap="square" stroke-width="3"/>
   <path d="M34,47 H58 L68,56 L58,65 H34 Z" fill="none" stroke="#000000" stroke-linecap="square" stroke-width="2"/>
   <text fill="#000000" font-family="monospace" font-size="12" x="39" y="62">x1</text>
   <text fill="#000000" font-family="sans-serif" font-size="16" font-weight="bold" x="5" y="64">Clk</text>
   <circle cx="73" cy="56" fill="#000000" r="2" stroke="none" stroke-width="2"/>
   <path d="M163,56 L144,49 V63 L163,56" fill="none" stroke="#000000" stroke-linecap="square" stroke-width="2"/>
   <circle cx="168" cy="56" fill="none" r="4.5" stroke="#000000" stroke-width="2"/>
   <circle cx="173" cy="56" fill="#000000" r="2" stroke="none" stroke-width="2"/>
   <circle cx="143" cy="56" fill="#000000" r="2" stroke="none" stroke-width="2"/>
   <path d="M68,36 H243" fill="none" stroke="#000000" stroke-linecap="square" stroke-width="3"/>
   <path d="M34,27 H58 L68,36 L58,45 H34 Z" fill="none" stroke="#000000" stroke-linecap="square" stroke-width="2"/>
   <text fill="#000000" font-family="monospace" font-size="12" x="39" y="42">x1</text>
   <text fill="#000000" font-family="sans-serif" font-size="16" font-weight="bold" x="18" y="44">D</text>
   <circle cx="73" cy="36" fill="#000000" r="2" stroke="none" stroke-width="2"/>
   <path d="M877,16 H874" fill="none" stroke="#000000" stroke-linecap="square" stroke-width="3"/>
   <path d="M879,7 H903 L913,16 L903,25 H879 Z" fill="none" stroke="#000000" stroke-linecap="square" stroke-width="2"/>
   <text fill="#000000" font-family="monospace" font-size="12" x="879" y="22">x1</text>
   <text fill="#000000" font-family="sans-serif" font-size="16" font-weight="bold" x="915" y="24">Q</text>
   <circle cx="873" cy="16" fill="#000000" r="2" stroke="none" stroke-width="2"/>
   <path d="M877,36 H874" fill="none" stroke="#000000" stroke-linecap="square" stroke-width="3"/>
   <path d="M879,27 H903 L913,36 L903,45 H879 Z" fill="none" stroke="#000000" stroke-linecap="square" stroke-width="2"/>
   <text fill="#000000" font-family="monospace" font-size="12" x="879" y="42">x1</text>
   <circle cx="873" cy="36" fill="#000000" r="2" stroke="none" stroke-width="2"/>
</svg>
