<?xml version="1.0" encoding="UTF-8" standalone="no"?>
<svg xmlns="http://www.w3.org/2000/svg" height="491" version="1.1" viewBox="0 0 771 491" width="771">
   <path d="M175,135 H115 V345 H175" fill="none" stroke="#000000" stroke-linecap="square" stroke-width="3"/>
   <path d="M495,305 H445 V325 H395" fill="none" stroke="#000000" stroke-linecap="square" stroke-width="4"/>
   <path d="M175,325 H5 V35 H95" fill="none" stroke="#000000" stroke-linecap="square" stroke-width="3"/>
   <path d="M445,225 H465 V115 H485" fill="none" stroke="#000000" stroke-linecap="square" stroke-width="4"/>
   <path d="M455,355 H475 V325 H495" fill="none" stroke="#000000" stroke-linecap="square" stroke-width="4"/>
   <path d="M395,115 H425 V95 H485" fill="none" stroke="#000000" stroke-linecap="square" stroke-width="4"/>
   <path d="M495,55 H445 V95" fill="none" stroke="#000000" stroke-linecap="square" stroke-width="4"/>
   <path d="M175,95 H145 V45 H95 V5 H745 V95 H705" fill="none" stroke="#000000" stroke-linecap="square" stroke-width="3"/>
   <path d="M715,305 H765 V485 H65 V305 H175" fill="none" stroke="#000000" stroke-linecap="square" stroke-width="3"/>
   <path d="M505,245 H445 V305" fill="none" stroke="#000000" stroke-linecap="square" stroke-width="4"/>
   <circle cx="445" cy="95" fill="#000000" r="6" stroke="none" stroke-width="4"/>
   <circle cx="115" cy="135" fill="#000000" r="5" stroke="none" stroke-width="4"/>
   <circle cx="445" cy="305" fill="#000000" r="6" stroke="none" stroke-width="4"/>
   <circle cx="95" cy="35" fill="#000000" r="5" stroke="none" stroke-width="4"/>
   <rect fill="#000000" height="3" stroke="none" stroke-linecap="square" stroke-width="1" width="10" x="175" y="94"/>
   <text fill="#404040" font-family="Dialog" font-size="12" x="190" y="99">Rst</text>
   <rect fill="#000000" height="3" stroke="none" stroke-linecap="square" stroke-width="1" width="10" x="175" y="114"/>
   <path d="M186,111 L193,115 L186,119" fill="none" stroke="#000000" stroke-linecap="square" stroke-width="2"/>
   <text fill="#404040" font-family="Dialog" font-size="12" x="198" y="119">CLK</text>
   <rect fill="#000000" height="3" stroke="none" stroke-linecap="square" stroke-width="1" width="10" x="175" y="134"/>
   <text fill="#404040" font-family="Dialog" font-size="12" x="190" y="139">EN</text>
   <rect fill="#000000" height="3" stroke="none" stroke-linecap="square" stroke-width="1" width="10" x="175" y="154"/>
   <text fill="#404040" font-family="Dialog" font-size="12" x="190" y="159">Cin</text>
   <rect fill="#000000" height="3" stroke="none" stroke-linecap="square" stroke-width="1" width="10" x="385" y="94"/>
   <text fill="#404040" font-family="Dialog" font-size="12" x="354" y="99">Cout</text>
   <rect fill="#000000" height="4" stroke="none" stroke-linecap="square" stroke-width="1" width="10" x="385" y="113"/>
   <text fill="#404040" font-family="Dialog" font-size="12" x="353" y="119">Qout</text>
   <rect fill="#000000" height="20" stroke="none" stroke-linecap="square" stroke-width="1" width="200" x="185" y="165"/>
   <rect fill="none" height="100" stroke="#000000" stroke-linecap="square" stroke-width="2" width="200" x="185" y="85"/>
   <text fill="#FFFFFF" font-family="Dialog" font-size="14" font-weight="bold" x="242" y="179">Counter8Bit</text>
   <circle cx="175" cy="95" fill="#000000" r="2" stroke="none" stroke-width="1"/>
   <circle cx="175" cy="115" fill="#000000" r="2" stroke="none" stroke-width="1"/>
   <circle cx="175" cy="135" fill="#000000" r="2" stroke="none" stroke-width="1"/>
   <circle cx="175" cy="155" fill="#000000" r="2" stroke="none" stroke-width="1"/>
   <circle cx="395" cy="95" fill="#000000" r="2" stroke="none" stroke-width="1"/>
   <circle cx="395" cy="115" fill="#000000" r="2" stroke="none" stroke-width="1"/>
   <rect fill="#000000" height="4" stroke="none" stroke-linecap="square" stroke-width="1" width="10" x="485" y="93"/>
   <text fill="#404040" font-family="Dialog" font-size="12" x="500" y="99">A</text>
   <rect fill="#000000" height="4" stroke="none" stroke-linecap="square" stroke-width="1" width="10" x="485" y="113"/>
   <text fill="#404040" font-family="Dialog" font-size="12" x="500" y="119">B</text>
   <rect fill="#000000" height="3" stroke="none" stroke-linecap="square" stroke-width="1" width="10" x="695" y="94"/>
   <text fill="#404040" font-family="Dialog" font-size="12" x="658" y="99">Equal</text>
   <rect fill="#000000" height="20" stroke="none" stroke-linecap="square" stroke-width="1" width="200" x="495" y="125"/>
   <rect fill="none" height="60" stroke="#000000" stroke-linecap="square" stroke-width="2" width="200" x="495" y="85"/>
   <text fill="#FFFFFF" font-family="Dialog" font-size="14" font-weight="bold" x="587" y="139">c8</text>
   <circle cx="485" cy="95" fill="#000000" r="2" stroke="none" stroke-width="1"/>
   <circle cx="485" cy="115" fill="#000000" r="2" stroke="none" stroke-width="1"/>
   <circle cx="705" cy="95" fill="#000000" r="2" stroke="none" stroke-width="1"/>
   <path d="M90,75 H135 V115 H175" fill="none" stroke="#000000" stroke-linecap="square" stroke-width="3"/>
   <path d="M56,66 H80 L90,75 L80,84 H56 Z" fill="none" stroke="#000000" stroke-linecap="square" stroke-width="2"/>
   <text fill="#000000" font-family="monospace" font-size="12" x="61" y="81">x1</text>
   <text fill="#000000" font-family="sans-serif" font-size="16" font-weight="bold" x="22" y="83">CLK</text>
   <circle cx="95" cy="75" fill="#000000" r="2" stroke="none" stroke-width="2"/>
   <path d="M90,105 H115 V135" fill="none" stroke="#000000" stroke-linecap="square" stroke-width="3"/>
   <path d="M56,96 H80 L90,105 L80,114 H56 Z" fill="none" stroke="#000000" stroke-linecap="square" stroke-width="2"/>
   <text fill="#000000" font-family="monospace" font-size="12" x="61" y="111">x1</text>
   <text fill="#000000" font-family="sans-serif" font-size="16" font-weight="bold" x="31" y="113">EN</text>
   <circle cx="95" cy="105" fill="#000000" r="2" stroke="none" stroke-width="2"/>
   <text fill="#000000" font-family="monospace" font-size="12" x="427" y="229">3c</text>
   <circle cx="445" cy="225" fill="#000000" r="2" stroke="none" stroke-width="1"/>
   <rect fill="#000000" height="3" stroke="none" stroke-linecap="square" stroke-width="1" width="10" x="175" y="304"/>
   <text fill="#404040" font-family="Dialog" font-size="12" x="190" y="309">Rst</text>
   <rect fill="#000000" height="3" stroke="none" stroke-linecap="square" stroke-width="1" width="10" x="175" y="324"/>
   <path d="M186,321 L193,325 L186,329" fill="none" stroke="#000000" stroke-linecap="square" stroke-width="2"/>
   <text fill="#404040" font-family="Dialog" font-size="12" x="198" y="329">CLK</text>
   <rect fill="#000000" height="3" stroke="none" stroke-linecap="square" stroke-width="1" width="10" x="175" y="344"/>
   <text fill="#404040" font-family="Dialog" font-size="12" x="190" y="349">EN</text>
   <rect fill="#000000" height="3" stroke="none" stroke-linecap="square" stroke-width="1" width="10" x="175" y="364"/>
   <text fill="#404040" font-family="Dialog" font-size="12" x="190" y="369">Cin</text>
   <rect fill="#000000" height="3" stroke="none" stroke-linecap="square" stroke-width="1" width="10" x="385" y="304"/>
   <text fill="#404040" font-family="Dialog" font-size="12" x="354" y="309">Cout</text>
   <rect fill="#000000" height="4" stroke="none" stroke-linecap="square" stroke-width="1" width="10" x="385" y="323"/>
   <text fill="#404040" font-family="Dialog" font-size="12" x="353" y="329">Qout</text>
   <rect fill="#000000" height="20" stroke="none" stroke-linecap="square" stroke-width="1" width="200" x="185" y="375"/>
   <rect fill="none" height="100" stroke="#000000" stroke-linecap="square" stroke-width="2" width="200" x="185" y="295"/>
   <text fill="#FFFFFF" font-family="Dialog" font-size="14" font-weight="bold" x="242" y="389">Counter8Bit</text>
   <circle cx="175" cy="305" fill="#000000" r="2" stroke="none" stroke-width="1"/>
   <circle cx="175" cy="325" fill="#000000" r="2" stroke="none" stroke-width="1"/>
   <circle cx="175" cy="345" fill="#000000" r="2" stroke="none" stroke-width="1"/>
   <circle cx="175" cy="365" fill="#000000" r="2" stroke="none" stroke-width="1"/>
   <circle cx="395" cy="305" fill="#000000" r="2" stroke="none" stroke-width="1"/>
   <circle cx="395" cy="325" fill="#000000" r="2" stroke="none" stroke-width="1"/>
   <rect fill="#000000" height="4" stroke="none" stroke-linecap="square" stroke-width="1" width="10" x="495" y="303"/>
   <text fill="#404040" font-family="Dialog" font-size="12" x="510" y="309">A</text>
   <rect fill="#000000" height="4" stroke="none" stroke-linecap="square" stroke-width="1" width="10" x="495" y="323"/>
   <text fill="#404040" font-family="Dialog" font-size="12" x="510" y="329">B</text>
   <rect fill="#000000" height="3" stroke="none" stroke-linecap="square" stroke-width="1" width="10" x="705" y="304"/>
   <text fill="#404040" font-family="Dialog" font-size="12" x="668" y="309">Equal</text>
   <rect fill="#000000" height="20" stroke="none" stroke-linecap="square" stroke-width="1" width="200" x="505" y="335"/>
   <rect fill="none" height="60" stroke="#000000" stroke-linecap="square" stroke-width="2" width="200" x="505" y="295"/>
   <text fill="#FFFFFF" font-family="Dialog" font-size="14" font-weight="bold" x="597" y="349">c8</text>
   <circle cx="495" cy="305" fill="#000000" r="2" stroke="none" stroke-width="1"/>
   <circle cx="495" cy="325" fill="#000000" r="2" stroke="none" stroke-width="1"/>
   <circle cx="715" cy="305" fill="#000000" r="2" stroke="none" stroke-width="1"/>
   <text fill="#000000" font-family="monospace" font-size="12" x="437" y="359">3c</text>
   <circle cx="455" cy="355" fill="#000000" r="2" stroke="none" stroke-width="1"/>
   <path d="M499,55 H498" fill="none" stroke="#000000" stroke-linecap="square" stroke-width="4"/>
   <path d="M501,46 H595 L605,55 L595,64 H501 Z" fill="none" stroke="#000000" stroke-linecap="square" stroke-width="2"/>
   <text fill="#000000" font-family="monospace" font-size="12" x="536" y="61">x8</text>
   <text fill="#000000" font-family="sans-serif" font-size="16" font-weight="bold" x="607" y="63">Sec</text>
   <circle cx="495" cy="55" fill="#000000" r="2" stroke="none" stroke-width="2"/>
   <path d="M509,245 H508" fill="none" stroke="#000000" stroke-linecap="square" stroke-width="4"/>
   <path d="M511,236 H605 L615,245 L605,254 H511 Z" fill="none" stroke="#000000" stroke-linecap="square" stroke-width="2"/>
   <text fill="#000000" font-family="monospace" font-size="12" x="546" y="251">x8</text>
   <text fill="#000000" font-family="sans-serif" font-size="16" font-weight="bold" x="617" y="253">Min</text>
   <circle cx="505" cy="245" fill="#000000" r="2" stroke="none" stroke-width="2"/>
</svg>
