<?xml version="1.0" encoding="UTF-8" standalone="no"?>
<svg xmlns="http://www.w3.org/2000/svg" height="197" version="1.1" viewBox="0 0 498 197" width="498">
   <path d="M399,30 H429" fill="none" stroke="#000000" stroke-linecap="square" stroke-width="3"/>
   <path d="M339,140 H429" fill="none" stroke="#000000" stroke-linecap="square" stroke-width="3"/>
   <path d="M279,50 H199 V80 H369 V140" fill="none" stroke="#000000" stroke-linecap="square" stroke-width="3"/>
   <path d="M279,120 H199 V100 H399 V30 H339" fill="none" stroke="#000000" stroke-linecap="square" stroke-width="3"/>
   <circle cx="399" cy="30" fill="#000000" r="5" stroke="none" stroke-width="3"/>
   <circle cx="369" cy="140" fill="#000000" r="5" stroke="none" stroke-width="3"/>
   <path d="M433,30 H430" fill="none" stroke="#000000" stroke-linecap="square" stroke-width="3"/>
   <path d="M435,21 H459 L469,30 L459,39 H435 Z" fill="none" stroke="#000000" stroke-linecap="square" stroke-width="2"/>
   <text fill="#000000" font-family="monospace" font-size="12" x="435" y="37">x1</text>
   <text fill="#000000" font-family="sans-serif" font-size="16" font-weight="bold" x="471" y="38">Q</text>
   <circle cx="429" cy="30" fill="#000000" r="2" stroke="none" stroke-width="2"/>
   <path d="M433,140 H430" fill="none" stroke="#000000" stroke-linecap="square" stroke-width="3"/>
   <path d="M435,131 H459 L469,140 L459,149 H435 Z" fill="none" stroke="#000000" stroke-linecap="square" stroke-width="2"/>
   <text fill="#000000" font-family="monospace" font-size="12" x="435" y="147">x1</text>
   <text fill="#000000" font-family="sans-serif" font-size="16" font-weight="bold" x="471" y="148">nQ</text>
   <circle cx="429" cy="140" fill="#000000" r="2" stroke="none" stroke-width="2"/>
   <path d="M64,180 H169 V160 H279" fill="none" stroke="#000000" stroke-linecap="square" stroke-width="3"/>
   <path d="M30,171 H54 L64,180 L54,189 H30 Z" fill="none" stroke="#000000" stroke-linecap="square" stroke-width="2"/>
   <text fill="#000000" font-family="monospace" font-size="12" x="35" y="187">x1</text>
   <text fill="#000000" font-family="sans-serif" font-size="16" font-weight="bold" x="16" y="188">S</text>
   <circle cx="69" cy="180" fill="#000000" r="2" stroke="none" stroke-width="2"/>
   <path d="M54,50 H169 V10 H279" fill="none" stroke="#000000" stroke-linecap="square" stroke-width="3"/>
   <path d="M20,41 H44 L54,50 L44,59 H20 Z" fill="none" stroke="#000000" stroke-linecap="square" stroke-width="2"/>
   <text fill="#000000" font-family="monospace" font-size="12" x="25" y="57">x1</text>
   <text fill="#000000" font-family="sans-serif" font-size="16" font-weight="bold" x="5" y="58">R</text>
   <circle cx="59" cy="50" fill="#000000" r="2" stroke="none" stroke-width="2"/>
   <path d="M304,55 A25,25 90 0,0 304,5" fill="none" stroke="#000000" stroke-width="2"/>
   <path d="M304,5 H280 V55 H304" fill="none" stroke="#000000" stroke-linecap="square" stroke-width="2"/>
   <circle cx="334" cy="30" fill="none" r="4.5" stroke="#000000" stroke-width="2"/>
   <path d="M304,165 A25,25 90 0,0 304,115" fill="none" stroke="#000000" stroke-width="2"/>
   <path d="M304,115 H280 V165 H304" fill="none" stroke="#000000" stroke-linecap="square" stroke-width="2"/>
   <circle cx="334" cy="140" fill="none" r="4.5" stroke="#000000" stroke-width="2"/>
</svg>
