<?xml version="1.0" encoding="UTF-8" standalone="no"?>
<svg xmlns="http://www.w3.org/2000/svg" height="471" version="1.1" viewBox="0 0 1704 471" width="1704">
   <path d="M1369,275 H1479" fill="none" stroke="#000000" stroke-linecap="square" stroke-width="4"/>
   <path d="M729,75 H749" fill="none" stroke="#000000" stroke-linecap="square" stroke-width="4"/>
   <path d="M1049,295 H1089 V245 H1099" fill="none" stroke="#000000" stroke-linecap="square" stroke-width="4"/>
   <path d="M739,205 H759" fill="none" stroke="#000000" stroke-linecap="square" stroke-width="4"/>
   <path d="M779,195 H909 V95 H979" fill="none" stroke="#000000" stroke-linecap="square" stroke-width="4"/>
   <path d="M1119,225 H1139" fill="none" stroke="#000000" stroke-linecap="square" stroke-width="4"/>
   <path d="M1199,385 H1219" fill="none" stroke="#000000" stroke-linecap="square" stroke-width="4"/>
   <path d="M769,65 H949 V85 H979" fill="none" stroke="#000000" stroke-linecap="square" stroke-width="4"/>
   <path d="M1649,185 H1549 V275 H1509" fill="none" stroke="#000000" stroke-linecap="square" stroke-width="4"/>
   <path d="M229,215 H259" fill="none" stroke="#000000" stroke-linecap="square" stroke-width="4"/>
   <path d="M739,135 H759" fill="none" stroke="#000000" stroke-linecap="square" stroke-width="4"/>
   <path d="M669,95 H699" fill="none" stroke="#000000" stroke-linecap="square" stroke-width="4"/>
   <path d="M979,105 H939 V165 H1159 V215" fill="none" stroke="#000000" stroke-linecap="square" stroke-width="4"/>
   <path d="M209,235 V425 H169" fill="none" stroke="#000000" stroke-linecap="square" stroke-width="4"/>
   <path d="M1269,215 H1309" fill="none" stroke="#000000" stroke-linecap="square" stroke-width="3"/>
   <path d="M1249,385 H1349 V305" fill="none" stroke="#000000" stroke-linecap="square" stroke-width="4"/>
   <path d="M669,295 H709 V225 H719" fill="none" stroke="#000000" stroke-linecap="square" stroke-width="4"/>
   <path d="M1109,85 V115 H1549 V185" fill="none" stroke="#000000" stroke-linecap="square" stroke-width="4"/>
   <path d="M409,315 H449" fill="none" stroke="#000000" stroke-linecap="square" stroke-width="4"/>
   <path d="M1109,365 H1119" fill="none" stroke="#000000" stroke-linecap="square" stroke-width="3"/>
   <path d="M119,335 H129 V425 H139" fill="none" stroke="#000000" stroke-linecap="square" stroke-width="4"/>
   <path d="M449,335 H329 V135 H279 V205" fill="none" stroke="#000000" stroke-linecap="square" stroke-width="4"/>
   <path d="M1499,285 V315 H1429 V195 H1389" fill="none" stroke="#000000" stroke-linecap="square" stroke-width="3"/>
   <path d="M159,365 V375 H189 V385" fill="none" stroke="#000000" stroke-linecap="square" stroke-width="3"/>
   <path d="M329,135 H449" fill="none" stroke="#000000" stroke-linecap="square" stroke-width="4"/>
   <path d="M219,95 H259" fill="none" stroke="#000000" stroke-linecap="square" stroke-width="4"/>
   <path d="M109,295 V325 H89 V345 H99" fill="none" stroke="#000000" stroke-linecap="square" stroke-width="4"/>
   <path d="M1289,285 H1099 V335" fill="none" stroke="#000000" stroke-linecap="square" stroke-width="3"/>
   <path d="M359,115 H449" fill="none" stroke="#000000" stroke-linecap="square" stroke-width="4"/>
   <path d="M709,95 H699 V155 H719" fill="none" stroke="#000000" stroke-linecap="square" stroke-width="4"/>
   <path d="M999,75 H1089" fill="none" stroke="#000000" stroke-linecap="square" stroke-width="4"/>
   <path d="M189,415 V455 H159 V435" fill="none" stroke="#000000" stroke-linecap="square" stroke-width="3"/>
   <path d="M199,115 V355 H169" fill="none" stroke="#000000" stroke-linecap="square" stroke-width="4"/>
   <path d="M779,125 H979 V115" fill="none" stroke="#000000" stroke-linecap="square" stroke-width="4"/>
   <path d="M669,315 H739 V435 H1239 V395" fill="none" stroke="#000000" stroke-linecap="square" stroke-width="3"/>
   <path d="M279,85 H359 V315 H409 V465 H829 V335" fill="none" stroke="#000000" stroke-linecap="square" stroke-width="4"/>
   <path d="M159,15 H1129 V75 H1119" fill="none" stroke="#000000" stroke-linecap="square" stroke-width="4"/>
   <path d="M129,355 H139" fill="none" stroke="#000000" stroke-linecap="square" stroke-width="4"/>
   <path d="M389,335 V395 H799 V315 H829" fill="none" stroke="#000000" stroke-linecap="square" stroke-width="4"/>
   <circle cx="129" cy="355" fill="#000000" r="6" stroke="none" stroke-width="3"/>
   <circle cx="699" cy="95" fill="#000000" r="6" stroke="none" stroke-width="3"/>
   <circle cx="89" cy="325" fill="#000000" r="6" stroke="none" stroke-width="3"/>
   <circle cx="1289" cy="285" fill="#000000" r="5" stroke="none" stroke-width="3"/>
   <circle cx="1549" cy="185" fill="#000000" r="6" stroke="none" stroke-width="3"/>
   <circle cx="1309" cy="215" fill="#000000" r="5" stroke="none" stroke-width="3"/>
   <circle cx="189" cy="375" fill="#000000" r="5" stroke="none" stroke-width="3"/>
   <circle cx="329" cy="135" fill="#000000" r="6" stroke="none" stroke-width="3"/>
   <circle cx="1099" cy="335" fill="#000000" r="5" stroke="none" stroke-width="3"/>
   <circle cx="389" cy="335" fill="#000000" r="6" stroke="none" stroke-width="3"/>
   <circle cx="1309" cy="295" fill="#000000" r="5" stroke="none" stroke-width="3"/>
   <circle cx="1109" cy="365" fill="#000000" r="5" stroke="none" stroke-width="3"/>
   <circle cx="409" cy="315" fill="#000000" r="6" stroke="none" stroke-width="3"/>
   <circle cx="1289" cy="175" fill="#000000" r="5" stroke="none" stroke-width="3"/>
   <circle cx="359" cy="115" fill="#000000" r="6" stroke="none" stroke-width="3"/>
   <rect fill="#000000" height="3" stroke="none" stroke-linecap="square" stroke-width="1" width="10" x="449" y="94"/>
   <text fill="#404040" font-family="Dialog" font-size="12" x="464" y="99">Cin</text>
   <rect fill="#000000" height="4" stroke="none" stroke-linecap="square" stroke-width="1" width="10" x="449" y="113"/>
   <text fill="#404040" font-family="Dialog" font-size="12" x="464" y="119">A</text>
   <rect fill="#000000" height="4" stroke="none" stroke-linecap="square" stroke-width="1" width="10" x="449" y="133"/>
   <text fill="#404040" font-family="Dialog" font-size="12" x="464" y="139">B</text>
   <rect fill="#000000" height="4" stroke="none" stroke-linecap="square" stroke-width="1" width="10" x="659" y="93"/>
   <rect fill="#000000" height="3" stroke="none" stroke-linecap="square" stroke-width="1" width="10" x="659" y="114"/>
   <text fill="#404040" font-family="Dialog" font-size="12" x="628" y="119">Cout</text>
   <rect fill="#000000" height="20" stroke="none" stroke-linecap="square" stroke-width="1" width="200" x="459" y="145"/>
   <rect fill="none" height="80" stroke="#000000" stroke-linecap="square" stroke-width="2" width="200" x="459" y="85"/>
   <text fill="#FFFFFF" font-family="Dialog" font-size="14" font-weight="bold" x="523" y="159">full_add_4</text>
   <circle cx="449" cy="95" fill="#000000" r="2" stroke="none" stroke-width="1"/>
   <circle cx="449" cy="115" fill="#000000" r="2" stroke="none" stroke-width="1"/>
   <circle cx="449" cy="135" fill="#000000" r="2" stroke="none" stroke-width="1"/>
   <circle cx="669" cy="95" fill="#000000" r="2" stroke="none" stroke-width="1"/>
   <circle cx="669" cy="115" fill="#000000" r="2" stroke="none" stroke-width="1"/>
   <rect fill="#000000" height="3" stroke="none" stroke-linecap="square" stroke-width="1" width="10" x="449" y="294"/>
   <text fill="#404040" font-family="Dialog" font-size="12" x="464" y="299">Bin</text>
   <rect fill="#000000" height="4" stroke="none" stroke-linecap="square" stroke-width="1" width="10" x="449" y="313"/>
   <text fill="#404040" font-family="Dialog" font-size="12" x="464" y="319">A1</text>
   <rect fill="#000000" height="4" stroke="none" stroke-linecap="square" stroke-width="1" width="10" x="449" y="333"/>
   <text fill="#404040" font-family="Dialog" font-size="12" x="464" y="339">A0</text>
   <rect fill="#000000" height="4" stroke="none" stroke-linecap="square" stroke-width="1" width="10" x="659" y="293"/>
   <text fill="#404040" font-family="Dialog" font-size="12" x="645" y="299">D</text>
   <rect fill="#000000" height="3" stroke="none" stroke-linecap="square" stroke-width="1" width="10" x="659" y="314"/>
   <text fill="#404040" font-family="Dialog" font-size="12" x="629" y="319">Bout</text>
   <rect fill="#000000" height="20" stroke="none" stroke-linecap="square" stroke-width="1" width="200" x="459" y="345"/>
   <rect fill="none" height="80" stroke="#000000" stroke-linecap="square" stroke-width="2" width="200" x="459" y="285"/>
   <text fill="#FFFFFF" font-family="Dialog" font-size="14" font-weight="bold" x="523" y="359">full_sub_4</text>
   <circle cx="449" cy="295" fill="#000000" r="2" stroke="none" stroke-width="1"/>
   <circle cx="449" cy="315" fill="#000000" r="2" stroke="none" stroke-width="1"/>
   <circle cx="449" cy="335" fill="#000000" r="2" stroke="none" stroke-width="1"/>
   <circle cx="669" cy="295" fill="#000000" r="2" stroke="none" stroke-width="1"/>
   <circle cx="669" cy="315" fill="#000000" r="2" stroke="none" stroke-width="1"/>
   <path d="M259,95 H273" fill="none" stroke="#000000" stroke-linecap="square" stroke-width="3"/>
   <path d="M259,105 H273" fill="none" stroke="#000000" stroke-linecap="square" stroke-width="3"/>
   <path d="M273,104 V91 L278,86" fill="none" stroke="#000000" stroke-linecap="square" stroke-width="5"/>
   <text fill="#000000" font-family="sans-serif" font-size="7" x="260" y="92">2-0</text>
   <text fill="#000000" font-family="sans-serif" font-size="7" x="266" y="102">3</text>
   <circle cx="279" cy="85" fill="#000000" r="2" stroke="none" stroke-width="5"/>
   <circle cx="259" cy="95" fill="#000000" r="2" stroke="none" stroke-width="5"/>
   <text fill="#000000" font-family="monospace" font-size="12" x="249" y="110">0</text>
   <circle cx="259" cy="105" fill="#000000" r="2" stroke="none" stroke-width="1"/>
   <text fill="#000000" font-family="monospace" font-size="12" x="249" y="230">0</text>
   <path d="M229,215 H215" fill="none" stroke="#000000" stroke-linecap="square" stroke-width="3"/>
   <path d="M249,275 H229 V225 H215" fill="none" stroke="#000000" stroke-linecap="square" stroke-width="3"/>
   <path d="M215,216 V229 L210,234" fill="none" stroke="#000000" stroke-linecap="square" stroke-width="5"/>
   <text fill="#000000" font-family="sans-serif" font-size="7" x="218" y="223">2-0</text>
   <text fill="#000000" font-family="sans-serif" font-size="7" x="218" y="233">3</text>
   <circle cx="209" cy="235" fill="#000000" r="2" stroke="none" stroke-width="5"/>
   <circle cx="229" cy="215" fill="#000000" r="2" stroke="none" stroke-width="5"/>
   <circle cx="229" cy="225" fill="#000000" r="2" stroke="none" stroke-width="5"/>
   <path d="M259,215 H273" fill="none" stroke="#000000" stroke-linecap="square" stroke-width="3"/>
   <path d="M259,225 H273" fill="none" stroke="#000000" stroke-linecap="square" stroke-width="3"/>
   <path d="M273,224 V211 L278,206" fill="none" stroke="#000000" stroke-linecap="square" stroke-width="5"/>
   <text fill="#000000" font-family="sans-serif" font-size="7" x="260" y="212">2-0</text>
   <text fill="#000000" font-family="sans-serif" font-size="7" x="266" y="222">3</text>
   <circle cx="279" cy="205" fill="#000000" r="2" stroke="none" stroke-width="5"/>
   <circle cx="259" cy="215" fill="#000000" r="2" stroke="none" stroke-width="5"/>
   <circle cx="259" cy="225" fill="#000000" r="2" stroke="none" stroke-width="5"/>
   <path d="M729,75 H715" fill="none" stroke="#000000" stroke-linecap="square" stroke-width="3"/>
   <path d="M729,85 H715" fill="none" stroke="#000000" stroke-linecap="square" stroke-width="3"/>
   <path d="M715,76 V89 L710,94" fill="none" stroke="#000000" stroke-linecap="square" stroke-width="5"/>
   <text fill="#000000" font-family="sans-serif" font-size="7" x="718" y="83">2-0</text>
   <text fill="#000000" font-family="sans-serif" font-size="7" x="718" y="93">3</text>
   <circle cx="709" cy="95" fill="#000000" r="2" stroke="none" stroke-width="5"/>
   <circle cx="729" cy="75" fill="#000000" r="2" stroke="none" stroke-width="5"/>
   <circle cx="729" cy="85" fill="#000000" r="2" stroke="none" stroke-width="5"/>
   <path d="M749,75 H763" fill="none" stroke="#000000" stroke-linecap="square" stroke-width="3"/>
   <path d="M759,115 H749 V85 H763" fill="none" stroke="#000000" stroke-linecap="square" stroke-width="3"/>
   <path d="M763,84 V71 L768,66" fill="none" stroke="#000000" stroke-linecap="square" stroke-width="5"/>
   <text fill="#000000" font-family="sans-serif" font-size="7" x="750" y="72">2-0</text>
   <text fill="#000000" font-family="sans-serif" font-size="7" x="756" y="82">3</text>
   <circle cx="769" cy="65" fill="#000000" r="2" stroke="none" stroke-width="5"/>
   <circle cx="749" cy="75" fill="#000000" r="2" stroke="none" stroke-width="5"/>
   <circle cx="749" cy="85" fill="#000000" r="2" stroke="none" stroke-width="5"/>
   <text fill="#000000" font-family="monospace" font-size="12" x="763" y="120">0</text>
   <circle cx="759" cy="115" fill="#000000" r="2" stroke="none" stroke-width="1"/>
   <path d="M759,205 H773" fill="none" stroke="#000000" stroke-linecap="square" stroke-width="3"/>
   <path d="M769,245 H759 V215 H773" fill="none" stroke="#000000" stroke-linecap="square" stroke-width="3"/>
   <path d="M773,214 V201 L778,196" fill="none" stroke="#000000" stroke-linecap="square" stroke-width="5"/>
   <text fill="#000000" font-family="sans-serif" font-size="7" x="760" y="202">2-0</text>
   <text fill="#000000" font-family="sans-serif" font-size="7" x="766" y="212">3</text>
   <circle cx="779" cy="195" fill="#000000" r="2" stroke="none" stroke-width="5"/>
   <circle cx="759" cy="205" fill="#000000" r="2" stroke="none" stroke-width="5"/>
   <circle cx="759" cy="215" fill="#000000" r="2" stroke="none" stroke-width="5"/>
   <text fill="#000000" font-family="monospace" font-size="12" x="773" y="250">0</text>
   <circle cx="769" cy="245" fill="#000000" r="2" stroke="none" stroke-width="1"/>
   <path d="M739,205 H725" fill="none" stroke="#000000" stroke-linecap="square" stroke-width="3"/>
   <path d="M739,215 H725" fill="none" stroke="#000000" stroke-linecap="square" stroke-width="3"/>
   <path d="M725,206 V219 L720,224" fill="none" stroke="#000000" stroke-linecap="square" stroke-width="5"/>
   <text fill="#000000" font-family="sans-serif" font-size="7" x="728" y="213">2-0</text>
   <text fill="#000000" font-family="sans-serif" font-size="7" x="728" y="223">3</text>
   <circle cx="719" cy="225" fill="#000000" r="2" stroke="none" stroke-width="5"/>
   <circle cx="739" cy="205" fill="#000000" r="2" stroke="none" stroke-width="5"/>
   <circle cx="739" cy="215" fill="#000000" r="2" stroke="none" stroke-width="5"/>
   <path d="M1119,225 H1105" fill="none" stroke="#000000" stroke-linecap="square" stroke-width="3"/>
   <path d="M1119,235 H1105" fill="none" stroke="#000000" stroke-linecap="square" stroke-width="3"/>
   <path d="M1105,226 V239 L1100,244" fill="none" stroke="#000000" stroke-linecap="square" stroke-width="5"/>
   <text fill="#000000" font-family="sans-serif" font-size="7" x="1108" y="233">2-0</text>
   <text fill="#000000" font-family="sans-serif" font-size="7" x="1108" y="243">3</text>
   <circle cx="1099" cy="245" fill="#000000" r="2" stroke="none" stroke-width="5"/>
   <circle cx="1119" cy="225" fill="#000000" r="2" stroke="none" stroke-width="5"/>
   <circle cx="1119" cy="235" fill="#000000" r="2" stroke="none" stroke-width="5"/>
   <text fill="#000000" font-family="monospace" font-size="12" x="1153" y="270">1</text>
   <circle cx="1149" cy="265" fill="#000000" r="2" stroke="none" stroke-width="1"/>
   <path d="M1139,225 H1153" fill="none" stroke="#000000" stroke-linecap="square" stroke-width="3"/>
   <path d="M1149,265 H1139 V235 H1153" fill="none" stroke="#000000" stroke-linecap="square" stroke-width="3"/>
   <path d="M1153,234 V221 L1158,216" fill="none" stroke="#000000" stroke-linecap="square" stroke-width="5"/>
   <text fill="#000000" font-family="sans-serif" font-size="7" x="1140" y="222">2-0</text>
   <text fill="#000000" font-family="sans-serif" font-size="7" x="1146" y="232">3</text>
   <circle cx="1159" cy="215" fill="#000000" r="2" stroke="none" stroke-width="5"/>
   <circle cx="1139" cy="225" fill="#000000" r="2" stroke="none" stroke-width="5"/>
   <circle cx="1139" cy="235" fill="#000000" r="2" stroke="none" stroke-width="5"/>
   <text fill="#000000" font-family="monospace" font-size="12" x="773" y="180">1</text>
   <circle cx="769" cy="175" fill="#000000" r="2" stroke="none" stroke-width="1"/>
   <path d="M739,135 H725" fill="none" stroke="#000000" stroke-linecap="square" stroke-width="3"/>
   <path d="M739,145 H725" fill="none" stroke="#000000" stroke-linecap="square" stroke-width="3"/>
   <path d="M725,136 V149 L720,154" fill="none" stroke="#000000" stroke-linecap="square" stroke-width="5"/>
   <text fill="#000000" font-family="sans-serif" font-size="7" x="728" y="143">2-0</text>
   <text fill="#000000" font-family="sans-serif" font-size="7" x="728" y="153">3</text>
   <circle cx="719" cy="155" fill="#000000" r="2" stroke="none" stroke-width="5"/>
   <circle cx="739" cy="135" fill="#000000" r="2" stroke="none" stroke-width="5"/>
   <circle cx="739" cy="145" fill="#000000" r="2" stroke="none" stroke-width="5"/>
   <path d="M759,135 H773" fill="none" stroke="#000000" stroke-linecap="square" stroke-width="3"/>
   <path d="M769,175 H759 V145 H773" fill="none" stroke="#000000" stroke-linecap="square" stroke-width="3"/>
   <path d="M773,144 V131 L778,126" fill="none" stroke="#000000" stroke-linecap="square" stroke-width="5"/>
   <text fill="#000000" font-family="sans-serif" font-size="7" x="760" y="132">2-0</text>
   <text fill="#000000" font-family="sans-serif" font-size="7" x="766" y="142">3</text>
   <circle cx="779" cy="125" fill="#000000" r="2" stroke="none" stroke-width="5"/>
   <circle cx="759" cy="135" fill="#000000" r="2" stroke="none" stroke-width="5"/>
   <circle cx="759" cy="145" fill="#000000" r="2" stroke="none" stroke-width="5"/>
   <path d="M979,85 H993" fill="none" stroke="#000000" stroke-linecap="square" stroke-width="3"/>
   <path d="M979,95 H993" fill="none" stroke="#000000" stroke-linecap="square" stroke-width="3"/>
   <path d="M979,105 H993" fill="none" stroke="#000000" stroke-linecap="square" stroke-width="3"/>
   <path d="M979,115 H993" fill="none" stroke="#000000" stroke-linecap="square" stroke-width="3"/>
   <path d="M993,114 V81 L998,76" fill="none" stroke="#000000" stroke-linecap="square" stroke-width="5"/>
   <text fill="#000000" font-family="sans-serif" font-size="7" x="980" y="82">3-0</text>
   <text fill="#000000" font-family="sans-serif" font-size="7" x="980" y="92">7-4</text>
   <text fill="#000000" font-family="sans-serif" font-size="7" x="976" y="102">11-8</text>
   <text fill="#000000" font-family="sans-serif" font-size="7" x="972" y="112">15-12</text>
   <circle cx="999" cy="75" fill="#000000" r="2" stroke="none" stroke-width="5"/>
   <circle cx="979" cy="85" fill="#000000" r="2" stroke="none" stroke-width="5"/>
   <circle cx="979" cy="95" fill="#000000" r="2" stroke="none" stroke-width="5"/>
   <circle cx="979" cy="105" fill="#000000" r="2" stroke="none" stroke-width="5"/>
   <circle cx="979" cy="115" fill="#000000" r="2" stroke="none" stroke-width="5"/>
   <path d="M1089,60 L1119,69 V81 L1089,90 Z" fill="none" stroke="#000000" stroke-linecap="square" stroke-width="2"/>
   <text fill="#000000" font-family="sans-serif" font-size="12" x="1095" y="82">Sel</text>
   <circle cx="1119" cy="75" fill="#000000" r="2" stroke="none" stroke-width="2"/>
   <circle cx="1089" cy="75" fill="#000000" r="2" stroke="none" stroke-width="2"/>
   <circle cx="1109" cy="85" fill="#000000" r="2" stroke="none" stroke-width="2"/>
   <text fill="#000000" font-family="sans-serif" font-size="16" font-weight="bold" x="244" y="161">FA</text>
   <path d="M243,142 H268 V169 H243 V165 L239,155 L243,145 Z" fill="none" stroke="#000000" stroke-linecap="square" stroke-width="2"/>
   <circle cx="239" cy="155" fill="#000000" r="2" stroke="none" stroke-width="2"/>
   <text fill="#000000" font-family="sans-serif" font-size="16" font-weight="bold" x="254" y="281">FB</text>
   <path d="M253,262 H279 V289 H253 V285 L249,275 L253,265 Z" fill="none" stroke="#000000" stroke-linecap="square" stroke-width="2"/>
   <circle cx="249" cy="275" fill="#000000" r="2" stroke="none" stroke-width="2"/>
   <text fill="#000000" font-family="sans-serif" font-size="16" font-weight="bold" x="1243" y="181">FA</text>
   <path d="M1240,162 H1266 V165 L1270,175 L1266,185 V189 H1240 Z" fill="none" stroke="#000000" stroke-linecap="square" stroke-width="2"/>
   <circle cx="1269" cy="175" fill="#000000" r="2" stroke="none" stroke-width="2"/>
   <text fill="#000000" font-family="sans-serif" font-size="16" font-weight="bold" x="1242" y="221">FB</text>
   <path d="M1239,202 H1266 V205 L1270,215 L1266,225 V229 H1239 Z" fill="none" stroke="#000000" stroke-linecap="square" stroke-width="2"/>
   <circle cx="1269" cy="215" fill="#000000" r="2" stroke="none" stroke-width="2"/>
   <path d="M1269,175 H1331" fill="none" stroke="#000000" stroke-linecap="square" stroke-width="3"/>
   <path d="M1389,195 Q1369,170 1339,170 Q1352,195 1339,220 Q1369,220 1389,195 Z" fill="none" stroke="#000000" stroke-linecap="square" stroke-width="2"/>
   <path d="M1329,170 Q1342,195 1329,220" fill="none" stroke="#000000" stroke-linecap="square" stroke-width="2"/>
   <path d="M1479,260 L1509,269 V281 L1479,290 Z" fill="none" stroke="#000000" stroke-linecap="square" stroke-width="2"/>
   <text fill="#000000" font-family="sans-serif" font-size="12" x="1485" y="282">Sel</text>
   <circle cx="1509" cy="275" fill="#000000" r="2" stroke="none" stroke-width="2"/>
   <circle cx="1479" cy="275" fill="#000000" r="2" stroke="none" stroke-width="2"/>
   <circle cx="1499" cy="285" fill="#000000" r="2" stroke="none" stroke-width="2"/>
   <path d="M1289,175 V285 H1363" fill="none" stroke="#000000" stroke-linecap="square" stroke-width="3"/>
   <path d="M1331,215 H1309 V295 H1363" fill="none" stroke="#000000" stroke-linecap="square" stroke-width="3"/>
   <path d="M1349,305 H1363" fill="none" stroke="#000000" stroke-linecap="square" stroke-width="3"/>
   <path d="M1363,304 V281 L1368,276" fill="none" stroke="#000000" stroke-linecap="square" stroke-width="5"/>
   <text fill="#000000" font-family="sans-serif" font-size="7" x="1356" y="282">0</text>
   <text fill="#000000" font-family="sans-serif" font-size="7" x="1356" y="292">1</text>
   <text fill="#000000" font-family="sans-serif" font-size="7" x="1350" y="302">3-2</text>
   <circle cx="1369" cy="275" fill="#000000" r="2" stroke="none" stroke-width="5"/>
   <circle cx="1349" cy="285" fill="#000000" r="2" stroke="none" stroke-width="5"/>
   <circle cx="1349" cy="295" fill="#000000" r="2" stroke="none" stroke-width="5"/>
   <circle cx="1349" cy="305" fill="#000000" r="2" stroke="none" stroke-width="5"/>
   <path d="M1309,295 H1109 V395 H1193" fill="none" stroke="#000000" stroke-linecap="square" stroke-width="3"/>
   <path d="M1119,335 H1099 V405 H1193" fill="none" stroke="#000000" stroke-linecap="square" stroke-width="3"/>
   <path d="M1149,365 H1169 V415 H1193" fill="none" stroke="#000000" stroke-linecap="square" stroke-width="3"/>
   <path d="M1149,335 H1159 V425 H1193" fill="none" stroke="#000000" stroke-linecap="square" stroke-width="3"/>
   <path d="M1193,424 V391 L1198,386" fill="none" stroke="#000000" stroke-linecap="square" stroke-width="5"/>
   <text fill="#000000" font-family="sans-serif" font-size="7" x="1186" y="392">0</text>
   <text fill="#000000" font-family="sans-serif" font-size="7" x="1186" y="402">1</text>
   <text fill="#000000" font-family="sans-serif" font-size="7" x="1186" y="412">2</text>
   <text fill="#000000" font-family="sans-serif" font-size="7" x="1186" y="422">3</text>
   <circle cx="1199" cy="385" fill="#000000" r="2" stroke="none" stroke-width="5"/>
   <circle cx="1179" cy="395" fill="#000000" r="2" stroke="none" stroke-width="5"/>
   <circle cx="1179" cy="405" fill="#000000" r="2" stroke="none" stroke-width="5"/>
   <circle cx="1179" cy="415" fill="#000000" r="2" stroke="none" stroke-width="5"/>
   <circle cx="1179" cy="425" fill="#000000" r="2" stroke="none" stroke-width="5"/>
   <path d="M1139,365 L1120,358 V372 L1139,365" fill="none" stroke="#000000" stroke-linecap="square" stroke-width="2"/>
   <circle cx="1144" cy="365" fill="none" r="4.5" stroke="#000000" stroke-width="2"/>
   <circle cx="1149" cy="365" fill="#000000" r="2" stroke="none" stroke-width="2"/>
   <circle cx="1119" cy="365" fill="#000000" r="2" stroke="none" stroke-width="2"/>
   <path d="M1139,335 L1120,328 V342 L1139,335" fill="none" stroke="#000000" stroke-linecap="square" stroke-width="2"/>
   <circle cx="1144" cy="335" fill="none" r="4.5" stroke="#000000" stroke-width="2"/>
   <circle cx="1149" cy="335" fill="#000000" r="2" stroke="none" stroke-width="2"/>
   <circle cx="1119" cy="335" fill="#000000" r="2" stroke="none" stroke-width="2"/>
   <path d="M156,15 H157" fill="none" stroke="#000000" stroke-linecap="square" stroke-width="4"/>
   <path d="M154,24 H100 L90,15 L100,6 H154 Z" fill="none" stroke="#000000" stroke-linecap="square" stroke-width="2"/>
   <text fill="#000000" font-family="monospace" font-size="12" x="110" y="22">x4</text>
   <text fill="#000000" font-family="sans-serif" font-size="16" font-weight="bold" x="76" y="23">S</text>
   <circle cx="159" cy="15" fill="#000000" r="2" stroke="none" stroke-width="2"/>
   <rect fill="#000000" height="3" stroke="none" stroke-linecap="square" stroke-width="1" width="10" x="829" y="294"/>
   <text fill="#404040" font-family="Dialog" font-size="12" x="844" y="299">Bin</text>
   <rect fill="#000000" height="4" stroke="none" stroke-linecap="square" stroke-width="1" width="10" x="829" y="313"/>
   <text fill="#404040" font-family="Dialog" font-size="12" x="844" y="319">A1</text>
   <rect fill="#000000" height="4" stroke="none" stroke-linecap="square" stroke-width="1" width="10" x="829" y="333"/>
   <text fill="#404040" font-family="Dialog" font-size="12" x="844" y="339">A0</text>
   <rect fill="#000000" height="4" stroke="none" stroke-linecap="square" stroke-width="1" width="10" x="1039" y="293"/>
   <text fill="#404040" font-family="Dialog" font-size="12" x="1025" y="299">D</text>
   <rect fill="#000000" height="3" stroke="none" stroke-linecap="square" stroke-width="1" width="10" x="1039" y="314"/>
   <text fill="#404040" font-family="Dialog" font-size="12" x="1009" y="319">Bout</text>
   <rect fill="#000000" height="20" stroke="none" stroke-linecap="square" stroke-width="1" width="200" x="839" y="345"/>
   <rect fill="none" height="80" stroke="#000000" stroke-linecap="square" stroke-width="2" width="200" x="839" y="285"/>
   <text fill="#FFFFFF" font-family="Dialog" font-size="14" font-weight="bold" x="903" y="359">full_sub_4</text>
   <circle cx="829" cy="295" fill="#000000" r="2" stroke="none" stroke-width="1"/>
   <circle cx="829" cy="315" fill="#000000" r="2" stroke="none" stroke-width="1"/>
   <circle cx="829" cy="335" fill="#000000" r="2" stroke="none" stroke-width="1"/>
   <circle cx="1049" cy="295" fill="#000000" r="2" stroke="none" stroke-width="1"/>
   <circle cx="1049" cy="315" fill="#000000" r="2" stroke="none" stroke-width="1"/>
   <rect fill="#FFF099" height="18" rx="10" ry="9" stroke="none" stroke-linecap="square" stroke-width="1" width="48" x="1650" y="176"/>
   <rect fill="none" height="18" rx="10" ry="9" stroke="#C0C0C0" stroke-linecap="square" stroke-width="1" width="48" x="1650" y="176"/>
   <text fill="#404040" font-family="sans-serif" font-size="12" x="1668" y="192">x2</text>
   <circle cx="1649" cy="185" fill="#000000" r="2" stroke="none" stroke-width="1"/>
   <path d="M1219,370 L1249,379 V391 L1219,400 Z" fill="none" stroke="#000000" stroke-linecap="square" stroke-width="2"/>
   <text fill="#000000" font-family="sans-serif" font-size="12" x="1225" y="392">Sel</text>
   <circle cx="1249" cy="385" fill="#000000" r="2" stroke="none" stroke-width="2"/>
   <circle cx="1219" cy="385" fill="#000000" r="2" stroke="none" stroke-width="2"/>
   <circle cx="1239" cy="395" fill="#000000" r="2" stroke="none" stroke-width="2"/>
   <path d="M219,95 H205" fill="none" stroke="#000000" stroke-linecap="square" stroke-width="3"/>
   <path d="M239,155 H229 V105 H205" fill="none" stroke="#000000" stroke-linecap="square" stroke-width="3"/>
   <path d="M205,96 V109 L200,114" fill="none" stroke="#000000" stroke-linecap="square" stroke-width="5"/>
   <text fill="#000000" font-family="sans-serif" font-size="7" x="208" y="103">2-0</text>
   <text fill="#000000" font-family="sans-serif" font-size="7" x="208" y="113">3</text>
   <circle cx="199" cy="115" fill="#000000" r="2" stroke="none" stroke-width="5"/>
   <circle cx="219" cy="95" fill="#000000" r="2" stroke="none" stroke-width="5"/>
   <circle cx="219" cy="105" fill="#000000" r="2" stroke="none" stroke-width="5"/>
   <path d="M139,340 L169,349 V361 L139,370 Z" fill="none" stroke="#000000" stroke-linecap="square" stroke-width="2"/>
   <text fill="#000000" font-family="sans-serif" font-size="12" x="145" y="362">Sel</text>
   <circle cx="169" cy="355" fill="#000000" r="2" stroke="none" stroke-width="2"/>
   <circle cx="139" cy="355" fill="#000000" r="2" stroke="none" stroke-width="2"/>
   <circle cx="159" cy="365" fill="#000000" r="2" stroke="none" stroke-width="2"/>
   <path d="M139,410 L169,419 V431 L139,440 Z" fill="none" stroke="#000000" stroke-linecap="square" stroke-width="2"/>
   <text fill="#000000" font-family="sans-serif" font-size="12" x="145" y="432">Sel</text>
   <circle cx="169" cy="425" fill="#000000" r="2" stroke="none" stroke-width="2"/>
   <circle cx="139" cy="425" fill="#000000" r="2" stroke="none" stroke-width="2"/>
   <circle cx="159" cy="435" fill="#000000" r="2" stroke="none" stroke-width="2"/>
   <path d="M99,345 H113" fill="none" stroke="#000000" stroke-linecap="square" stroke-width="3"/>
   <path d="M99,355 H113" fill="none" stroke="#000000" stroke-linecap="square" stroke-width="3"/>
   <path d="M113,354 V341 L118,336" fill="none" stroke="#000000" stroke-linecap="square" stroke-width="5"/>
   <text fill="#000000" font-family="sans-serif" font-size="7" x="100" y="342">3-0</text>
   <text fill="#000000" font-family="sans-serif" font-size="7" x="100" y="352">7-4</text>
   <circle cx="119" cy="335" fill="#000000" r="2" stroke="none" stroke-width="5"/>
   <circle cx="99" cy="345" fill="#000000" r="2" stroke="none" stroke-width="5"/>
   <circle cx="99" cy="355" fill="#000000" r="2" stroke="none" stroke-width="5"/>
   <path d="M86,355 H99" fill="none" stroke="#000000" stroke-linecap="square" stroke-width="4"/>
   <path d="M20,346 H74 L84,355 L74,364 H20 Z" fill="none" stroke="#000000" stroke-linecap="square" stroke-width="2"/>
   <text fill="#000000" font-family="monospace" font-size="12" x="40" y="362">x4</text>
   <text fill="#000000" font-family="sans-serif" font-size="16" font-weight="bold" x="5" y="363">B</text>
   <circle cx="89" cy="355" fill="#000000" r="2" stroke="none" stroke-width="2"/>
   <path d="M86,325 H89" fill="none" stroke="#000000" stroke-linecap="square" stroke-width="4"/>
   <path d="M20,316 H74 L84,325 L74,334 H20 Z" fill="none" stroke="#000000" stroke-linecap="square" stroke-width="2"/>
   <text fill="#000000" font-family="monospace" font-size="12" x="40" y="332">x4</text>
   <text fill="#000000" font-family="sans-serif" font-size="16" font-weight="bold" x="6" y="333">A</text>
   <circle cx="89" cy="325" fill="#000000" r="2" stroke="none" stroke-width="2"/>
   <path d="M129,275 H115" fill="none" stroke="#000000" stroke-linecap="square" stroke-width="3"/>
   <path d="M189,375 V285 H115" fill="none" stroke="#000000" stroke-linecap="square" stroke-width="3"/>
   <path d="M115,276 V289 L110,294" fill="none" stroke="#000000" stroke-linecap="square" stroke-width="5"/>
   <text fill="#000000" font-family="sans-serif" font-size="7" x="118" y="283">2-0</text>
   <text fill="#000000" font-family="sans-serif" font-size="7" x="118" y="293">3</text>
   <circle cx="109" cy="295" fill="#000000" r="2" stroke="none" stroke-width="5"/>
   <circle cx="129" cy="275" fill="#000000" r="2" stroke="none" stroke-width="5"/>
   <circle cx="129" cy="285" fill="#000000" r="2" stroke="none" stroke-width="5"/>
   <path d="M189,405 L196,386 H182 L189,405" fill="none" stroke="#000000" stroke-linecap="square" stroke-width="2"/>
   <circle cx="189" cy="410" fill="none" r="4.5" stroke="#000000" stroke-width="2"/>
   <circle cx="189" cy="415" fill="#000000" r="2" stroke="none" stroke-width="2"/>
   <circle cx="189" cy="385" fill="#000000" r="2" stroke="none" stroke-width="2"/>
</svg>
