<?xml version="1.0" encoding="UTF-8" standalone="no"?>
<svg xmlns="http://www.w3.org/2000/svg" height="375" version="1.1" viewBox="0 0 995 375" width="995">
   <path d="M889,155 H939" fill="none" stroke="#000000" stroke-linecap="square" stroke-width="4"/>
   <path d="M459,145 V205 H389 V125 H329" fill="none" stroke="#000000" stroke-linecap="square" stroke-width="4"/>
   <path d="M339,295 H389 V225 H459 V315" fill="none" stroke="#000000" stroke-linecap="square" stroke-width="4"/>
   <path d="M739,185 H779" fill="none" stroke="#000000" stroke-linecap="square" stroke-width="4"/>
   <path d="M129,155 H169" fill="none" stroke="#000000" stroke-linecap="square" stroke-width="4"/>
   <path d="M139,325 H179" fill="none" stroke="#000000" stroke-linecap="square" stroke-width="4"/>
   <path d="M279,125 H299" fill="none" stroke="#000000" stroke-linecap="square" stroke-width="4"/>
   <path d="M289,295 H309" fill="none" stroke="#000000" stroke-linecap="square" stroke-width="4"/>
   <path d="M799,175 H809 V125 H769" fill="none" stroke="#000000" stroke-linecap="square" stroke-width="4"/>
   <path d="M869,165 H689 V205 H679" fill="none" stroke="#000000" stroke-linecap="square" stroke-width="4"/>
   <path d="M859,175 H869" fill="none" stroke="#000000" stroke-linecap="square" stroke-width="4"/>
   <path d="M689,205 H719" fill="none" stroke="#000000" stroke-linecap="square" stroke-width="4"/>
   <path d="M149,185 H159 V195 H169" fill="none" stroke="#000000" stroke-linecap="square" stroke-width="4"/>
   <path d="M159,355 H169 V365 H179" fill="none" stroke="#000000" stroke-linecap="square" stroke-width="4"/>
   <path d="M219,175 H229 V145 H249 V155" fill="none" stroke="#000000" stroke-linecap="square" stroke-width="4"/>
   <path d="M99,135 H179 V105" fill="none" stroke="#000000" stroke-linecap="square" stroke-width="4"/>
   <path d="M109,305 H189 V275" fill="none" stroke="#000000" stroke-linecap="square" stroke-width="4"/>
   <path d="M179,135 H259" fill="none" stroke="#000000" stroke-linecap="square" stroke-width="4"/>
   <path d="M189,305 H269" fill="none" stroke="#000000" stroke-linecap="square" stroke-width="4"/>
   <path d="M809,175 H829" fill="none" stroke="#000000" stroke-linecap="square" stroke-width="4"/>
   <path d="M229,345 H239 V315 H269" fill="none" stroke="#000000" stroke-linecap="square" stroke-width="4"/>
   <path d="M249,145 H259" fill="none" stroke="#000000" stroke-linecap="square" stroke-width="4"/>
   <path d="M969,155 H989 V15 H79" fill="none" stroke="#000000" stroke-linecap="square" stroke-width="4"/>
   <circle cx="809" cy="175" fill="#000000" r="6" stroke="none" stroke-width="4"/>
   <circle cx="179" cy="135" fill="#000000" r="6" stroke="none" stroke-width="4"/>
   <circle cx="249" cy="145" fill="#000000" r="6" stroke="none" stroke-width="4"/>
   <circle cx="689" cy="205" fill="#000000" r="6" stroke="none" stroke-width="4"/>
   <circle cx="459" cy="205" fill="#000000" r="6" stroke="none" stroke-width="4"/>
   <circle cx="109" cy="305" fill="#000000" r="6" stroke="none" stroke-width="4"/>
   <circle cx="459" cy="225" fill="#000000" r="6" stroke="none" stroke-width="4"/>
   <circle cx="99" cy="135" fill="#000000" r="6" stroke="none" stroke-width="4"/>
   <circle cx="189" cy="305" fill="#000000" r="6" stroke="none" stroke-width="4"/>
   <path d="M739,185 H725" fill="none" stroke="#000000" stroke-linecap="square" stroke-width="3"/>
   <path d="M959,165 V215 H739 V195 H725" fill="none" stroke="#000000" stroke-linecap="square" stroke-width="3"/>
   <path d="M725,186 V199 L720,204" fill="none" stroke="#000000" stroke-linecap="square" stroke-width="5"/>
   <text fill="#000000" font-family="sans-serif" font-size="7" x="728" y="192">2-0</text>
   <text fill="#000000" font-family="sans-serif" font-size="7" x="728" y="202">3</text>
   <circle cx="719" cy="205" fill="#000000" r="2" stroke="none" stroke-width="5"/>
   <circle cx="739" cy="185" fill="#000000" r="2" stroke="none" stroke-width="5"/>
   <circle cx="739" cy="195" fill="#000000" r="2" stroke="none" stroke-width="5"/>
   <text fill="#000000" font-family="monospace" font-size="12" x="739" y="259">0</text>
   <circle cx="749" cy="255" fill="#000000" r="2" stroke="none" stroke-width="1"/>
   <rect fill="#FFF099" height="18" rx="10" ry="9" stroke="none" stroke-linecap="square" stroke-width="1" width="68" x="700" y="116"/>
   <rect fill="none" height="18" rx="10" ry="9" stroke="#C0C0C0" stroke-linecap="square" stroke-width="1" width="68" x="700" y="116"/>
   <text fill="#404040" font-family="sans-serif" font-size="12" x="727" y="131">x4</text>
   <circle cx="769" cy="125" fill="#000000" r="2" stroke="none" stroke-width="1"/>
   <path d="M779,185 H793" fill="none" stroke="#000000" stroke-linecap="square" stroke-width="3"/>
   <path d="M749,255 H779 V195 H793" fill="none" stroke="#000000" stroke-linecap="square" stroke-width="3"/>
   <path d="M793,194 V181 L798,176" fill="none" stroke="#000000" stroke-linecap="square" stroke-width="5"/>
   <text fill="#000000" font-family="sans-serif" font-size="7" x="778" y="182">2-0</text>
   <text fill="#000000" font-family="sans-serif" font-size="7" x="786" y="192">3</text>
   <circle cx="799" cy="175" fill="#000000" r="2" stroke="none" stroke-width="5"/>
   <circle cx="779" cy="185" fill="#000000" r="2" stroke="none" stroke-width="5"/>
   <circle cx="779" cy="195" fill="#000000" r="2" stroke="none" stroke-width="5"/>
   <path d="M869,165 H883" fill="none" stroke="#000000" stroke-linecap="square" stroke-width="3"/>
   <path d="M869,175 H883" fill="none" stroke="#000000" stroke-linecap="square" stroke-width="3"/>
   <path d="M883,174 V161 L888,156" fill="none" stroke="#000000" stroke-linecap="square" stroke-width="5"/>
   <text fill="#000000" font-family="sans-serif" font-size="7" x="868" y="162">3-0</text>
   <text fill="#000000" font-family="sans-serif" font-size="7" x="868" y="172">7-4</text>
   <circle cx="889" cy="155" fill="#000000" r="2" stroke="none" stroke-width="5"/>
   <circle cx="869" cy="165" fill="#000000" r="2" stroke="none" stroke-width="5"/>
   <circle cx="869" cy="175" fill="#000000" r="2" stroke="none" stroke-width="5"/>
   <path d="M76,15 H77" fill="none" stroke="#000000" stroke-linecap="square" stroke-width="4"/>
   <path d="M74,24 H20 L10,15 L20,6 H74 Z" fill="none" stroke="#000000" stroke-linecap="square" stroke-width="2"/>
   <text fill="#000000" font-family="monospace" font-size="12" x="30" y="21">x4</text>
   <circle cx="79" cy="15" fill="#000000" r="2" stroke="none" stroke-width="2"/>
   <path d="M86,135 H99 V185 H119" fill="none" stroke="#000000" stroke-linecap="square" stroke-width="4"/>
   <path d="M20,126 H74 L84,135 L74,144 H20 Z" fill="none" stroke="#000000" stroke-linecap="square" stroke-width="2"/>
   <text fill="#000000" font-family="monospace" font-size="12" x="40" y="141">x4</text>
   <text fill="#000000" font-family="sans-serif" font-size="16" font-weight="bold" x="5" y="143">A</text>
   <circle cx="89" cy="135" fill="#000000" r="2" stroke="none" stroke-width="2"/>
   <path d="M96,305 H109 V355 H129" fill="none" stroke="#000000" stroke-linecap="square" stroke-width="4"/>
   <path d="M30,296 H84 L94,305 L84,314 H30 Z" fill="none" stroke="#000000" stroke-linecap="square" stroke-width="2"/>
   <text fill="#000000" font-family="monospace" font-size="12" x="50" y="311">x4</text>
   <text fill="#000000" font-family="sans-serif" font-size="16" font-weight="bold" x="17" y="313">B</text>
   <circle cx="99" cy="305" fill="#000000" r="2" stroke="none" stroke-width="2"/>
   <text fill="#000000" font-family="monospace" font-size="12" x="119" y="159">8</text>
   <circle cx="129" cy="155" fill="#000000" r="2" stroke="none" stroke-width="1"/>
   <text fill="#000000" font-family="monospace" font-size="12" x="129" y="329">8</text>
   <circle cx="139" cy="325" fill="#000000" r="2" stroke="none" stroke-width="1"/>
   <path d="M199,85 H185" fill="none" stroke="#000000" stroke-linecap="square" stroke-width="3"/>
   <path d="M319,135 V175 H239 V95 H185" fill="none" stroke="#000000" stroke-linecap="square" stroke-width="3"/>
   <path d="M185,86 V99 L180,104" fill="none" stroke="#000000" stroke-linecap="square" stroke-width="5"/>
   <text fill="#000000" font-family="sans-serif" font-size="7" x="188" y="102">3</text>
   <circle cx="179" cy="105" fill="#000000" r="2" stroke="none" stroke-width="5"/>
   <circle cx="199" cy="85" fill="#000000" r="2" stroke="none" stroke-width="5"/>
   <circle cx="199" cy="95" fill="#000000" r="2" stroke="none" stroke-width="5"/>
   <path d="M209,255 H195" fill="none" stroke="#000000" stroke-linecap="square" stroke-width="3"/>
   <path d="M329,305 V345 H249 V265 H195" fill="none" stroke="#000000" stroke-linecap="square" stroke-width="3"/>
   <path d="M195,256 V269 L190,274" fill="none" stroke="#000000" stroke-linecap="square" stroke-width="5"/>
   <text fill="#000000" font-family="sans-serif" font-size="7" x="198" y="272">3</text>
   <circle cx="189" cy="275" fill="#000000" r="2" stroke="none" stroke-width="5"/>
   <circle cx="209" cy="255" fill="#000000" r="2" stroke="none" stroke-width="5"/>
   <circle cx="209" cy="265" fill="#000000" r="2" stroke="none" stroke-width="5"/>
   <path d="M259,135 H273" fill="none" stroke="#000000" stroke-linecap="square" stroke-width="3"/>
   <path d="M259,145 H273" fill="none" stroke="#000000" stroke-linecap="square" stroke-width="3"/>
   <path d="M273,144 V131 L278,126" fill="none" stroke="#000000" stroke-linecap="square" stroke-width="5"/>
   <text fill="#000000" font-family="sans-serif" font-size="7" x="258" y="132">3-0</text>
   <text fill="#000000" font-family="sans-serif" font-size="7" x="258" y="142">7-4</text>
   <circle cx="279" cy="125" fill="#000000" r="2" stroke="none" stroke-width="5"/>
   <circle cx="259" cy="135" fill="#000000" r="2" stroke="none" stroke-width="5"/>
   <circle cx="259" cy="145" fill="#000000" r="2" stroke="none" stroke-width="5"/>
   <path d="M269,305 H283" fill="none" stroke="#000000" stroke-linecap="square" stroke-width="3"/>
   <path d="M269,315 H283" fill="none" stroke="#000000" stroke-linecap="square" stroke-width="3"/>
   <path d="M283,314 V301 L288,296" fill="none" stroke="#000000" stroke-linecap="square" stroke-width="5"/>
   <text fill="#000000" font-family="sans-serif" font-size="7" x="268" y="302">3-0</text>
   <text fill="#000000" font-family="sans-serif" font-size="7" x="268" y="312">7-4</text>
   <circle cx="289" cy="295" fill="#000000" r="2" stroke="none" stroke-width="5"/>
   <circle cx="269" cy="305" fill="#000000" r="2" stroke="none" stroke-width="5"/>
   <circle cx="269" cy="315" fill="#000000" r="2" stroke="none" stroke-width="5"/>
   <rect fill="#FFF099" height="18" rx="10" ry="9" stroke="none" stroke-linecap="square" stroke-width="1" width="68" x="390" y="136"/>
   <rect fill="none" height="18" rx="10" ry="9" stroke="#C0C0C0" stroke-linecap="square" stroke-width="1" width="68" x="390" y="136"/>
   <text fill="#404040" font-family="sans-serif" font-size="12" x="417" y="151">x4</text>
   <circle cx="459" cy="145" fill="#000000" r="2" stroke="none" stroke-width="1"/>
   <rect fill="#FFF099" height="18" rx="10" ry="9" stroke="none" stroke-linecap="square" stroke-width="1" width="68" x="390" y="306"/>
   <rect fill="none" height="18" rx="10" ry="9" stroke="#C0C0C0" stroke-linecap="square" stroke-width="1" width="68" x="390" y="306"/>
   <text fill="#404040" font-family="sans-serif" font-size="12" x="417" y="321">x4</text>
   <circle cx="459" cy="315" fill="#000000" r="2" stroke="none" stroke-width="1"/>
   <path d="M849,175 L830,168 V182 L849,175" fill="none" stroke="#000000" stroke-linecap="square" stroke-width="2"/>
   <circle cx="854" cy="175" fill="none" r="4.5" stroke="#000000" stroke-width="2"/>
   <circle cx="859" cy="175" fill="#000000" r="2" stroke="none" stroke-width="2"/>
   <circle cx="829" cy="175" fill="#000000" r="2" stroke="none" stroke-width="2"/>
   <path d="M139,185 L120,178 V192 L139,185" fill="none" stroke="#000000" stroke-linecap="square" stroke-width="2"/>
   <circle cx="144" cy="185" fill="none" r="4.5" stroke="#000000" stroke-width="2"/>
   <circle cx="149" cy="185" fill="#000000" r="2" stroke="none" stroke-width="2"/>
   <circle cx="119" cy="185" fill="#000000" r="2" stroke="none" stroke-width="2"/>
   <path d="M149,355 L130,348 V362 L149,355" fill="none" stroke="#000000" stroke-linecap="square" stroke-width="2"/>
   <circle cx="154" cy="355" fill="none" r="4.5" stroke="#000000" stroke-width="2"/>
   <circle cx="159" cy="355" fill="#000000" r="2" stroke="none" stroke-width="2"/>
   <circle cx="129" cy="355" fill="#000000" r="2" stroke="none" stroke-width="2"/>
   <path d="M169,155 H169" fill="none" stroke="#000000" stroke-linecap="square" stroke-width="3"/>
   <path d="M169,195 H169" fill="none" stroke="#000000" stroke-linecap="square" stroke-width="3"/>
   <path d="M219,175 Q199,150 169,150 Q182,175 169,200 Q199,200 219,175 Z" fill="none" stroke="#000000" stroke-linecap="square" stroke-width="2"/>
   <path d="M179,325 H179" fill="none" stroke="#000000" stroke-linecap="square" stroke-width="3"/>
   <path d="M179,365 H179" fill="none" stroke="#000000" stroke-linecap="square" stroke-width="3"/>
   <path d="M229,345 Q209,320 179,320 Q192,345 179,370 Q209,370 229,345 Z" fill="none" stroke="#000000" stroke-linecap="square" stroke-width="2"/>
   <path d="M939,140 L969,149 V161 L939,170 Z" fill="none" stroke="#000000" stroke-linecap="square" stroke-width="2"/>
   <text fill="#000000" font-family="sans-serif" font-size="12" x="946" y="161">Sel</text>
   <circle cx="969" cy="155" fill="#000000" r="2" stroke="none" stroke-width="2"/>
   <circle cx="939" cy="155" fill="#000000" r="2" stroke="none" stroke-width="2"/>
   <circle cx="959" cy="165" fill="#000000" r="2" stroke="none" stroke-width="2"/>
   <path d="M299,110 L329,119 V131 L299,140 Z" fill="none" stroke="#000000" stroke-linecap="square" stroke-width="2"/>
   <text fill="#000000" font-family="sans-serif" font-size="12" x="306" y="131">Sel</text>
   <circle cx="329" cy="125" fill="#000000" r="2" stroke="none" stroke-width="2"/>
   <circle cx="299" cy="125" fill="#000000" r="2" stroke="none" stroke-width="2"/>
   <circle cx="319" cy="135" fill="#000000" r="2" stroke="none" stroke-width="2"/>
   <path d="M309,280 L339,289 V301 L309,310 Z" fill="none" stroke="#000000" stroke-linecap="square" stroke-width="2"/>
   <text fill="#000000" font-family="sans-serif" font-size="12" x="316" y="301">Sel</text>
   <circle cx="339" cy="295" fill="#000000" r="2" stroke="none" stroke-width="2"/>
   <circle cx="309" cy="295" fill="#000000" r="2" stroke="none" stroke-width="2"/>
   <circle cx="329" cy="305" fill="#000000" r="2" stroke="none" stroke-width="2"/>
   <rect fill="#000000" height="4" stroke="none" stroke-linecap="square" stroke-width="1" width="10" x="459" y="203"/>
   <text fill="#404040" font-family="Dialog" font-size="12" x="474" y="209">A</text>
   <rect fill="#000000" height="4" stroke="none" stroke-linecap="square" stroke-width="1" width="10" x="459" y="223"/>
   <text fill="#404040" font-family="Dialog" font-size="12" x="474" y="229">B</text>
   <rect fill="#000000" height="4" stroke="none" stroke-linecap="square" stroke-width="1" width="10" x="669" y="203"/>
   <text fill="#404040" font-family="Dialog" font-size="12" x="658" y="209">S</text>
   <rect fill="#000000" height="20" stroke="none" stroke-linecap="square" stroke-width="1" width="200" x="469" y="235"/>
   <rect fill="none" height="60" stroke="#000000" stroke-linecap="square" stroke-width="2" width="200" x="469" y="195"/>
   <text fill="#FFFFFF" font-family="Dialog" font-size="14" font-weight="bold" x="509" y="249">OriginCode4Add</text>
   <circle cx="459" cy="205" fill="#000000" r="2" stroke="none" stroke-width="1"/>
   <circle cx="459" cy="225" fill="#000000" r="2" stroke="none" stroke-width="1"/>
   <circle cx="679" cy="205" fill="#000000" r="2" stroke="none" stroke-width="1"/>
</svg>
