<?xml version="1.0" encoding="UTF-8" standalone="no"?>
<svg xmlns="http://www.w3.org/2000/svg" height="522" version="1.1" viewBox="0 0 1390 522" width="1390">
   <path d="M1190,15 H1300" fill="none" stroke="#000000" stroke-linecap="square" stroke-width="4"/>
   <path d="M540,505 H840" fill="none" stroke="#000000" stroke-linecap="square" stroke-width="3"/>
   <path d="M860,305 H840 V505 H1150 V305 H1160" fill="none" stroke="#000000" stroke-linecap="square" stroke-width="3"/>
   <path d="M250,505 H540 V305 H560" fill="none" stroke="#000000" stroke-linecap="square" stroke-width="3"/>
   <path d="M530,455 V285 H560" fill="none" stroke="#000000" stroke-linecap="square" stroke-width="3"/>
   <path d="M830,455 V285 H860" fill="none" stroke="#000000" stroke-linecap="square" stroke-width="3"/>
   <path d="M1160,285 H1130 V455 H220" fill="none" stroke="#000000" stroke-linecap="square" stroke-width="3"/>
   <circle cx="830" cy="455" fill="#000000" r="5" stroke="none" stroke-width="3"/>
   <circle cx="540" cy="505" fill="#000000" r="5" stroke="none" stroke-width="3"/>
   <circle cx="220" cy="455" fill="#000000" r="5" stroke="none" stroke-width="3"/>
   <circle cx="530" cy="455" fill="#000000" r="5" stroke="none" stroke-width="3"/>
   <circle cx="840" cy="505" fill="#000000" r="5" stroke="none" stroke-width="3"/>
   <circle cx="250" cy="505" fill="#000000" r="5" stroke="none" stroke-width="3"/>
   <rect fill="#000000" height="3" stroke="none" stroke-linecap="square" stroke-width="1" width="10" x="860" y="264"/>
   <text fill="#404040" font-family="Dialog" font-size="12" x="875" y="269">D</text>
   <rect fill="#000000" height="3" stroke="none" stroke-linecap="square" stroke-width="1" width="10" x="860" y="284"/>
   <path d="M871,281 L878,285 L871,289" fill="none" stroke="#000000" stroke-linecap="square" stroke-width="2"/>
   <text fill="#404040" font-family="Dialog" font-size="12" x="883" y="289">Clk</text>
   <rect fill="#000000" height="3" stroke="none" stroke-linecap="square" stroke-width="1" width="10" x="860" y="304"/>
   <text fill="#404040" font-family="Dialog" font-size="12" x="875" y="309">EN</text>
   <rect fill="#000000" height="3" stroke="none" stroke-linecap="square" stroke-width="1" width="10" x="1070" y="264"/>
   <text fill="#404040" font-family="Dialog" font-size="12" x="1056" y="269">Q</text>
   <rect fill="#000000" height="20" stroke="none" stroke-linecap="square" stroke-width="1" width="200" x="870" y="315"/>
   <rect fill="none" height="80" stroke="#000000" stroke-linecap="square" stroke-width="2" width="200" x="870" y="255"/>
   <text fill="#FFFFFF" font-family="Dialog" font-size="14" font-weight="bold" x="930" y="329">DTriger_en</text>
   <circle cx="860" cy="265" fill="#000000" r="2" stroke="none" stroke-width="1"/>
   <circle cx="860" cy="285" fill="#000000" r="2" stroke="none" stroke-width="1"/>
   <circle cx="860" cy="305" fill="#000000" r="2" stroke="none" stroke-width="1"/>
   <circle cx="1080" cy="265" fill="#000000" r="2" stroke="none" stroke-width="1"/>
   <rect fill="#000000" height="3" stroke="none" stroke-linecap="square" stroke-width="1" width="10" x="270" y="264"/>
   <text fill="#404040" font-family="Dialog" font-size="12" x="285" y="269">D</text>
   <rect fill="#000000" height="3" stroke="none" stroke-linecap="square" stroke-width="1" width="10" x="270" y="284"/>
   <path d="M281,281 L288,285 L281,289" fill="none" stroke="#000000" stroke-linecap="square" stroke-width="2"/>
   <text fill="#404040" font-family="Dialog" font-size="12" x="293" y="289">Clk</text>
   <rect fill="#000000" height="3" stroke="none" stroke-linecap="square" stroke-width="1" width="10" x="270" y="304"/>
   <text fill="#404040" font-family="Dialog" font-size="12" x="285" y="309">EN</text>
   <rect fill="#000000" height="3" stroke="none" stroke-linecap="square" stroke-width="1" width="10" x="480" y="264"/>
   <text fill="#404040" font-family="Dialog" font-size="12" x="466" y="269">Q</text>
   <rect fill="#000000" height="20" stroke="none" stroke-linecap="square" stroke-width="1" width="200" x="280" y="315"/>
   <rect fill="none" height="80" stroke="#000000" stroke-linecap="square" stroke-width="2" width="200" x="280" y="255"/>
   <text fill="#FFFFFF" font-family="Dialog" font-size="14" font-weight="bold" x="340" y="329">DTriger_en</text>
   <circle cx="270" cy="265" fill="#000000" r="2" stroke="none" stroke-width="1"/>
   <circle cx="270" cy="285" fill="#000000" r="2" stroke="none" stroke-width="1"/>
   <circle cx="270" cy="305" fill="#000000" r="2" stroke="none" stroke-width="1"/>
   <circle cx="490" cy="265" fill="#000000" r="2" stroke="none" stroke-width="1"/>
   <rect fill="#000000" height="3" stroke="none" stroke-linecap="square" stroke-width="1" width="10" x="560" y="264"/>
   <text fill="#404040" font-family="Dialog" font-size="12" x="575" y="269">D</text>
   <rect fill="#000000" height="3" stroke="none" stroke-linecap="square" stroke-width="1" width="10" x="560" y="284"/>
   <path d="M571,281 L578,285 L571,289" fill="none" stroke="#000000" stroke-linecap="square" stroke-width="2"/>
   <text fill="#404040" font-family="Dialog" font-size="12" x="583" y="289">Clk</text>
   <rect fill="#000000" height="3" stroke="none" stroke-linecap="square" stroke-width="1" width="10" x="560" y="304"/>
   <text fill="#404040" font-family="Dialog" font-size="12" x="575" y="309">EN</text>
   <rect fill="#000000" height="3" stroke="none" stroke-linecap="square" stroke-width="1" width="10" x="770" y="264"/>
   <text fill="#404040" font-family="Dialog" font-size="12" x="756" y="269">Q</text>
   <rect fill="#000000" height="20" stroke="none" stroke-linecap="square" stroke-width="1" width="200" x="570" y="315"/>
   <rect fill="none" height="80" stroke="#000000" stroke-linecap="square" stroke-width="2" width="200" x="570" y="255"/>
   <text fill="#FFFFFF" font-family="Dialog" font-size="14" font-weight="bold" x="630" y="329">DTriger_en</text>
   <circle cx="560" cy="265" fill="#000000" r="2" stroke="none" stroke-width="1"/>
   <circle cx="560" cy="285" fill="#000000" r="2" stroke="none" stroke-width="1"/>
   <circle cx="560" cy="305" fill="#000000" r="2" stroke="none" stroke-width="1"/>
   <circle cx="780" cy="265" fill="#000000" r="2" stroke="none" stroke-width="1"/>
   <rect fill="#000000" height="3" stroke="none" stroke-linecap="square" stroke-width="1" width="10" x="1160" y="264"/>
   <text fill="#404040" font-family="Dialog" font-size="12" x="1175" y="269">D</text>
   <rect fill="#000000" height="3" stroke="none" stroke-linecap="square" stroke-width="1" width="10" x="1160" y="284"/>
   <path d="M1171,281 L1178,285 L1171,289" fill="none" stroke="#000000" stroke-linecap="square" stroke-width="2"/>
   <text fill="#404040" font-family="Dialog" font-size="12" x="1183" y="289">Clk</text>
   <rect fill="#000000" height="3" stroke="none" stroke-linecap="square" stroke-width="1" width="10" x="1160" y="304"/>
   <text fill="#404040" font-family="Dialog" font-size="12" x="1175" y="309">EN</text>
   <rect fill="#000000" height="3" stroke="none" stroke-linecap="square" stroke-width="1" width="10" x="1370" y="264"/>
   <text fill="#404040" font-family="Dialog" font-size="12" x="1356" y="269">Q</text>
   <rect fill="#000000" height="20" stroke="none" stroke-linecap="square" stroke-width="1" width="200" x="1170" y="315"/>
   <rect fill="none" height="80" stroke="#000000" stroke-linecap="square" stroke-width="2" width="200" x="1170" y="255"/>
   <text fill="#FFFFFF" font-family="Dialog" font-size="14" font-weight="bold" x="1230" y="329">DTriger_en</text>
   <circle cx="1160" cy="265" fill="#000000" r="2" stroke="none" stroke-width="1"/>
   <circle cx="1160" cy="285" fill="#000000" r="2" stroke="none" stroke-width="1"/>
   <circle cx="1160" cy="305" fill="#000000" r="2" stroke="none" stroke-width="1"/>
   <circle cx="1380" cy="265" fill="#000000" r="2" stroke="none" stroke-width="1"/>
   <path d="M95,455 H220 V285 H270" fill="none" stroke="#000000" stroke-linecap="square" stroke-width="3"/>
   <path d="M61,446 H85 L95,455 L85,464 H61 Z" fill="none" stroke="#000000" stroke-linecap="square" stroke-width="2"/>
   <text fill="#000000" font-family="monospace" font-size="12" x="66" y="461">x1</text>
   <text fill="#000000" font-family="sans-serif" font-size="16" font-weight="bold" x="32" y="463">Clk</text>
   <circle cx="100" cy="455" fill="#000000" r="2" stroke="none" stroke-width="2"/>
   <path d="M95,505 H250 V305 H270" fill="none" stroke="#000000" stroke-linecap="square" stroke-width="3"/>
   <path d="M61,496 H85 L95,505 L85,514 H61 Z" fill="none" stroke="#000000" stroke-linecap="square" stroke-width="2"/>
   <text fill="#000000" font-family="monospace" font-size="12" x="66" y="511">x1</text>
   <text fill="#000000" font-family="sans-serif" font-size="16" font-weight="bold" x="36" y="513">EN</text>
   <circle cx="100" cy="505" fill="#000000" r="2" stroke="none" stroke-width="2"/>
   <path d="M87,205 H110 V195" fill="none" stroke="#000000" stroke-linecap="square" stroke-width="4"/>
   <path d="M21,196 H75 L85,205 L75,214 H21 Z" fill="none" stroke="#000000" stroke-linecap="square" stroke-width="2"/>
   <text fill="#000000" font-family="monospace" font-size="12" x="41" y="211">x4</text>
   <text fill="#000000" font-family="sans-serif" font-size="16" font-weight="bold" x="5" y="213">D</text>
   <circle cx="90" cy="205" fill="#000000" r="2" stroke="none" stroke-width="2"/>
   <path d="M270,265 H240 V155 H116" fill="none" stroke="#000000" stroke-linecap="square" stroke-width="3"/>
   <path d="M560,265 H550 V165 H116" fill="none" stroke="#000000" stroke-linecap="square" stroke-width="3"/>
   <path d="M860,265 H840 V175 H116" fill="none" stroke="#000000" stroke-linecap="square" stroke-width="3"/>
   <path d="M1160,265 H1150 V185 H116" fill="none" stroke="#000000" stroke-linecap="square" stroke-width="3"/>
   <path d="M116,156 V189 L111,194" fill="none" stroke="#000000" stroke-linecap="square" stroke-width="5"/>
   <text fill="#000000" font-family="sans-serif" font-size="7" x="119" y="162">0</text>
   <text fill="#000000" font-family="sans-serif" font-size="7" x="119" y="172">1</text>
   <text fill="#000000" font-family="sans-serif" font-size="7" x="119" y="182">2</text>
   <text fill="#000000" font-family="sans-serif" font-size="7" x="119" y="192">3</text>
   <circle cx="110" cy="195" fill="#000000" r="2" stroke="none" stroke-width="5"/>
   <circle cx="130" cy="155" fill="#000000" r="2" stroke="none" stroke-width="5"/>
   <circle cx="130" cy="165" fill="#000000" r="2" stroke="none" stroke-width="5"/>
   <circle cx="130" cy="175" fill="#000000" r="2" stroke="none" stroke-width="5"/>
   <circle cx="130" cy="185" fill="#000000" r="2" stroke="none" stroke-width="5"/>
   <path d="M1304,15 H1303" fill="none" stroke="#000000" stroke-linecap="square" stroke-width="4"/>
   <path d="M1306,6 H1360 L1370,15 L1360,24 H1306 Z" fill="none" stroke="#000000" stroke-linecap="square" stroke-width="2"/>
   <text fill="#000000" font-family="monospace" font-size="12" x="1321" y="21">x4</text>
   <text fill="#000000" font-family="sans-serif" font-size="16" font-weight="bold" x="1372" y="23">Q</text>
   <circle cx="1300" cy="15" fill="#000000" r="2" stroke="none" stroke-width="2"/>
   <path d="M490,265 V25 H1184" fill="none" stroke="#000000" stroke-linecap="square" stroke-width="3"/>
   <path d="M780,265 V35 H1184" fill="none" stroke="#000000" stroke-linecap="square" stroke-width="3"/>
   <path d="M1080,265 H1110 V45 H1184" fill="none" stroke="#000000" stroke-linecap="square" stroke-width="3"/>
   <path d="M1380,265 V115 H1150 V55 H1184" fill="none" stroke="#000000" stroke-linecap="square" stroke-width="3"/>
   <path d="M1184,54 V21 L1189,16" fill="none" stroke="#000000" stroke-linecap="square" stroke-width="5"/>
   <text fill="#000000" font-family="sans-serif" font-size="7" x="1177" y="22">0</text>
   <text fill="#000000" font-family="sans-serif" font-size="7" x="1177" y="32">1</text>
   <text fill="#000000" font-family="sans-serif" font-size="7" x="1177" y="42">2</text>
   <text fill="#000000" font-family="sans-serif" font-size="7" x="1177" y="52">3</text>
   <circle cx="1190" cy="15" fill="#000000" r="2" stroke="none" stroke-width="5"/>
   <circle cx="1170" cy="25" fill="#000000" r="2" stroke="none" stroke-width="5"/>
   <circle cx="1170" cy="35" fill="#000000" r="2" stroke="none" stroke-width="5"/>
   <circle cx="1170" cy="45" fill="#000000" r="2" stroke="none" stroke-width="5"/>
   <circle cx="1170" cy="55" fill="#000000" r="2" stroke="none" stroke-width="5"/>
</svg>
