<?xml version="1.0" encoding="UTF-8" standalone="no"?>
<svg xmlns="http://www.w3.org/2000/svg" height="352" version="1.1" viewBox="0 0 711 352" width="711">
   <path d="M73,175 H133" fill="none" stroke="#000000" stroke-linecap="square" stroke-width="3"/>
   <path d="M73,55 H143" fill="none" stroke="#000000" stroke-linecap="square" stroke-width="4"/>
   <path d="M193,155 H323 V235 H413" fill="none" stroke="#000000" stroke-linecap="square" stroke-width="4"/>
   <path d="M143,35 H83 V5 H583 V245 H613" fill="none" stroke="#000000" stroke-linecap="square" stroke-width="4"/>
   <path d="M443,245 H583" fill="none" stroke="#000000" stroke-linecap="square" stroke-width="4"/>
   <path d="M183,45 H233 V95 H93 V155 H133" fill="none" stroke="#000000" stroke-linecap="square" stroke-width="4"/>
   <circle cx="583" cy="245" fill="#000000" r="6" stroke="none" stroke-width="4"/>
   <path d="M183,150 H188 V210 H148 V205" fill="none" stroke="#000000" stroke-linecap="square" stroke-width="2"/>
   <path d="M188,155 H193 V215 H153 V210" fill="none" stroke="#000000" stroke-linecap="square" stroke-width="2"/>
   <path d="M133,155 H141" fill="none" stroke="#000000" stroke-linecap="square" stroke-width="5"/>
   <path d="M185,155 H193" fill="none" stroke="#000000" stroke-linecap="square" stroke-width="5"/>
   <rect fill="none" height="60" stroke="#000000" stroke-linecap="square" stroke-width="2" width="40" x="143" y="145"/>
   <text fill="#000000" font-family="sans-serif" font-size="12" x="147" y="159">D</text>
   <text fill="#000000" font-family="sans-serif" font-size="12" x="170" y="159">Q</text>
   <path d="M163,206 V215" fill="none" stroke="#000000" stroke-linecap="square" stroke-width="2"/>
   <text fill="#999999" font-family="sans-serif" font-size="12" x="159" y="199">R</text>
   <text fill="#000000" font-family="sans-serif" font-size="12" x="147" y="179">WE</text>
   <path d="M133,175 H142" fill="none" stroke="#000000" stroke-linecap="square" stroke-width="2"/>
   <path d="M144,191 L151,195 L144,199" fill="none" stroke="#000000" stroke-linecap="square" stroke-width="2"/>
   <path d="M133,195 H142" fill="none" stroke="#000000" stroke-linecap="square" stroke-width="2"/>
   <circle cx="133" cy="155" fill="#000000" r="2" stroke="none" stroke-width="1"/>
   <circle cx="193" cy="155" fill="#000000" r="2" stroke="none" stroke-width="1"/>
   <circle cx="163" cy="215" fill="#000000" r="2" stroke="none" stroke-width="1"/>
   <circle cx="133" cy="175" fill="#000000" r="2" stroke="none" stroke-width="1"/>
   <circle cx="133" cy="195" fill="#000000" r="2" stroke="none" stroke-width="1"/>
   <path d="M68,195 H133" fill="none" stroke="#000000" stroke-linecap="square" stroke-width="3"/>
   <path d="M34,186 H58 L68,195 L58,204 H34 Z" fill="none" stroke="#000000" stroke-linecap="square" stroke-width="2"/>
   <text fill="#000000" font-family="monospace" font-size="12" x="39" y="201">x1</text>
   <text fill="#000000" font-family="sans-serif" font-size="16" font-weight="bold" x="5" y="203">Clk</text>
   <circle cx="73" cy="195" fill="#000000" r="2" stroke="none" stroke-width="2"/>
   <text fill="#000000" font-family="monospace" font-size="12" x="63" y="179">1</text>
   <circle cx="73" cy="175" fill="#000000" r="2" stroke="none" stroke-width="1"/>
   <text fill="#000000" font-family="monospace" font-size="12" x="63" y="59">1</text>
   <circle cx="73" cy="55" fill="#000000" r="2" stroke="none" stroke-width="1"/>
   <rect fill="none" height="40" stroke="#000000" stroke-linecap="square" stroke-width="2" width="40" x="143" y="25"/>
   <circle cx="143" cy="35" fill="#000000" r="2" stroke="none" stroke-width="1"/>
   <circle cx="143" cy="55" fill="#000000" r="2" stroke="none" stroke-width="1"/>
   <circle cx="183" cy="45" fill="#000000" r="2" stroke="none" stroke-width="1"/>
   <circle cx="163" cy="25" fill="#000000" r="2" stroke="none" stroke-width="1"/>
   <text fill="#999999" font-family="sans-serif" font-size="12" x="153" y="40">c in</text>
   <circle cx="163" cy="65" fill="#000000" r="2" stroke="none" stroke-width="1"/>
   <text fill="#999999" font-family="sans-serif" font-size="12" x="149" y="62">c out</text>
   <path d="M168,45 H178" fill="none" stroke="#000000" stroke-linecap="square" stroke-width="2"/>
   <path d="M173,40 V50" fill="none" stroke="#000000" stroke-linecap="square" stroke-width="2"/>
   <path d="M617,245 H616" fill="none" stroke="#000000" stroke-linecap="square" stroke-width="4"/>
   <path d="M619,236 H673 L683,245 L673,254 H619 Z" fill="none" stroke="#000000" stroke-linecap="square" stroke-width="2"/>
   <text fill="#000000" font-family="monospace" font-size="12" x="634" y="251">x4</text>
   <text fill="#000000" font-family="sans-serif" font-size="16" font-weight="bold" x="685" y="253">PC</text>
   <circle cx="613" cy="245" fill="#000000" r="2" stroke="none" stroke-width="2"/>
   <circle cx="423" cy="255" fill="#C0C0C0" r="3" stroke="none" stroke-width="1"/>
   <text fill="#808080" font-family="sans-serif" font-size="12" x="416" y="240">0</text>
   <path d="M413,225 L443,235 V255 L413,265 Z" fill="none" stroke="#000000" stroke-linecap="square" stroke-width="2"/>
   <text fill="#000000" font-family="sans-serif" font-size="12" x="415" y="251">MUX</text>
   <circle cx="413" cy="235" fill="#000000" r="2" stroke="none" stroke-width="2"/>
   <circle cx="413" cy="255" fill="#000000" r="2" stroke="none" stroke-width="2"/>
   <circle cx="423" cy="265" fill="#000000" r="2" stroke="none" stroke-width="2"/>
   <circle cx="443" cy="245" fill="#000000" r="2" stroke="none" stroke-width="2"/>
   <path d="M388,335 H423 V261" fill="none" stroke="#000000" stroke-linecap="square" stroke-width="3"/>
   <path d="M354,326 H378 L388,335 L378,344 H354 Z" fill="none" stroke="#000000" stroke-linecap="square" stroke-width="2"/>
   <text fill="#000000" font-family="monospace" font-size="12" x="359" y="341">x1</text>
   <text fill="#000000" font-family="sans-serif" font-size="16" font-weight="bold" x="319" y="343">jmp</text>
   <circle cx="393" cy="335" fill="#000000" r="2" stroke="none" stroke-width="2"/>
   <path d="M370,255 H413" fill="none" stroke="#000000" stroke-linecap="square" stroke-width="4"/>
   <path d="M304,246 H358 L368,255 L358,264 H304 Z" fill="none" stroke="#000000" stroke-linecap="square" stroke-width="2"/>
   <text fill="#000000" font-family="monospace" font-size="12" x="324" y="261">x4</text>
   <text fill="#000000" font-family="sans-serif" font-size="16" font-weight="bold" x="258" y="263">jaddr</text>
   <circle cx="373" cy="255" fill="#000000" r="2" stroke="none" stroke-width="2"/>
</svg>
