<?xml version="1.0" encoding="UTF-8" standalone="no"?>
<svg xmlns="http://www.w3.org/2000/svg" height="102" version="1.1" viewBox="0 0 426 102" width="426">
   <path d="M202,65 H262" fill="none" stroke="#000000" stroke-linecap="square" stroke-width="4"/>
   <path d="M262,25 H272" fill="none" stroke="#000000" stroke-linecap="square" stroke-width="4"/>
   <path d="M202,55 H212 V25 H222" fill="none" stroke="#000000" stroke-linecap="square" stroke-width="4"/>
   <path d="M139,85 H182" fill="none" stroke="#000000" stroke-linecap="square" stroke-width="4"/>
   <path d="M33,76 H127 L137,85 L127,94 H33 Z" fill="none" stroke="#000000" stroke-linecap="square" stroke-width="2"/>
   <text fill="#000000" font-family="monospace" font-size="12" x="73" y="91">x8</text>
   <text fill="#000000" font-family="sans-serif" font-size="16" font-weight="bold" x="5" y="93">ins</text>
   <circle cx="142" cy="85" fill="#000000" r="2" stroke="none" stroke-width="2"/>
   <path d="M202,55 H188" fill="none" stroke="#000000" stroke-linecap="square" stroke-width="3"/>
   <path d="M202,65 H188" fill="none" stroke="#000000" stroke-linecap="square" stroke-width="3"/>
   <path d="M202,75 H188" fill="none" stroke="#000000" stroke-linecap="square" stroke-width="3"/>
   <path d="M188,56 V79 L183,84" fill="none" stroke="#000000" stroke-linecap="square" stroke-width="5"/>
   <text fill="#000000" font-family="sans-serif" font-size="7" x="191" y="62">3-0</text>
   <text fill="#000000" font-family="sans-serif" font-size="7" x="191" y="72">5-4</text>
   <text fill="#000000" font-family="sans-serif" font-size="7" x="191" y="82">7-6</text>
   <circle cx="182" cy="85" fill="#000000" r="2" stroke="none" stroke-width="5"/>
   <circle cx="202" cy="55" fill="#000000" r="2" stroke="none" stroke-width="5"/>
   <circle cx="202" cy="65" fill="#000000" r="2" stroke="none" stroke-width="5"/>
   <circle cx="202" cy="75" fill="#000000" r="2" stroke="none" stroke-width="5"/>
   <path d="M266,65 H265" fill="none" stroke="#000000" stroke-linecap="square" stroke-width="4"/>
   <path d="M268,56 H302 L312,65 L302,74 H268 Z" fill="none" stroke="#000000" stroke-linecap="square" stroke-width="2"/>
   <text fill="#000000" font-family="monospace" font-size="12" x="273" y="71">x2</text>
   <text fill="#000000" font-family="sans-serif" font-size="16" font-weight="bold" x="314" y="73">rd</text>
   <circle cx="262" cy="65" fill="#000000" r="2" stroke="none" stroke-width="2"/>
   <path d="M276,25 H275" fill="none" stroke="#000000" stroke-linecap="square" stroke-width="4"/>
   <path d="M278,16 H372 L382,25 L372,34 H278 Z" fill="none" stroke="#000000" stroke-linecap="square" stroke-width="2"/>
   <text fill="#000000" font-family="monospace" font-size="12" x="313" y="31">x8</text>
   <text fill="#000000" font-family="sans-serif" font-size="16" font-weight="bold" x="384" y="33">imm</text>
   <circle cx="272" cy="25" fill="#000000" r="2" stroke="none" stroke-width="2"/>
   <rect fill="none" height="40" stroke="#000000" stroke-linecap="square" stroke-width="2" width="40" x="222" y="5"/>
   <text fill="#000000" font-family="sans-serif" font-size="12" x="238" y="21">0</text>
   <text fill="#000000" font-family="sans-serif" font-size="12" x="222" y="41">extend</text>
   <circle cx="262" cy="25" fill="#000000" r="2" stroke="none" stroke-width="1"/>
   <text fill="#000000" font-family="sans-serif" font-size="12" x="251" y="31">8</text>
   <circle cx="222" cy="25" fill="#000000" r="2" stroke="none" stroke-width="1"/>
   <text fill="#000000" font-family="sans-serif" font-size="12" x="225" y="31">4</text>
</svg>
