<?xml version="1.0" encoding="UTF-8" standalone="no"?>
<svg xmlns="http://www.w3.org/2000/svg" height="681" version="1.1" viewBox="0 0 1080 681" width="1080">
   <path d="M465,115 H515" fill="none" stroke="#000000" stroke-linecap="square" stroke-width="4"/>
   <path d="M465,55 H515" fill="none" stroke="#000000" stroke-linecap="square" stroke-width="4"/>
   <path d="M465,75 H515" fill="none" stroke="#000000" stroke-linecap="square" stroke-width="4"/>
   <path d="M465,95 H515" fill="none" stroke="#000000" stroke-linecap="square" stroke-width="4"/>
   <path d="M465,135 H515" fill="none" stroke="#000000" stroke-linecap="square" stroke-width="4"/>
   <path d="M465,155 H515" fill="none" stroke="#000000" stroke-linecap="square" stroke-width="4"/>
   <path d="M465,175 H515" fill="none" stroke="#000000" stroke-linecap="square" stroke-width="4"/>
   <path d="M465,195 H515" fill="none" stroke="#000000" stroke-linecap="square" stroke-width="4"/>
   <path d="M735,535 H965" fill="none" stroke="#000000" stroke-linecap="square" stroke-width="3"/>
   <path d="M735,495 H965" fill="none" stroke="#000000" stroke-linecap="square" stroke-width="3"/>
   <path d="M735,515 H965" fill="none" stroke="#000000" stroke-linecap="square" stroke-width="3"/>
   <path d="M735,555 H965" fill="none" stroke="#000000" stroke-linecap="square" stroke-width="3"/>
   <path d="M735,575 H965" fill="none" stroke="#000000" stroke-linecap="square" stroke-width="3"/>
   <path d="M775,45 H795 V125 H735 V145 H775" fill="none" stroke="#000000" stroke-linecap="square" stroke-width="4"/>
   <path d="M775,25 H925" fill="none" stroke="#000000" stroke-linecap="square" stroke-width="4"/>
   <path d="M735,55 H755" fill="none" stroke="#000000" stroke-linecap="square" stroke-width="4"/>
   <path d="M515,215 H345 V315 H375" fill="none" stroke="#000000" stroke-linecap="square" stroke-width="4"/>
   <path d="M315,215 H345" fill="none" stroke="#000000" stroke-linecap="square" stroke-width="4"/>
   <path d="M745,165 H775" fill="none" stroke="#000000" stroke-linecap="square" stroke-width="4"/>
   <path d="M815,155 H845 V625 H485 V535 H515" fill="none" stroke="#000000" stroke-linecap="square" stroke-width="3"/>
   <path d="M965,25 H1055 V435 H465 V495 H515" fill="none" stroke="#000000" stroke-linecap="square" stroke-width="4"/>
   <path d="M95,215 H65 V515 H515" fill="none" stroke="#000000" stroke-linecap="square" stroke-width="3"/>
   <path d="M515,555 H465 V675 H875 V85 H915" fill="none" stroke="#000000" stroke-linecap="square" stroke-width="4"/>
   <path d="M775,35 H875 V85" fill="none" stroke="#000000" stroke-linecap="square" stroke-width="4"/>
   <circle cx="875" cy="85" fill="#000000" r="6" stroke="none" stroke-width="4"/>
   <circle cx="345" cy="215" fill="#000000" r="6" stroke="none" stroke-width="4"/>
   <circle cx="65" cy="215" fill="#000000" r="5" stroke="none" stroke-width="4"/>
   <rect fill="#000000" height="4" stroke="none" stroke-linecap="square" stroke-width="1" width="10" x="515" y="53"/>
   <text fill="#404040" font-family="Dialog" font-size="12" x="530" y="59">Addr0</text>
   <rect fill="#000000" height="4" stroke="none" stroke-linecap="square" stroke-width="1" width="10" x="515" y="73"/>
   <text fill="#404040" font-family="Dialog" font-size="12" x="530" y="79">Addr1</text>
   <rect fill="#000000" height="4" stroke="none" stroke-linecap="square" stroke-width="1" width="10" x="515" y="93"/>
   <text fill="#404040" font-family="Dialog" font-size="12" x="530" y="99">Addr2</text>
   <rect fill="#000000" height="4" stroke="none" stroke-linecap="square" stroke-width="1" width="10" x="515" y="113"/>
   <text fill="#404040" font-family="Dialog" font-size="12" x="530" y="119">Addr3</text>
   <rect fill="#000000" height="4" stroke="none" stroke-linecap="square" stroke-width="1" width="10" x="515" y="133"/>
   <text fill="#404040" font-family="Dialog" font-size="12" x="530" y="139">Addr4</text>
   <rect fill="#000000" height="4" stroke="none" stroke-linecap="square" stroke-width="1" width="10" x="515" y="153"/>
   <text fill="#404040" font-family="Dialog" font-size="12" x="530" y="159">Addr5</text>
   <rect fill="#000000" height="4" stroke="none" stroke-linecap="square" stroke-width="1" width="10" x="515" y="173"/>
   <text fill="#404040" font-family="Dialog" font-size="12" x="530" y="179">Addr6</text>
   <rect fill="#000000" height="4" stroke="none" stroke-linecap="square" stroke-width="1" width="10" x="515" y="193"/>
   <text fill="#404040" font-family="Dialog" font-size="12" x="530" y="199">Addr7</text>
   <rect fill="#000000" height="4" stroke="none" stroke-linecap="square" stroke-width="1" width="10" x="515" y="213"/>
   <text fill="#404040" font-family="Dialog" font-size="12" x="530" y="219">Addr</text>
   <rect fill="#000000" height="4" stroke="none" stroke-linecap="square" stroke-width="1" width="10" x="515" y="233"/>
   <text fill="#404040" font-family="Dialog" font-size="12" x="530" y="239">Addr8</text>
   <rect fill="#000000" height="4" stroke="none" stroke-linecap="square" stroke-width="1" width="10" x="515" y="253"/>
   <text fill="#404040" font-family="Dialog" font-size="12" x="530" y="259">Addr9</text>
   <rect fill="#000000" height="4" stroke="none" stroke-linecap="square" stroke-width="1" width="10" x="515" y="273"/>
   <text fill="#404040" font-family="Dialog" font-size="12" x="530" y="279">Addr10</text>
   <rect fill="#000000" height="4" stroke="none" stroke-linecap="square" stroke-width="1" width="10" x="515" y="293"/>
   <text fill="#404040" font-family="Dialog" font-size="12" x="530" y="299">Addr11</text>
   <rect fill="#000000" height="4" stroke="none" stroke-linecap="square" stroke-width="1" width="10" x="515" y="313"/>
   <text fill="#404040" font-family="Dialog" font-size="12" x="530" y="319">Addr12</text>
   <rect fill="#000000" height="4" stroke="none" stroke-linecap="square" stroke-width="1" width="10" x="515" y="333"/>
   <text fill="#404040" font-family="Dialog" font-size="12" x="530" y="339">Addr13</text>
   <rect fill="#000000" height="4" stroke="none" stroke-linecap="square" stroke-width="1" width="10" x="515" y="353"/>
   <text fill="#404040" font-family="Dialog" font-size="12" x="530" y="359">Addr14</text>
   <rect fill="#000000" height="4" stroke="none" stroke-linecap="square" stroke-width="1" width="10" x="515" y="373"/>
   <text fill="#404040" font-family="Dialog" font-size="12" x="530" y="379">Addr15</text>
   <rect fill="#000000" height="4" stroke="none" stroke-linecap="square" stroke-width="1" width="10" x="725" y="53"/>
   <text fill="#404040" font-family="Dialog" font-size="12" x="711" y="59">Q</text>
   <rect fill="#000000" height="20" stroke="none" stroke-linecap="square" stroke-width="1" width="200" x="525" y="385"/>
   <rect fill="none" height="360" stroke="#000000" stroke-linecap="square" stroke-width="2" width="200" x="525" y="45"/>
   <text fill="#FFFFFF" font-family="Dialog" font-size="14" font-weight="bold" x="587" y="399">sCpu_Rom</text>
   <text fill="#000000" font-family="sans-serif" font-size="16" font-weight="bold" x="607" y="42">Rom</text>
   <circle cx="515" cy="55" fill="#000000" r="2" stroke="none" stroke-width="1"/>
   <circle cx="515" cy="75" fill="#000000" r="2" stroke="none" stroke-width="1"/>
   <circle cx="515" cy="95" fill="#000000" r="2" stroke="none" stroke-width="1"/>
   <circle cx="515" cy="115" fill="#000000" r="2" stroke="none" stroke-width="1"/>
   <circle cx="515" cy="135" fill="#000000" r="2" stroke="none" stroke-width="1"/>
   <circle cx="515" cy="155" fill="#000000" r="2" stroke="none" stroke-width="1"/>
   <circle cx="515" cy="175" fill="#000000" r="2" stroke="none" stroke-width="1"/>
   <circle cx="515" cy="195" fill="#000000" r="2" stroke="none" stroke-width="1"/>
   <circle cx="515" cy="215" fill="#000000" r="2" stroke="none" stroke-width="1"/>
   <circle cx="515" cy="235" fill="#000000" r="2" stroke="none" stroke-width="1"/>
   <circle cx="515" cy="255" fill="#000000" r="2" stroke="none" stroke-width="1"/>
   <circle cx="515" cy="275" fill="#000000" r="2" stroke="none" stroke-width="1"/>
   <circle cx="515" cy="295" fill="#000000" r="2" stroke="none" stroke-width="1"/>
   <circle cx="515" cy="315" fill="#000000" r="2" stroke="none" stroke-width="1"/>
   <circle cx="515" cy="335" fill="#000000" r="2" stroke="none" stroke-width="1"/>
   <circle cx="515" cy="355" fill="#000000" r="2" stroke="none" stroke-width="1"/>
   <circle cx="515" cy="375" fill="#000000" r="2" stroke="none" stroke-width="1"/>
   <circle cx="735" cy="55" fill="#000000" r="2" stroke="none" stroke-width="1"/>
   <rect fill="#000000" height="3" stroke="none" stroke-linecap="square" stroke-width="1" width="10" x="95" y="214"/>
   <path d="M106,211 L113,215 L106,219" fill="none" stroke="#000000" stroke-linecap="square" stroke-width="2"/>
   <text fill="#404040" font-family="Dialog" font-size="12" x="118" y="219">Clk</text>
   <rect fill="#000000" height="4" stroke="none" stroke-linecap="square" stroke-width="1" width="10" x="305" y="213"/>
   <text fill="#404040" font-family="Dialog" font-size="12" x="285" y="219">PC</text>
   <rect fill="#000000" height="20" stroke="none" stroke-linecap="square" stroke-width="1" width="200" x="105" y="225"/>
   <rect fill="none" height="40" stroke="#000000" stroke-linecap="square" stroke-width="2" width="200" x="105" y="205"/>
   <text fill="#FFFFFF" font-family="Dialog" font-size="14" font-weight="bold" x="177" y="239">scpu_pc</text>
   <circle cx="95" cy="215" fill="#000000" r="2" stroke="none" stroke-width="1"/>
   <circle cx="315" cy="215" fill="#000000" r="2" stroke="none" stroke-width="1"/>
   <path d="M40,215 H65" fill="none" stroke="#000000" stroke-linecap="square" stroke-width="3"/>
   <path d="M5,205 H30 L40,215 L30,225 H5 Z" fill="none" stroke="#000000" stroke-linecap="square" stroke-width="2"/>
   <path d="M9,215 V211 H15 V219 H21 V215" fill="none" stroke="#000000" stroke-linecap="square" stroke-width="2"/>
   <circle cx="45" cy="215" fill="#000000" r="2" stroke="none" stroke-width="2"/>
   <rect fill="#000000" height="4" stroke="none" stroke-linecap="square" stroke-width="1" width="10" x="515" y="493"/>
   <text fill="#404040" font-family="Dialog" font-size="12" x="530" y="499">Data</text>
   <rect fill="#000000" height="3" stroke="none" stroke-linecap="square" stroke-width="1" width="10" x="515" y="514"/>
   <path d="M526,511 L533,515 L526,519" fill="none" stroke="#000000" stroke-linecap="square" stroke-width="2"/>
   <text fill="#404040" font-family="Dialog" font-size="12" x="538" y="519">Clk</text>
   <rect fill="#000000" height="3" stroke="none" stroke-linecap="square" stroke-width="1" width="10" x="515" y="534"/>
   <text fill="#404040" font-family="Dialog" font-size="12" x="530" y="539">En</text>
   <rect fill="#000000" height="4" stroke="none" stroke-linecap="square" stroke-width="1" width="10" x="515" y="553"/>
   <text fill="#404040" font-family="Dialog" font-size="12" x="530" y="559">rIndex</text>
   <rect fill="#000000" height="4" stroke="none" stroke-linecap="square" stroke-width="1" width="10" x="725" y="493"/>
   <text fill="#404040" font-family="Dialog" font-size="12" x="704" y="499">R0</text>
   <rect fill="#000000" height="4" stroke="none" stroke-linecap="square" stroke-width="1" width="10" x="725" y="513"/>
   <text fill="#404040" font-family="Dialog" font-size="12" x="704" y="519">R1</text>
   <rect fill="#000000" height="4" stroke="none" stroke-linecap="square" stroke-width="1" width="10" x="725" y="533"/>
   <text fill="#404040" font-family="Dialog" font-size="12" x="711" y="539">Q</text>
   <rect fill="#000000" height="4" stroke="none" stroke-linecap="square" stroke-width="1" width="10" x="725" y="553"/>
   <text fill="#404040" font-family="Dialog" font-size="12" x="704" y="559">R2</text>
   <rect fill="#000000" height="4" stroke="none" stroke-linecap="square" stroke-width="1" width="10" x="725" y="573"/>
   <text fill="#404040" font-family="Dialog" font-size="12" x="704" y="579">R3</text>
   <rect fill="#000000" height="20" stroke="none" stroke-linecap="square" stroke-width="1" width="200" x="525" y="585"/>
   <rect fill="none" height="120" stroke="#000000" stroke-linecap="square" stroke-width="2" width="200" x="525" y="485"/>
   <text fill="#FFFFFF" font-family="Dialog" font-size="14" font-weight="bold" x="591" y="599">sCpu_gpr</text>
   <circle cx="515" cy="495" fill="#000000" r="2" stroke="none" stroke-width="1"/>
   <circle cx="515" cy="515" fill="#000000" r="2" stroke="none" stroke-width="1"/>
   <circle cx="515" cy="535" fill="#000000" r="2" stroke="none" stroke-width="1"/>
   <circle cx="515" cy="555" fill="#000000" r="2" stroke="none" stroke-width="1"/>
   <circle cx="735" cy="495" fill="#000000" r="2" stroke="none" stroke-width="1"/>
   <circle cx="735" cy="515" fill="#000000" r="2" stroke="none" stroke-width="1"/>
   <circle cx="735" cy="535" fill="#000000" r="2" stroke="none" stroke-width="1"/>
   <circle cx="735" cy="555" fill="#000000" r="2" stroke="none" stroke-width="1"/>
   <circle cx="735" cy="575" fill="#000000" r="2" stroke="none" stroke-width="1"/>
   <path d="M775,25 H761" fill="none" stroke="#000000" stroke-linecap="square" stroke-width="3"/>
   <path d="M775,35 H761" fill="none" stroke="#000000" stroke-linecap="square" stroke-width="3"/>
   <path d="M775,45 H761" fill="none" stroke="#000000" stroke-linecap="square" stroke-width="3"/>
   <path d="M761,26 V49 L756,54" fill="none" stroke="#000000" stroke-linecap="square" stroke-width="5"/>
   <text fill="#000000" font-family="sans-serif" font-size="7" x="764" y="32">3-0</text>
   <text fill="#000000" font-family="sans-serif" font-size="7" x="764" y="42">5-4</text>
   <text fill="#000000" font-family="sans-serif" font-size="7" x="764" y="52">7-6</text>
   <circle cx="755" cy="55" fill="#000000" r="2" stroke="none" stroke-width="5"/>
   <circle cx="775" cy="25" fill="#000000" r="2" stroke="none" stroke-width="5"/>
   <circle cx="775" cy="35" fill="#000000" r="2" stroke="none" stroke-width="5"/>
   <circle cx="775" cy="45" fill="#000000" r="2" stroke="none" stroke-width="5"/>
   <rect fill="none" height="40" stroke="#000000" stroke-linecap="square" stroke-width="2" width="40" x="775" y="135"/>
   <circle cx="775" cy="145" fill="#000000" r="2" stroke="none" stroke-width="1"/>
   <circle cx="775" cy="165" fill="#000000" r="2" stroke="none" stroke-width="1"/>
   <circle cx="815" cy="145" fill="#000000" r="2" stroke="none" stroke-width="1"/>
   <text fill="#000000" font-family="sans-serif" font-size="12" x="802" y="151">&gt;</text>
   <circle cx="815" cy="155" fill="#000000" r="2" stroke="none" stroke-width="1"/>
   <text fill="#000000" font-family="sans-serif" font-size="12" x="802" y="161">=</text>
   <circle cx="815" cy="165" fill="#000000" r="2" stroke="none" stroke-width="1"/>
   <text fill="#000000" font-family="sans-serif" font-size="12" x="802" y="171">&lt;</text>
   <text fill="#000000" font-family="monospace" font-size="12" x="735" y="169">2</text>
   <circle cx="745" cy="165" fill="#000000" r="2" stroke="none" stroke-width="1"/>
   <rect fill="#FFF099" height="18" rx="10" ry="9" stroke="none" stroke-linecap="square" stroke-width="1" width="108" x="966" y="526"/>
   <rect fill="none" height="18" rx="10" ry="9" stroke="#C0C0C0" stroke-linecap="square" stroke-width="1" width="108" x="966" y="526"/>
   <text fill="#404040" font-family="sans-serif" font-size="12" x="1013" y="541">x8</text>
   <circle cx="965" cy="535" fill="#000000" r="2" stroke="none" stroke-width="1"/>
   <rect fill="none" height="40" stroke="#000000" stroke-linecap="square" stroke-width="2" width="40" x="925" y="5"/>
   <text fill="#000000" font-family="sans-serif" font-size="12" x="941" y="21">0</text>
   <text fill="#000000" font-family="sans-serif" font-size="12" x="925" y="41">extend</text>
   <circle cx="965" cy="25" fill="#000000" r="2" stroke="none" stroke-width="1"/>
   <text fill="#000000" font-family="sans-serif" font-size="12" x="954" y="31">8</text>
   <circle cx="925" cy="25" fill="#000000" r="2" stroke="none" stroke-width="1"/>
   <text fill="#000000" font-family="sans-serif" font-size="12" x="928" y="31">4</text>
   <text fill="#000000" font-family="monospace" font-size="12" x="447" y="59">81</text>
   <circle cx="465" cy="55" fill="#000000" r="2" stroke="none" stroke-width="1"/>
   <text fill="#000000" font-family="monospace" font-size="12" x="447" y="79">92</text>
   <circle cx="465" cy="75" fill="#000000" r="2" stroke="none" stroke-width="1"/>
   <text fill="#000000" font-family="monospace" font-size="12" x="447" y="99">a3</text>
   <circle cx="465" cy="95" fill="#000000" r="2" stroke="none" stroke-width="1"/>
   <text fill="#000000" font-family="monospace" font-size="12" x="447" y="119">b4</text>
   <circle cx="465" cy="115" fill="#000000" r="2" stroke="none" stroke-width="1"/>
   <text fill="#000000" font-family="monospace" font-size="12" x="447" y="139">00</text>
   <circle cx="465" cy="135" fill="#000000" r="2" stroke="none" stroke-width="1"/>
   <text fill="#000000" font-family="monospace" font-size="12" x="447" y="159">10</text>
   <circle cx="465" cy="155" fill="#000000" r="2" stroke="none" stroke-width="1"/>
   <text fill="#000000" font-family="monospace" font-size="12" x="447" y="179">20</text>
   <circle cx="465" cy="175" fill="#000000" r="2" stroke="none" stroke-width="1"/>
   <text fill="#000000" font-family="monospace" font-size="12" x="447" y="199">30</text>
   <circle cx="465" cy="195" fill="#000000" r="2" stroke="none" stroke-width="1"/>
   <rect fill="#FFF099" height="18" rx="10" ry="9" stroke="none" stroke-linecap="square" stroke-width="1" width="48" x="376" y="306"/>
   <rect fill="none" height="18" rx="10" ry="9" stroke="#C0C0C0" stroke-linecap="square" stroke-width="1" width="48" x="376" y="306"/>
   <text fill="#404040" font-family="sans-serif" font-size="12" x="393" y="321">x4</text>
   <circle cx="375" cy="315" fill="#000000" r="2" stroke="none" stroke-width="1"/>
   <rect fill="#FFF099" height="18" rx="10" ry="9" stroke="none" stroke-linecap="square" stroke-width="1" width="108" x="966" y="486"/>
   <rect fill="none" height="18" rx="10" ry="9" stroke="#C0C0C0" stroke-linecap="square" stroke-width="1" width="108" x="966" y="486"/>
   <text fill="#404040" font-family="sans-serif" font-size="12" x="1013" y="501">x8</text>
   <circle cx="965" cy="495" fill="#000000" r="2" stroke="none" stroke-width="1"/>
   <rect fill="#FFF099" height="18" rx="10" ry="9" stroke="none" stroke-linecap="square" stroke-width="1" width="108" x="966" y="506"/>
   <rect fill="none" height="18" rx="10" ry="9" stroke="#C0C0C0" stroke-linecap="square" stroke-width="1" width="108" x="966" y="506"/>
   <text fill="#404040" font-family="sans-serif" font-size="12" x="1013" y="521">x8</text>
   <circle cx="965" cy="515" fill="#000000" r="2" stroke="none" stroke-width="1"/>
   <rect fill="#FFF099" height="18" rx="10" ry="9" stroke="none" stroke-linecap="square" stroke-width="1" width="108" x="966" y="546"/>
   <rect fill="none" height="18" rx="10" ry="9" stroke="#C0C0C0" stroke-linecap="square" stroke-width="1" width="108" x="966" y="546"/>
   <text fill="#404040" font-family="sans-serif" font-size="12" x="1013" y="561">x8</text>
   <circle cx="965" cy="555" fill="#000000" r="2" stroke="none" stroke-width="1"/>
   <rect fill="#FFF099" height="18" rx="10" ry="9" stroke="none" stroke-linecap="square" stroke-width="1" width="108" x="966" y="566"/>
   <rect fill="none" height="18" rx="10" ry="9" stroke="#C0C0C0" stroke-linecap="square" stroke-width="1" width="108" x="966" y="566"/>
   <text fill="#404040" font-family="sans-serif" font-size="12" x="1013" y="581">x8</text>
   <circle cx="965" cy="575" fill="#000000" r="2" stroke="none" stroke-width="1"/>
   <rect fill="#FFF099" height="18" rx="10" ry="9" stroke="none" stroke-linecap="square" stroke-width="1" width="48" x="916" y="76"/>
   <rect fill="none" height="18" rx="10" ry="9" stroke="#C0C0C0" stroke-linecap="square" stroke-width="1" width="48" x="916" y="76"/>
   <text fill="#404040" font-family="sans-serif" font-size="12" x="933" y="91">x2</text>
   <circle cx="915" cy="85" fill="#000000" r="2" stroke="none" stroke-width="1"/>
</svg>
