<?xml version="1.0" encoding="UTF-8" standalone="no"?>
<svg xmlns="http://www.w3.org/2000/svg" height="481" version="1.1" viewBox="0 0 1019 481" width="1019">
   <path d="M839,215 H889" fill="none" stroke="#000000" stroke-linecap="square" stroke-width="4"/>
   <path d="M239,135 H319 V405 H369" fill="none" stroke="#000000" stroke-linecap="square" stroke-width="3"/>
   <path d="M589,185 H719 V205 H789" fill="none" stroke="#000000" stroke-linecap="square" stroke-width="4"/>
   <path d="M239,125 H329 V305 H369" fill="none" stroke="#000000" stroke-linecap="square" stroke-width="3"/>
   <path d="M309,85 V185 H369" fill="none" stroke="#000000" stroke-linecap="square" stroke-width="4"/>
   <path d="M309,185 V285 H369" fill="none" stroke="#000000" stroke-linecap="square" stroke-width="4"/>
   <path d="M309,285 V385 H369" fill="none" stroke="#000000" stroke-linecap="square" stroke-width="4"/>
   <path d="M239,115 H339 V205 H369" fill="none" stroke="#000000" stroke-linecap="square" stroke-width="3"/>
   <path d="M349,145 V245 H369" fill="none" stroke="#000000" stroke-linecap="square" stroke-width="3"/>
   <path d="M349,245 V345 H369" fill="none" stroke="#000000" stroke-linecap="square" stroke-width="3"/>
   <path d="M349,345 V445 H369" fill="none" stroke="#000000" stroke-linecap="square" stroke-width="3"/>
   <path d="M789,225 H719 V285 H589" fill="none" stroke="#000000" stroke-linecap="square" stroke-width="4"/>
   <path d="M239,105 H369" fill="none" stroke="#000000" stroke-linecap="square" stroke-width="3"/>
   <path d="M359,125 H369" fill="none" stroke="#000000" stroke-linecap="square" stroke-width="3"/>
   <path d="M359,225 H369" fill="none" stroke="#000000" stroke-linecap="square" stroke-width="3"/>
   <path d="M359,325 H369" fill="none" stroke="#000000" stroke-linecap="square" stroke-width="3"/>
   <path d="M589,385 H729 V235 H789" fill="none" stroke="#000000" stroke-linecap="square" stroke-width="4"/>
   <path d="M589,85 H729 V195 H789" fill="none" stroke="#000000" stroke-linecap="square" stroke-width="4"/>
   <circle cx="309" cy="285" fill="#000000" r="6" stroke="none" stroke-width="4"/>
   <circle cx="349" cy="345" fill="#000000" r="5" stroke="none" stroke-width="4"/>
   <circle cx="309" cy="185" fill="#000000" r="6" stroke="none" stroke-width="4"/>
   <circle cx="349" cy="245" fill="#000000" r="5" stroke="none" stroke-width="4"/>
   <circle cx="359" cy="325" fill="#000000" r="5" stroke="none" stroke-width="4"/>
   <circle cx="309" cy="85" fill="#000000" r="6" stroke="none" stroke-width="4"/>
   <circle cx="349" cy="145" fill="#000000" r="5" stroke="none" stroke-width="4"/>
   <circle cx="359" cy="225" fill="#000000" r="5" stroke="none" stroke-width="4"/>
   <circle cx="359" cy="125" fill="#000000" r="5" stroke="none" stroke-width="4"/>
   <path d="M106,185 H219 V145" fill="none" stroke="#000000" stroke-linecap="square" stroke-width="4"/>
   <path d="M60,176 H94 L104,185 L94,194 H60 Z" fill="none" stroke="#000000" stroke-linecap="square" stroke-width="2"/>
   <text fill="#000000" font-family="monospace" font-size="12" x="70" y="191">x2</text>
   <text fill="#000000" font-family="sans-serif" font-size="16" font-weight="bold" x="5" y="193">rIndex</text>
   <circle cx="109" cy="185" fill="#000000" r="2" stroke="none" stroke-width="2"/>
   <path d="M209,145 V141" fill="none" stroke="#000000" stroke-linecap="square" stroke-width="3"/>
   <circle cx="219" cy="139" fill="#C0C0C0" r="3" stroke="none" stroke-width="1"/>
   <text fill="#808080" font-family="sans-serif" font-size="12" x="228" y="110">0</text>
   <path d="M199,115 L239,95 V155 L199,135 Z" fill="none" stroke="#000000" stroke-linecap="square" stroke-width="2"/>
   <text fill="#000000" font-family="sans-serif" font-size="12" x="204" y="131">Decd</text>
   <circle cx="239" cy="105" fill="#000000" r="2" stroke="none" stroke-width="2"/>
   <circle cx="239" cy="115" fill="#000000" r="2" stroke="none" stroke-width="2"/>
   <circle cx="239" cy="125" fill="#000000" r="2" stroke="none" stroke-width="2"/>
   <circle cx="239" cy="135" fill="#000000" r="2" stroke="none" stroke-width="2"/>
   <circle cx="219" cy="145" fill="#000000" r="2" stroke="none" stroke-width="2"/>
   <circle cx="209" cy="145" fill="#000000" r="2" stroke="none" stroke-width="2"/>
   <rect fill="#000000" height="4" stroke="none" stroke-linecap="square" stroke-width="1" width="10" x="369" y="83"/>
   <text fill="#404040" font-family="Dialog" font-size="12" x="384" y="89">Data</text>
   <rect fill="#000000" height="3" stroke="none" stroke-linecap="square" stroke-width="1" width="10" x="369" y="104"/>
   <text fill="#404040" font-family="Dialog" font-size="12" x="384" y="109">addr_en</text>
   <rect fill="#000000" height="3" stroke="none" stroke-linecap="square" stroke-width="1" width="10" x="369" y="124"/>
   <path d="M380,121 L387,125 L380,129" fill="none" stroke="#000000" stroke-linecap="square" stroke-width="2"/>
   <text fill="#404040" font-family="Dialog" font-size="12" x="392" y="129">Clk</text>
   <rect fill="#000000" height="3" stroke="none" stroke-linecap="square" stroke-width="1" width="10" x="369" y="144"/>
   <text fill="#404040" font-family="Dialog" font-size="12" x="384" y="149">EN</text>
   <rect fill="#000000" height="4" stroke="none" stroke-linecap="square" stroke-width="1" width="10" x="579" y="83"/>
   <text fill="#404040" font-family="Dialog" font-size="12" x="565" y="89">Q</text>
   <rect fill="#000000" height="20" stroke="none" stroke-linecap="square" stroke-width="1" width="200" x="379" y="155"/>
   <rect fill="none" height="100" stroke="#000000" stroke-linecap="square" stroke-width="2" width="200" x="379" y="75"/>
   <text fill="#FFFFFF" font-family="Dialog" font-size="14" font-weight="bold" x="407" y="169">sCpu_8bit_RwCache</text>
   <circle cx="369" cy="85" fill="#000000" r="2" stroke="none" stroke-width="1"/>
   <circle cx="369" cy="105" fill="#000000" r="2" stroke="none" stroke-width="1"/>
   <circle cx="369" cy="125" fill="#000000" r="2" stroke="none" stroke-width="1"/>
   <circle cx="369" cy="145" fill="#000000" r="2" stroke="none" stroke-width="1"/>
   <circle cx="589" cy="85" fill="#000000" r="2" stroke="none" stroke-width="1"/>
   <path d="M234,35 H359 V425 H369" fill="none" stroke="#000000" stroke-linecap="square" stroke-width="3"/>
   <path d="M200,26 H224 L234,35 L224,44 H200 Z" fill="none" stroke="#000000" stroke-linecap="square" stroke-width="2"/>
   <text fill="#000000" font-family="monospace" font-size="12" x="205" y="41">x1</text>
   <text fill="#000000" font-family="sans-serif" font-size="16" font-weight="bold" x="171" y="43">Clk</text>
   <circle cx="239" cy="35" fill="#000000" r="2" stroke="none" stroke-width="2"/>
   <path d="M234,55 H349 V145 H369" fill="none" stroke="#000000" stroke-linecap="square" stroke-width="3"/>
   <path d="M200,46 H224 L234,55 L224,64 H200 Z" fill="none" stroke="#000000" stroke-linecap="square" stroke-width="2"/>
   <text fill="#000000" font-family="monospace" font-size="12" x="205" y="61">x1</text>
   <text fill="#000000" font-family="sans-serif" font-size="16" font-weight="bold" x="176" y="63">En</text>
   <circle cx="239" cy="55" fill="#000000" r="2" stroke="none" stroke-width="2"/>
   <path d="M236,15 H309 V85 H369" fill="none" stroke="#000000" stroke-linecap="square" stroke-width="4"/>
   <path d="M130,6 H224 L234,15 L224,24 H130 Z" fill="none" stroke="#000000" stroke-linecap="square" stroke-width="2"/>
   <text fill="#000000" font-family="monospace" font-size="12" x="170" y="21">x8</text>
   <text fill="#000000" font-family="sans-serif" font-size="16" font-weight="bold" x="90" y="23">Data</text>
   <circle cx="239" cy="15" fill="#000000" r="2" stroke="none" stroke-width="2"/>
   <rect fill="#000000" height="4" stroke="none" stroke-linecap="square" stroke-width="1" width="10" x="369" y="183"/>
   <text fill="#404040" font-family="Dialog" font-size="12" x="384" y="189">Data</text>
   <rect fill="#000000" height="3" stroke="none" stroke-linecap="square" stroke-width="1" width="10" x="369" y="204"/>
   <text fill="#404040" font-family="Dialog" font-size="12" x="384" y="209">addr_en</text>
   <rect fill="#000000" height="3" stroke="none" stroke-linecap="square" stroke-width="1" width="10" x="369" y="224"/>
   <path d="M380,221 L387,225 L380,229" fill="none" stroke="#000000" stroke-linecap="square" stroke-width="2"/>
   <text fill="#404040" font-family="Dialog" font-size="12" x="392" y="229">Clk</text>
   <rect fill="#000000" height="3" stroke="none" stroke-linecap="square" stroke-width="1" width="10" x="369" y="244"/>
   <text fill="#404040" font-family="Dialog" font-size="12" x="384" y="249">EN</text>
   <rect fill="#000000" height="4" stroke="none" stroke-linecap="square" stroke-width="1" width="10" x="579" y="183"/>
   <text fill="#404040" font-family="Dialog" font-size="12" x="565" y="189">Q</text>
   <rect fill="#000000" height="20" stroke="none" stroke-linecap="square" stroke-width="1" width="200" x="379" y="255"/>
   <rect fill="none" height="100" stroke="#000000" stroke-linecap="square" stroke-width="2" width="200" x="379" y="175"/>
   <text fill="#FFFFFF" font-family="Dialog" font-size="14" font-weight="bold" x="407" y="269">sCpu_8bit_RwCache</text>
   <circle cx="369" cy="185" fill="#000000" r="2" stroke="none" stroke-width="1"/>
   <circle cx="369" cy="205" fill="#000000" r="2" stroke="none" stroke-width="1"/>
   <circle cx="369" cy="225" fill="#000000" r="2" stroke="none" stroke-width="1"/>
   <circle cx="369" cy="245" fill="#000000" r="2" stroke="none" stroke-width="1"/>
   <circle cx="589" cy="185" fill="#000000" r="2" stroke="none" stroke-width="1"/>
   <rect fill="#000000" height="4" stroke="none" stroke-linecap="square" stroke-width="1" width="10" x="369" y="283"/>
   <text fill="#404040" font-family="Dialog" font-size="12" x="384" y="289">Data</text>
   <rect fill="#000000" height="3" stroke="none" stroke-linecap="square" stroke-width="1" width="10" x="369" y="304"/>
   <text fill="#404040" font-family="Dialog" font-size="12" x="384" y="309">addr_en</text>
   <rect fill="#000000" height="3" stroke="none" stroke-linecap="square" stroke-width="1" width="10" x="369" y="324"/>
   <path d="M380,321 L387,325 L380,329" fill="none" stroke="#000000" stroke-linecap="square" stroke-width="2"/>
   <text fill="#404040" font-family="Dialog" font-size="12" x="392" y="329">Clk</text>
   <rect fill="#000000" height="3" stroke="none" stroke-linecap="square" stroke-width="1" width="10" x="369" y="344"/>
   <text fill="#404040" font-family="Dialog" font-size="12" x="384" y="349">EN</text>
   <rect fill="#000000" height="4" stroke="none" stroke-linecap="square" stroke-width="1" width="10" x="579" y="283"/>
   <text fill="#404040" font-family="Dialog" font-size="12" x="565" y="289">Q</text>
   <rect fill="#000000" height="20" stroke="none" stroke-linecap="square" stroke-width="1" width="200" x="379" y="355"/>
   <rect fill="none" height="100" stroke="#000000" stroke-linecap="square" stroke-width="2" width="200" x="379" y="275"/>
   <text fill="#FFFFFF" font-family="Dialog" font-size="14" font-weight="bold" x="407" y="369">sCpu_8bit_RwCache</text>
   <circle cx="369" cy="285" fill="#000000" r="2" stroke="none" stroke-width="1"/>
   <circle cx="369" cy="305" fill="#000000" r="2" stroke="none" stroke-width="1"/>
   <circle cx="369" cy="325" fill="#000000" r="2" stroke="none" stroke-width="1"/>
   <circle cx="369" cy="345" fill="#000000" r="2" stroke="none" stroke-width="1"/>
   <circle cx="589" cy="285" fill="#000000" r="2" stroke="none" stroke-width="1"/>
   <rect fill="#000000" height="4" stroke="none" stroke-linecap="square" stroke-width="1" width="10" x="369" y="383"/>
   <text fill="#404040" font-family="Dialog" font-size="12" x="384" y="389">Data</text>
   <rect fill="#000000" height="3" stroke="none" stroke-linecap="square" stroke-width="1" width="10" x="369" y="404"/>
   <text fill="#404040" font-family="Dialog" font-size="12" x="384" y="409">addr_en</text>
   <rect fill="#000000" height="3" stroke="none" stroke-linecap="square" stroke-width="1" width="10" x="369" y="424"/>
   <path d="M380,421 L387,425 L380,429" fill="none" stroke="#000000" stroke-linecap="square" stroke-width="2"/>
   <text fill="#404040" font-family="Dialog" font-size="12" x="392" y="429">Clk</text>
   <rect fill="#000000" height="3" stroke="none" stroke-linecap="square" stroke-width="1" width="10" x="369" y="444"/>
   <text fill="#404040" font-family="Dialog" font-size="12" x="384" y="449">EN</text>
   <rect fill="#000000" height="4" stroke="none" stroke-linecap="square" stroke-width="1" width="10" x="579" y="383"/>
   <text fill="#404040" font-family="Dialog" font-size="12" x="565" y="389">Q</text>
   <rect fill="#000000" height="20" stroke="none" stroke-linecap="square" stroke-width="1" width="200" x="379" y="455"/>
   <rect fill="none" height="100" stroke="#000000" stroke-linecap="square" stroke-width="2" width="200" x="379" y="375"/>
   <text fill="#FFFFFF" font-family="Dialog" font-size="14" font-weight="bold" x="407" y="469">sCpu_8bit_RwCache</text>
   <circle cx="369" cy="385" fill="#000000" r="2" stroke="none" stroke-width="1"/>
   <circle cx="369" cy="405" fill="#000000" r="2" stroke="none" stroke-width="1"/>
   <circle cx="369" cy="425" fill="#000000" r="2" stroke="none" stroke-width="1"/>
   <circle cx="369" cy="445" fill="#000000" r="2" stroke="none" stroke-width="1"/>
   <circle cx="589" cy="385" fill="#000000" r="2" stroke="none" stroke-width="1"/>
   <path d="M789,195 H789" fill="none" stroke="#000000" stroke-linecap="square" stroke-width="3"/>
   <path d="M789,205 H794" fill="none" stroke="#000000" stroke-linecap="square" stroke-width="3"/>
   <path d="M789,225 H794" fill="none" stroke="#000000" stroke-linecap="square" stroke-width="3"/>
   <path d="M789,235 H789" fill="none" stroke="#000000" stroke-linecap="square" stroke-width="3"/>
   <path d="M839,215 Q819,190 789,190 Q802,215 789,240 Q819,240 839,215 Z" fill="none" stroke="#000000" stroke-linecap="square" stroke-width="2"/>
   <path d="M893,215 H892" fill="none" stroke="#000000" stroke-linecap="square" stroke-width="4"/>
   <path d="M895,206 H989 L999,215 L989,224 H895 Z" fill="none" stroke="#000000" stroke-linecap="square" stroke-width="2"/>
   <text fill="#000000" font-family="monospace" font-size="12" x="930" y="221">x8</text>
   <text fill="#000000" font-family="sans-serif" font-size="16" font-weight="bold" x="1001" y="223">Q</text>
   <circle cx="889" cy="215" fill="#000000" r="2" stroke="none" stroke-width="2"/>
</svg>
