<?xml version="1.0" encoding="UTF-8" standalone="no"?>
<svg xmlns="http://www.w3.org/2000/svg" height="832" version="1.1" viewBox="0 0 1984 832" width="1984">
   <path d="M148,815 H208" fill="none" stroke="#000000" stroke-linecap="square" stroke-width="4"/>
   <path d="M1508,645 H1408 V615 H1198 V645 H1298" fill="none" stroke="#000000" stroke-linecap="square" stroke-width="3"/>
   <path d="M48,535 V555 H98" fill="none" stroke="#000000" stroke-linecap="square" stroke-width="4"/>
   <path d="M1398,115 H1358 V105 H1508" fill="none" stroke="#000000" stroke-linecap="square" stroke-width="3"/>
   <path d="M398,155 H358 V205 H488 V245 H458 V685 H518" fill="none" stroke="#000000" stroke-linecap="square" stroke-width="3"/>
   <path d="M1408,615 H1578 V645 H1678" fill="none" stroke="#000000" stroke-linecap="square" stroke-width="3"/>
   <path d="M228,385 H278" fill="none" stroke="#000000" stroke-linecap="square" stroke-width="3"/>
   <path d="M1598,245 H1638 V205 H1508 V155 H1548" fill="none" stroke="#000000" stroke-linecap="square" stroke-width="3"/>
   <path d="M1578,615 H1778 V635 H1898" fill="none" stroke="#000000" stroke-linecap="square" stroke-width="3"/>
   <path d="M628,115 H588 V105 H738" fill="none" stroke="#000000" stroke-linecap="square" stroke-width="3"/>
   <path d="M328,365 H348 V285 H378" fill="none" stroke="#000000" stroke-linecap="square" stroke-width="3"/>
   <path d="M868,245 V685 H898" fill="none" stroke="#000000" stroke-linecap="square" stroke-width="3"/>
   <path d="M778,115 H738 V105 H1358" fill="none" stroke="#000000" stroke-linecap="square" stroke-width="3"/>
   <path d="M1548,115 H1508 V105 H1738 V115 H1778" fill="none" stroke="#000000" stroke-linecap="square" stroke-width="3"/>
   <path d="M348,365 H578" fill="none" stroke="#000000" stroke-linecap="square" stroke-width="3"/>
   <path d="M418,615 H628" fill="none" stroke="#000000" stroke-linecap="square" stroke-width="3"/>
   <path d="M1458,245 H1488 V205 H1358 V155 H1398" fill="none" stroke="#000000" stroke-linecap="square" stroke-width="3"/>
   <path d="M1388,285 H1348 V365 H1498 V285 H1528" fill="none" stroke="#000000" stroke-linecap="square" stroke-width="3"/>
   <path d="M1148,285 H1118 V365" fill="none" stroke="#000000" stroke-linecap="square" stroke-width="3"/>
   <path d="M1498,365 H1728 V285 H1768" fill="none" stroke="#000000" stroke-linecap="square" stroke-width="3"/>
   <path d="M728,365 H578 V285 H618" fill="none" stroke="#000000" stroke-linecap="square" stroke-width="3"/>
   <path d="M968,105 V115 H1008" fill="none" stroke="#000000" stroke-linecap="square" stroke-width="3"/>
   <path d="M898,645 H798 V615 H628 V645 H728" fill="none" stroke="#000000" stroke-linecap="square" stroke-width="3"/>
   <path d="M1128,105 V115 H1168" fill="none" stroke="#000000" stroke-linecap="square" stroke-width="3"/>
   <path d="M798,615 H998 V635 H1118" fill="none" stroke="#000000" stroke-linecap="square" stroke-width="3"/>
   <path d="M998,285 H958 V365" fill="none" stroke="#000000" stroke-linecap="square" stroke-width="3"/>
   <path d="M358,105 H588" fill="none" stroke="#000000" stroke-linecap="square" stroke-width="3"/>
   <path d="M1348,365 H728 V285 H758" fill="none" stroke="#000000" stroke-linecap="square" stroke-width="3"/>
   <path d="M1008,155 H968 V205 H1098 V675 H1118" fill="none" stroke="#000000" stroke-linecap="square" stroke-width="3"/>
   <path d="M688,245 V685 H728" fill="none" stroke="#000000" stroke-linecap="square" stroke-width="3"/>
   <path d="M1778,155 H1738 V205 H1868 V245 H1848" fill="none" stroke="#000000" stroke-linecap="square" stroke-width="3"/>
   <path d="M998,615 H1198" fill="none" stroke="#000000" stroke-linecap="square" stroke-width="3"/>
   <path d="M1238,245 H1258 V205 H1128 V155 H1168" fill="none" stroke="#000000" stroke-linecap="square" stroke-width="3"/>
   <circle cx="688" cy="245" fill="#000000" r="5" stroke="none" stroke-width="3"/>
   <circle cx="458" cy="245" fill="#000000" r="5" stroke="none" stroke-width="3"/>
   <circle cx="628" cy="615" fill="#000000" r="5" stroke="none" stroke-width="3"/>
   <circle cx="1598" cy="245" fill="#000000" r="5" stroke="none" stroke-width="3"/>
   <circle cx="1348" cy="365" fill="#000000" r="5" stroke="none" stroke-width="3"/>
   <circle cx="1848" cy="245" fill="#000000" r="5" stroke="none" stroke-width="3"/>
   <circle cx="1118" cy="365" fill="#000000" r="5" stroke="none" stroke-width="3"/>
   <circle cx="1498" cy="365" fill="#000000" r="5" stroke="none" stroke-width="3"/>
   <circle cx="1358" cy="105" fill="#000000" r="5" stroke="none" stroke-width="3"/>
   <circle cx="1238" cy="245" fill="#000000" r="5" stroke="none" stroke-width="3"/>
   <circle cx="1408" cy="615" fill="#000000" r="5" stroke="none" stroke-width="3"/>
   <circle cx="1128" cy="105" fill="#000000" r="5" stroke="none" stroke-width="3"/>
   <circle cx="1508" cy="105" fill="#000000" r="5" stroke="none" stroke-width="3"/>
   <circle cx="418" cy="615" fill="#000000" r="5" stroke="none" stroke-width="3"/>
   <circle cx="798" cy="615" fill="#000000" r="5" stroke="none" stroke-width="3"/>
   <circle cx="998" cy="615" fill="#000000" r="5" stroke="none" stroke-width="3"/>
   <circle cx="578" cy="365" fill="#000000" r="5" stroke="none" stroke-width="3"/>
   <circle cx="958" cy="365" fill="#000000" r="5" stroke="none" stroke-width="3"/>
   <circle cx="1198" cy="615" fill="#000000" r="5" stroke="none" stroke-width="3"/>
   <circle cx="1578" cy="615" fill="#000000" r="5" stroke="none" stroke-width="3"/>
   <circle cx="1458" cy="245" fill="#000000" r="5" stroke="none" stroke-width="3"/>
   <circle cx="348" cy="365" fill="#000000" r="5" stroke="none" stroke-width="3"/>
   <circle cx="728" cy="365" fill="#000000" r="5" stroke="none" stroke-width="3"/>
   <circle cx="588" cy="105" fill="#000000" r="5" stroke="none" stroke-width="3"/>
   <circle cx="968" cy="105" fill="#000000" r="5" stroke="none" stroke-width="3"/>
   <circle cx="358" cy="105" fill="#000000" r="5" stroke="none" stroke-width="3"/>
   <circle cx="738" cy="105" fill="#000000" r="5" stroke="none" stroke-width="3"/>
   <circle cx="1098" cy="245" fill="#000000" r="5" stroke="none" stroke-width="3"/>
   <circle cx="868" cy="245" fill="#000000" r="5" stroke="none" stroke-width="3"/>
   <path d="M1828,135 H1928 V455 H54" fill="none" stroke="#000000" stroke-linecap="square" stroke-width="3"/>
   <path d="M1598,135 H1618 V465 H54" fill="none" stroke="#000000" stroke-linecap="square" stroke-width="3"/>
   <path d="M1448,135 H1468 V475 H54" fill="none" stroke="#000000" stroke-linecap="square" stroke-width="3"/>
   <path d="M1218,135 H1278 V485 H54" fill="none" stroke="#000000" stroke-linecap="square" stroke-width="3"/>
   <path d="M1058,135 H1068 V495 H54" fill="none" stroke="#000000" stroke-linecap="square" stroke-width="3"/>
   <path d="M828,135 H878 V505 H54" fill="none" stroke="#000000" stroke-linecap="square" stroke-width="3"/>
   <path d="M678,135 H698 V515 H54" fill="none" stroke="#000000" stroke-linecap="square" stroke-width="3"/>
   <path d="M448,135 H508 V525 H54" fill="none" stroke="#000000" stroke-linecap="square" stroke-width="3"/>
   <path d="M54,456 V529 L49,534" fill="none" stroke="#000000" stroke-linecap="square" stroke-width="5"/>
   <text fill="#000000" font-family="sans-serif" font-size="7" x="57" y="462">0</text>
   <text fill="#000000" font-family="sans-serif" font-size="7" x="57" y="472">1</text>
   <text fill="#000000" font-family="sans-serif" font-size="7" x="57" y="482">2</text>
   <text fill="#000000" font-family="sans-serif" font-size="7" x="57" y="492">3</text>
   <text fill="#000000" font-family="sans-serif" font-size="7" x="57" y="502">4</text>
   <text fill="#000000" font-family="sans-serif" font-size="7" x="57" y="512">5</text>
   <text fill="#000000" font-family="sans-serif" font-size="7" x="57" y="522">6</text>
   <text fill="#000000" font-family="sans-serif" font-size="7" x="57" y="532">7</text>
   <circle cx="48" cy="535" fill="#000000" r="2" stroke="none" stroke-width="5"/>
   <circle cx="68" cy="455" fill="#000000" r="2" stroke="none" stroke-width="5"/>
   <circle cx="68" cy="465" fill="#000000" r="2" stroke="none" stroke-width="5"/>
   <circle cx="68" cy="475" fill="#000000" r="2" stroke="none" stroke-width="5"/>
   <circle cx="68" cy="485" fill="#000000" r="2" stroke="none" stroke-width="5"/>
   <circle cx="68" cy="495" fill="#000000" r="2" stroke="none" stroke-width="5"/>
   <circle cx="68" cy="505" fill="#000000" r="2" stroke="none" stroke-width="5"/>
   <circle cx="68" cy="515" fill="#000000" r="2" stroke="none" stroke-width="5"/>
   <circle cx="68" cy="525" fill="#000000" r="2" stroke="none" stroke-width="5"/>
   <path d="M133,365 H178" fill="none" stroke="#000000" stroke-linecap="square" stroke-width="3"/>
   <path d="M99,356 H123 L133,365 L123,374 H99 Z" fill="none" stroke="#000000" stroke-linecap="square" stroke-width="2"/>
   <text fill="#000000" font-family="monospace" font-size="12" x="104" y="371">x1</text>
   <text fill="#000000" font-family="sans-serif" font-size="16" font-weight="bold" x="70" y="373">Clk</text>
   <circle cx="138" cy="365" fill="#000000" r="2" stroke="none" stroke-width="2"/>
   <path d="M165,15 H288" fill="none" stroke="#000000" stroke-linecap="square" stroke-width="4"/>
   <path d="M59,6 H153 L163,15 L153,24 H59 Z" fill="none" stroke="#000000" stroke-linecap="square" stroke-width="2"/>
   <text fill="#000000" font-family="monospace" font-size="12" x="99" y="21">x8</text>
   <text fill="#000000" font-family="sans-serif" font-size="16" font-weight="bold" x="5" y="23">WData</text>
   <circle cx="168" cy="15" fill="#000000" r="2" stroke="none" stroke-width="2"/>
   <path d="M163,105 H358 V115 H398" fill="none" stroke="#000000" stroke-linecap="square" stroke-width="3"/>
   <path d="M129,96 H153 L163,105 L153,114 H129 Z" fill="none" stroke="#000000" stroke-linecap="square" stroke-width="2"/>
   <text fill="#000000" font-family="monospace" font-size="12" x="134" y="111">x1</text>
   <text fill="#000000" font-family="sans-serif" font-size="16" font-weight="bold" x="70" y="113">raddr0</text>
   <circle cx="168" cy="105" fill="#000000" r="2" stroke="none" stroke-width="2"/>
   <path d="M203,410 A25,25 90 0,0 203,360" fill="none" stroke="#000000" stroke-width="2"/>
   <path d="M203,360 H179 V410 H203" fill="none" stroke="#000000" stroke-linecap="square" stroke-width="2"/>
   <rect fill="none" height="60" stroke="#000000" stroke-linecap="square" stroke-width="2" width="40" x="1778" y="235"/>
   <circle cx="1798" cy="295" fill="#000000" r="2" stroke="none" stroke-width="2"/>
   <text fill="#999999" font-family="sans-serif" font-size="12" x="1794" y="292">R</text>
   <circle cx="1798" cy="235" fill="#000000" r="2" stroke="none" stroke-width="2"/>
   <text fill="#999999" font-family="sans-serif" font-size="12" x="1795" y="250">S</text>
   <circle cx="1768" cy="245" fill="#000000" r="2" stroke="none" stroke-width="3"/>
   <text fill="#000000" font-family="sans-serif" font-size="12" x="1782" y="249">D</text>
   <path d="M1779,281 L1786,285 L1779,289" fill="none" stroke="#000000" stroke-linecap="square" stroke-width="2"/>
   <path d="M1768,285 H1777" fill="none" stroke="#000000" stroke-linecap="square" stroke-width="2"/>
   <circle cx="1768" cy="285" fill="#000000" r="2" stroke="none" stroke-width="2"/>
   <path d="M1819,245 H1848 V675 H1898" fill="none" stroke="#000000" stroke-linecap="square" stroke-width="3"/>
   <text fill="#000000" font-family="sans-serif" font-size="12" x="1805" y="249">Q</text>
   <circle cx="1828" cy="245" fill="#000000" r="2" stroke="none" stroke-width="3"/>
   <circle cx="1823" cy="285" fill="none" r="5" stroke="#000000" stroke-width="2"/>
   <circle cx="1828" cy="285" fill="#000000" r="2" stroke="none" stroke-width="2"/>
   <path d="M303,390 A25,25 90 0,0 303,340" fill="none" stroke="#000000" stroke-width="2"/>
   <path d="M303,340 H279 V390 H303" fill="none" stroke="#000000" stroke-linecap="square" stroke-width="2"/>
   <rect fill="none" height="60" stroke="#000000" stroke-linecap="square" stroke-width="2" width="40" x="1398" y="235"/>
   <circle cx="1418" cy="295" fill="#000000" r="2" stroke="none" stroke-width="2"/>
   <text fill="#999999" font-family="sans-serif" font-size="12" x="1414" y="292">R</text>
   <circle cx="1418" cy="235" fill="#000000" r="2" stroke="none" stroke-width="2"/>
   <text fill="#999999" font-family="sans-serif" font-size="12" x="1415" y="250">S</text>
   <circle cx="1388" cy="245" fill="#000000" r="2" stroke="none" stroke-width="3"/>
   <text fill="#000000" font-family="sans-serif" font-size="12" x="1402" y="249">D</text>
   <path d="M1399,281 L1406,285 L1399,289" fill="none" stroke="#000000" stroke-linecap="square" stroke-width="2"/>
   <path d="M1388,285 H1397" fill="none" stroke="#000000" stroke-linecap="square" stroke-width="2"/>
   <circle cx="1388" cy="285" fill="#000000" r="2" stroke="none" stroke-width="2"/>
   <path d="M1439,245 H1458 V685 H1508" fill="none" stroke="#000000" stroke-linecap="square" stroke-width="3"/>
   <text fill="#000000" font-family="sans-serif" font-size="12" x="1425" y="249">Q</text>
   <circle cx="1448" cy="245" fill="#000000" r="2" stroke="none" stroke-width="3"/>
   <circle cx="1443" cy="285" fill="none" r="5" stroke="#000000" stroke-width="2"/>
   <circle cx="1448" cy="285" fill="#000000" r="2" stroke="none" stroke-width="2"/>
   <path d="M133,405 H178" fill="none" stroke="#000000" stroke-linecap="square" stroke-width="3"/>
   <path d="M99,396 H123 L133,405 L123,414 H99 Z" fill="none" stroke="#000000" stroke-linecap="square" stroke-width="2"/>
   <text fill="#000000" font-family="monospace" font-size="12" x="104" y="411">x1</text>
   <text fill="#000000" font-family="sans-serif" font-size="16" font-weight="bold" x="61" y="413">WEn</text>
   <circle cx="138" cy="405" fill="#000000" r="2" stroke="none" stroke-width="2"/>
   <path d="M1423,160 A25,25 90 0,0 1423,110" fill="none" stroke="#000000" stroke-width="2"/>
   <path d="M1423,110 H1399 V160 H1423" fill="none" stroke="#000000" stroke-linecap="square" stroke-width="2"/>
   <rect fill="none" height="60" stroke="#000000" stroke-linecap="square" stroke-width="2" width="40" x="1538" y="235"/>
   <circle cx="1558" cy="295" fill="#000000" r="2" stroke="none" stroke-width="2"/>
   <text fill="#999999" font-family="sans-serif" font-size="12" x="1554" y="292">R</text>
   <circle cx="1558" cy="235" fill="#000000" r="2" stroke="none" stroke-width="2"/>
   <text fill="#999999" font-family="sans-serif" font-size="12" x="1555" y="250">S</text>
   <circle cx="1528" cy="245" fill="#000000" r="2" stroke="none" stroke-width="3"/>
   <text fill="#000000" font-family="sans-serif" font-size="12" x="1542" y="249">D</text>
   <path d="M1539,281 L1546,285 L1539,289" fill="none" stroke="#000000" stroke-linecap="square" stroke-width="2"/>
   <path d="M1528,285 H1537" fill="none" stroke="#000000" stroke-linecap="square" stroke-width="2"/>
   <circle cx="1528" cy="285" fill="#000000" r="2" stroke="none" stroke-width="2"/>
   <path d="M1579,245 H1598 V685 H1678" fill="none" stroke="#000000" stroke-linecap="square" stroke-width="3"/>
   <text fill="#000000" font-family="sans-serif" font-size="12" x="1565" y="249">Q</text>
   <circle cx="1588" cy="245" fill="#000000" r="2" stroke="none" stroke-width="3"/>
   <circle cx="1583" cy="285" fill="none" r="5" stroke="#000000" stroke-width="2"/>
   <circle cx="1588" cy="285" fill="#000000" r="2" stroke="none" stroke-width="2"/>
   <rect fill="none" height="60" stroke="#000000" stroke-linecap="square" stroke-width="2" width="40" x="1008" y="235"/>
   <circle cx="1028" cy="295" fill="#000000" r="2" stroke="none" stroke-width="2"/>
   <text fill="#999999" font-family="sans-serif" font-size="12" x="1024" y="292">R</text>
   <circle cx="1028" cy="235" fill="#000000" r="2" stroke="none" stroke-width="2"/>
   <text fill="#999999" font-family="sans-serif" font-size="12" x="1025" y="250">S</text>
   <circle cx="998" cy="245" fill="#000000" r="2" stroke="none" stroke-width="3"/>
   <text fill="#000000" font-family="sans-serif" font-size="12" x="1012" y="249">D</text>
   <path d="M1009,281 L1016,285 L1009,289" fill="none" stroke="#000000" stroke-linecap="square" stroke-width="2"/>
   <path d="M998,285 H1007" fill="none" stroke="#000000" stroke-linecap="square" stroke-width="2"/>
   <circle cx="998" cy="285" fill="#000000" r="2" stroke="none" stroke-width="2"/>
   <path d="M1049,245 H1098" fill="none" stroke="#000000" stroke-linecap="square" stroke-width="3"/>
   <text fill="#000000" font-family="sans-serif" font-size="12" x="1035" y="249">Q</text>
   <circle cx="1058" cy="245" fill="#000000" r="2" stroke="none" stroke-width="3"/>
   <circle cx="1053" cy="285" fill="none" r="5" stroke="#000000" stroke-width="2"/>
   <circle cx="1058" cy="285" fill="#000000" r="2" stroke="none" stroke-width="2"/>
   <path d="M1803,160 A25,25 90 0,0 1803,110" fill="none" stroke="#000000" stroke-width="2"/>
   <path d="M1803,110 H1779 V160 H1803" fill="none" stroke="#000000" stroke-linecap="square" stroke-width="2"/>
   <path d="M1033,160 A25,25 90 0,0 1033,110" fill="none" stroke="#000000" stroke-width="2"/>
   <path d="M1033,110 H1009 V160 H1033" fill="none" stroke="#000000" stroke-linecap="square" stroke-width="2"/>
   <path d="M653,160 A25,25 90 0,0 653,110" fill="none" stroke="#000000" stroke-width="2"/>
   <path d="M653,110 H629 V160 H653" fill="none" stroke="#000000" stroke-linecap="square" stroke-width="2"/>
   <path d="M1193,160 A25,25 90 0,0 1193,110" fill="none" stroke="#000000" stroke-width="2"/>
   <path d="M1193,110 H1169 V160 H1193" fill="none" stroke="#000000" stroke-linecap="square" stroke-width="2"/>
   <rect fill="none" height="60" stroke="#000000" stroke-linecap="square" stroke-width="2" width="40" x="1158" y="235"/>
   <circle cx="1178" cy="295" fill="#000000" r="2" stroke="none" stroke-width="2"/>
   <text fill="#999999" font-family="sans-serif" font-size="12" x="1174" y="292">R</text>
   <circle cx="1178" cy="235" fill="#000000" r="2" stroke="none" stroke-width="2"/>
   <text fill="#999999" font-family="sans-serif" font-size="12" x="1175" y="250">S</text>
   <circle cx="1148" cy="245" fill="#000000" r="2" stroke="none" stroke-width="3"/>
   <text fill="#000000" font-family="sans-serif" font-size="12" x="1162" y="249">D</text>
   <path d="M1159,281 L1166,285 L1159,289" fill="none" stroke="#000000" stroke-linecap="square" stroke-width="2"/>
   <path d="M1148,285 H1157" fill="none" stroke="#000000" stroke-linecap="square" stroke-width="2"/>
   <circle cx="1148" cy="285" fill="#000000" r="2" stroke="none" stroke-width="2"/>
   <path d="M1199,245 H1238 V685 H1298" fill="none" stroke="#000000" stroke-linecap="square" stroke-width="3"/>
   <text fill="#000000" font-family="sans-serif" font-size="12" x="1185" y="249">Q</text>
   <circle cx="1208" cy="245" fill="#000000" r="2" stroke="none" stroke-width="3"/>
   <circle cx="1203" cy="285" fill="none" r="5" stroke="#000000" stroke-width="2"/>
   <circle cx="1208" cy="285" fill="#000000" r="2" stroke="none" stroke-width="2"/>
   <path d="M102,555 H101" fill="none" stroke="#000000" stroke-linecap="square" stroke-width="4"/>
   <path d="M104,546 H198 L208,555 L198,564 H104 Z" fill="none" stroke="#000000" stroke-linecap="square" stroke-width="2"/>
   <text fill="#000000" font-family="monospace" font-size="12" x="139" y="561">x8</text>
   <text fill="#000000" font-family="sans-serif" font-size="16" font-weight="bold" x="210" y="563">rdata0</text>
   <circle cx="98" cy="555" fill="#000000" r="2" stroke="none" stroke-width="2"/>
   <path d="M1573,160 A25,25 90 0,0 1573,110" fill="none" stroke="#000000" stroke-width="2"/>
   <path d="M1573,110 H1549 V160 H1573" fill="none" stroke="#000000" stroke-linecap="square" stroke-width="2"/>
   <rect fill="none" height="60" stroke="#000000" stroke-linecap="square" stroke-width="2" width="40" x="388" y="235"/>
   <circle cx="408" cy="295" fill="#000000" r="2" stroke="none" stroke-width="2"/>
   <text fill="#999999" font-family="sans-serif" font-size="12" x="404" y="292">R</text>
   <circle cx="408" cy="235" fill="#000000" r="2" stroke="none" stroke-width="2"/>
   <text fill="#999999" font-family="sans-serif" font-size="12" x="405" y="250">S</text>
   <circle cx="378" cy="245" fill="#000000" r="2" stroke="none" stroke-width="3"/>
   <text fill="#000000" font-family="sans-serif" font-size="12" x="392" y="249">D</text>
   <path d="M389,281 L396,285 L389,289" fill="none" stroke="#000000" stroke-linecap="square" stroke-width="2"/>
   <path d="M378,285 H387" fill="none" stroke="#000000" stroke-linecap="square" stroke-width="2"/>
   <circle cx="378" cy="285" fill="#000000" r="2" stroke="none" stroke-width="2"/>
   <path d="M429,245 H458" fill="none" stroke="#000000" stroke-linecap="square" stroke-width="3"/>
   <text fill="#000000" font-family="sans-serif" font-size="12" x="415" y="249">Q</text>
   <circle cx="438" cy="245" fill="#000000" r="2" stroke="none" stroke-width="3"/>
   <circle cx="433" cy="285" fill="none" r="5" stroke="#000000" stroke-width="2"/>
   <circle cx="438" cy="285" fill="#000000" r="2" stroke="none" stroke-width="2"/>
   <path d="M1777,245 H1678 V35 H368 V21" fill="none" stroke="#000000" stroke-linecap="square" stroke-width="3"/>
   <path d="M1537,245 H1498 V45 H358 V21" fill="none" stroke="#000000" stroke-linecap="square" stroke-width="3"/>
   <path d="M1397,245 H1298 V55 H348 V21" fill="none" stroke="#000000" stroke-linecap="square" stroke-width="3"/>
   <path d="M1157,245 H1108 V65 H338 V21" fill="none" stroke="#000000" stroke-linecap="square" stroke-width="3"/>
   <path d="M1007,245 H908 V75 H328 V21" fill="none" stroke="#000000" stroke-linecap="square" stroke-width="3"/>
   <path d="M387,245 H298 V21" fill="none" stroke="#000000" stroke-linecap="square" stroke-width="3"/>
   <path d="M367,21 H294 L289,16" fill="none" stroke="#000000" stroke-linecap="square" stroke-width="5"/>
   <text fill="#000000" font-family="sans-serif" font-size="7" transform="rotate(90,371,24)" x="371" y="24">0</text>
   <text fill="#000000" font-family="sans-serif" font-size="7" transform="rotate(90,361,24)" x="361" y="24">1</text>
   <text fill="#000000" font-family="sans-serif" font-size="7" transform="rotate(90,351,24)" x="351" y="24">2</text>
   <text fill="#000000" font-family="sans-serif" font-size="7" transform="rotate(90,341,24)" x="341" y="24">3</text>
   <text fill="#000000" font-family="sans-serif" font-size="7" transform="rotate(90,331,24)" x="331" y="24">4</text>
   <text fill="#000000" font-family="sans-serif" font-size="7" transform="rotate(90,321,24)" x="321" y="24">5</text>
   <text fill="#000000" font-family="sans-serif" font-size="7" transform="rotate(90,311,24)" x="311" y="24">6</text>
   <text fill="#000000" font-family="sans-serif" font-size="7" transform="rotate(90,301,24)" x="301" y="24">7</text>
   <circle cx="288" cy="15" fill="#000000" r="2" stroke="none" stroke-width="5"/>
   <circle cx="368" cy="35" fill="#000000" r="2" stroke="none" stroke-width="5"/>
   <circle cx="358" cy="35" fill="#000000" r="2" stroke="none" stroke-width="5"/>
   <circle cx="348" cy="35" fill="#000000" r="2" stroke="none" stroke-width="5"/>
   <circle cx="338" cy="35" fill="#000000" r="2" stroke="none" stroke-width="5"/>
   <circle cx="328" cy="35" fill="#000000" r="2" stroke="none" stroke-width="5"/>
   <circle cx="318" cy="35" fill="#000000" r="2" stroke="none" stroke-width="5"/>
   <circle cx="308" cy="35" fill="#000000" r="2" stroke="none" stroke-width="5"/>
   <circle cx="298" cy="35" fill="#000000" r="2" stroke="none" stroke-width="5"/>
   <rect fill="none" height="60" stroke="#000000" stroke-linecap="square" stroke-width="2" width="40" x="768" y="235"/>
   <circle cx="788" cy="295" fill="#000000" r="2" stroke="none" stroke-width="2"/>
   <text fill="#999999" font-family="sans-serif" font-size="12" x="784" y="292">R</text>
   <circle cx="788" cy="235" fill="#000000" r="2" stroke="none" stroke-width="2"/>
   <text fill="#999999" font-family="sans-serif" font-size="12" x="785" y="250">S</text>
   <path d="M318,21 V85 H728 V245 H767" fill="none" stroke="#000000" stroke-linecap="square" stroke-width="3"/>
   <circle cx="758" cy="245" fill="#000000" r="2" stroke="none" stroke-width="3"/>
   <text fill="#000000" font-family="sans-serif" font-size="12" x="772" y="249">D</text>
   <path d="M769,281 L776,285 L769,289" fill="none" stroke="#000000" stroke-linecap="square" stroke-width="2"/>
   <path d="M758,285 H767" fill="none" stroke="#000000" stroke-linecap="square" stroke-width="2"/>
   <circle cx="758" cy="285" fill="#000000" r="2" stroke="none" stroke-width="2"/>
   <path d="M809,245 H868 V205 H738 V155 H778" fill="none" stroke="#000000" stroke-linecap="square" stroke-width="3"/>
   <text fill="#000000" font-family="sans-serif" font-size="12" x="795" y="249">Q</text>
   <circle cx="818" cy="245" fill="#000000" r="2" stroke="none" stroke-width="3"/>
   <circle cx="813" cy="285" fill="none" r="5" stroke="#000000" stroke-width="2"/>
   <circle cx="818" cy="285" fill="#000000" r="2" stroke="none" stroke-width="2"/>
   <path d="M423,160 A25,25 90 0,0 423,110" fill="none" stroke="#000000" stroke-width="2"/>
   <path d="M423,110 H399 V160 H423" fill="none" stroke="#000000" stroke-linecap="square" stroke-width="2"/>
   <path d="M803,160 A25,25 90 0,0 803,110" fill="none" stroke="#000000" stroke-width="2"/>
   <path d="M803,110 H779 V160 H803" fill="none" stroke="#000000" stroke-linecap="square" stroke-width="2"/>
   <rect fill="none" height="60" stroke="#000000" stroke-linecap="square" stroke-width="2" width="40" x="628" y="235"/>
   <circle cx="648" cy="295" fill="#000000" r="2" stroke="none" stroke-width="2"/>
   <text fill="#999999" font-family="sans-serif" font-size="12" x="644" y="292">R</text>
   <circle cx="648" cy="235" fill="#000000" r="2" stroke="none" stroke-width="2"/>
   <text fill="#999999" font-family="sans-serif" font-size="12" x="645" y="250">S</text>
   <path d="M308,21 V95 H528 V245 H627" fill="none" stroke="#000000" stroke-linecap="square" stroke-width="3"/>
   <circle cx="618" cy="245" fill="#000000" r="2" stroke="none" stroke-width="3"/>
   <text fill="#000000" font-family="sans-serif" font-size="12" x="632" y="249">D</text>
   <path d="M629,281 L636,285 L629,289" fill="none" stroke="#000000" stroke-linecap="square" stroke-width="2"/>
   <path d="M618,285 H627" fill="none" stroke="#000000" stroke-linecap="square" stroke-width="2"/>
   <circle cx="618" cy="285" fill="#000000" r="2" stroke="none" stroke-width="2"/>
   <path d="M669,245 H718 V205 H588 V155 H628" fill="none" stroke="#000000" stroke-linecap="square" stroke-width="3"/>
   <text fill="#000000" font-family="sans-serif" font-size="12" x="655" y="249">Q</text>
   <circle cx="678" cy="245" fill="#000000" r="2" stroke="none" stroke-width="3"/>
   <circle cx="673" cy="285" fill="none" r="5" stroke="#000000" stroke-width="2"/>
   <circle cx="678" cy="285" fill="#000000" r="2" stroke="none" stroke-width="2"/>
   <path d="M133,345 H278" fill="none" stroke="#000000" stroke-linecap="square" stroke-width="3"/>
   <path d="M99,336 H123 L133,345 L123,354 H99 Z" fill="none" stroke="#000000" stroke-linecap="square" stroke-width="2"/>
   <text fill="#000000" font-family="monospace" font-size="12" x="104" y="351">x1</text>
   <text fill="#000000" font-family="sans-serif" font-size="16" font-weight="bold" x="44" y="353">waddr</text>
   <circle cx="138" cy="345" fill="#000000" r="2" stroke="none" stroke-width="2"/>
   <path d="M103,615 H418 V645 H518" fill="none" stroke="#000000" stroke-linecap="square" stroke-width="3"/>
   <path d="M69,606 H93 L103,615 L93,624 H69 Z" fill="none" stroke="#000000" stroke-linecap="square" stroke-width="2"/>
   <text fill="#000000" font-family="monospace" font-size="12" x="74" y="621">x1</text>
   <text fill="#000000" font-family="sans-serif" font-size="16" font-weight="bold" x="10" y="623">raddr1</text>
   <circle cx="108" cy="615" fill="#000000" r="2" stroke="none" stroke-width="2"/>
   <path d="M543,690 A25,25 90 0,0 543,640" fill="none" stroke="#000000" stroke-width="2"/>
   <path d="M543,640 H519 V690 H543" fill="none" stroke="#000000" stroke-linecap="square" stroke-width="2"/>
   <path d="M753,690 A25,25 90 0,0 753,640" fill="none" stroke="#000000" stroke-width="2"/>
   <path d="M753,640 H729 V690 H753" fill="none" stroke="#000000" stroke-linecap="square" stroke-width="2"/>
   <path d="M923,690 A25,25 90 0,0 923,640" fill="none" stroke="#000000" stroke-width="2"/>
   <path d="M923,640 H899 V690 H923" fill="none" stroke="#000000" stroke-linecap="square" stroke-width="2"/>
   <path d="M1143,680 A25,25 90 0,0 1143,630" fill="none" stroke="#000000" stroke-width="2"/>
   <path d="M1143,630 H1119 V680 H1143" fill="none" stroke="#000000" stroke-linecap="square" stroke-width="2"/>
   <path d="M1703,690 A25,25 90 0,0 1703,640" fill="none" stroke="#000000" stroke-width="2"/>
   <path d="M1703,640 H1679 V690 H1703" fill="none" stroke="#000000" stroke-linecap="square" stroke-width="2"/>
   <path d="M1533,690 A25,25 90 0,0 1533,640" fill="none" stroke="#000000" stroke-width="2"/>
   <path d="M1533,640 H1509 V690 H1533" fill="none" stroke="#000000" stroke-linecap="square" stroke-width="2"/>
   <path d="M1323,690 A25,25 90 0,0 1323,640" fill="none" stroke="#000000" stroke-width="2"/>
   <path d="M1323,640 H1299 V690 H1323" fill="none" stroke="#000000" stroke-linecap="square" stroke-width="2"/>
   <path d="M1923,680 A25,25 90 0,0 1923,630" fill="none" stroke="#000000" stroke-width="2"/>
   <path d="M1923,630 H1899 V680 H1923" fill="none" stroke="#000000" stroke-linecap="square" stroke-width="2"/>
   <path d="M1948,655 H1978 V795 H138 V809" fill="none" stroke="#000000" stroke-linecap="square" stroke-width="3"/>
   <path d="M1728,665 H1748 V785 H128 V809" fill="none" stroke="#000000" stroke-linecap="square" stroke-width="3"/>
   <path d="M1558,665 H1578 V775 H118 V809" fill="none" stroke="#000000" stroke-linecap="square" stroke-width="3"/>
   <path d="M1348,665 H1368 V765 H108 V809" fill="none" stroke="#000000" stroke-linecap="square" stroke-width="3"/>
   <path d="M1168,655 H1188 V755 H98 V809" fill="none" stroke="#000000" stroke-linecap="square" stroke-width="3"/>
   <path d="M948,665 H968 V745 H88 V809" fill="none" stroke="#000000" stroke-linecap="square" stroke-width="3"/>
   <path d="M778,665 H798 V735 H78 V809" fill="none" stroke="#000000" stroke-linecap="square" stroke-width="3"/>
   <path d="M568,665 H608 V725 H68 V809" fill="none" stroke="#000000" stroke-linecap="square" stroke-width="3"/>
   <path d="M69,809 H142 L147,814" fill="none" stroke="#000000" stroke-linecap="square" stroke-width="5"/>
   <text fill="#000000" font-family="sans-serif" font-size="7" transform="rotate(90,141,802)" x="141" y="802">0</text>
   <text fill="#000000" font-family="sans-serif" font-size="7" transform="rotate(90,131,802)" x="131" y="802">1</text>
   <text fill="#000000" font-family="sans-serif" font-size="7" transform="rotate(90,121,802)" x="121" y="802">2</text>
   <text fill="#000000" font-family="sans-serif" font-size="7" transform="rotate(90,111,802)" x="111" y="802">3</text>
   <text fill="#000000" font-family="sans-serif" font-size="7" transform="rotate(90,101,802)" x="101" y="802">4</text>
   <text fill="#000000" font-family="sans-serif" font-size="7" transform="rotate(90,91,802)" x="91" y="802">5</text>
   <text fill="#000000" font-family="sans-serif" font-size="7" transform="rotate(90,81,802)" x="81" y="802">6</text>
   <text fill="#000000" font-family="sans-serif" font-size="7" transform="rotate(90,71,802)" x="71" y="802">7</text>
   <circle cx="148" cy="815" fill="#000000" r="2" stroke="none" stroke-width="5"/>
   <circle cx="138" cy="795" fill="#000000" r="2" stroke="none" stroke-width="5"/>
   <circle cx="128" cy="795" fill="#000000" r="2" stroke="none" stroke-width="5"/>
   <circle cx="118" cy="795" fill="#000000" r="2" stroke="none" stroke-width="5"/>
   <circle cx="108" cy="795" fill="#000000" r="2" stroke="none" stroke-width="5"/>
   <circle cx="98" cy="795" fill="#000000" r="2" stroke="none" stroke-width="5"/>
   <circle cx="88" cy="795" fill="#000000" r="2" stroke="none" stroke-width="5"/>
   <circle cx="78" cy="795" fill="#000000" r="2" stroke="none" stroke-width="5"/>
   <circle cx="68" cy="795" fill="#000000" r="2" stroke="none" stroke-width="5"/>
   <path d="M212,815 H211" fill="none" stroke="#000000" stroke-linecap="square" stroke-width="4"/>
   <path d="M214,806 H308 L318,815 L308,824 H214 Z" fill="none" stroke="#000000" stroke-linecap="square" stroke-width="2"/>
   <text fill="#000000" font-family="monospace" font-size="12" x="249" y="821">x8</text>
   <text fill="#000000" font-family="sans-serif" font-size="16" font-weight="bold" x="320" y="823">rdata1</text>
   <circle cx="208" cy="815" fill="#000000" r="2" stroke="none" stroke-width="2"/>
</svg>
