<?xml version="1.0" encoding="UTF-8" standalone="no"?>
<svg xmlns="http://www.w3.org/2000/svg" height="202" version="1.1" viewBox="0 0 533 202" width="533">
   <path d="M281,15 H341" fill="none" stroke="#000000" stroke-linecap="square" stroke-width="4"/>
   <path d="M281,25 H341" fill="none" stroke="#000000" stroke-linecap="square" stroke-width="4"/>
   <path d="M281,35 H341" fill="none" stroke="#000000" stroke-linecap="square" stroke-width="4"/>
   <path d="M331,165 H391" fill="none" stroke="#000000" stroke-linecap="square" stroke-width="4"/>
   <path d="M218,55 H261" fill="none" stroke="#000000" stroke-linecap="square" stroke-width="4"/>
   <path d="M112,46 H206 L216,55 L206,64 H112 Z" fill="none" stroke="#000000" stroke-linecap="square" stroke-width="2"/>
   <text fill="#000000" font-family="monospace" font-size="12" x="152" y="61">x8</text>
   <text fill="#000000" font-family="sans-serif" font-size="16" font-weight="bold" x="84" y="63">ins</text>
   <circle cx="221" cy="55" fill="#000000" r="2" stroke="none" stroke-width="2"/>
   <path d="M281,15 H267" fill="none" stroke="#000000" stroke-linecap="square" stroke-width="3"/>
   <path d="M281,25 H267" fill="none" stroke="#000000" stroke-linecap="square" stroke-width="3"/>
   <path d="M281,35 H267" fill="none" stroke="#000000" stroke-linecap="square" stroke-width="3"/>
   <path d="M281,45 H267" fill="none" stroke="#000000" stroke-linecap="square" stroke-width="3"/>
   <path d="M267,16 V49 L262,54" fill="none" stroke="#000000" stroke-linecap="square" stroke-width="5"/>
   <text fill="#000000" font-family="sans-serif" font-size="7" x="270" y="22">1-0</text>
   <text fill="#000000" font-family="sans-serif" font-size="7" x="270" y="32">3-2</text>
   <text fill="#000000" font-family="sans-serif" font-size="7" x="270" y="42">5-4</text>
   <text fill="#000000" font-family="sans-serif" font-size="7" x="270" y="52">7-6</text>
   <circle cx="261" cy="55" fill="#000000" r="2" stroke="none" stroke-width="5"/>
   <circle cx="281" cy="15" fill="#000000" r="2" stroke="none" stroke-width="5"/>
   <circle cx="281" cy="25" fill="#000000" r="2" stroke="none" stroke-width="5"/>
   <circle cx="281" cy="35" fill="#000000" r="2" stroke="none" stroke-width="5"/>
   <circle cx="281" cy="45" fill="#000000" r="2" stroke="none" stroke-width="5"/>
   <path d="M345,15 H344" fill="none" stroke="#000000" stroke-linecap="square" stroke-width="4"/>
   <path d="M347,6 H381 L391,15 L381,24 H347 Z" fill="none" stroke="#000000" stroke-linecap="square" stroke-width="2"/>
   <text fill="#000000" font-family="monospace" font-size="12" x="352" y="21">x2</text>
   <text fill="#000000" font-family="sans-serif" font-size="16" font-weight="bold" x="393" y="23">rs2</text>
   <circle cx="341" cy="15" fill="#000000" r="2" stroke="none" stroke-width="2"/>
   <path d="M345,25 H344" fill="none" stroke="#000000" stroke-linecap="square" stroke-width="4"/>
   <path d="M347,16 H381 L391,25 L381,34 H347 Z" fill="none" stroke="#000000" stroke-linecap="square" stroke-width="2"/>
   <text fill="#000000" font-family="monospace" font-size="12" x="352" y="31">x2</text>
   <text fill="#000000" font-family="sans-serif" font-size="16" font-weight="bold" x="393" y="33">rs1</text>
   <circle cx="341" cy="25" fill="#000000" r="2" stroke="none" stroke-width="2"/>
   <path d="M345,35 H344" fill="none" stroke="#000000" stroke-linecap="square" stroke-width="4"/>
   <path d="M347,26 H381 L391,35 L381,44 H347 Z" fill="none" stroke="#000000" stroke-linecap="square" stroke-width="2"/>
   <text fill="#000000" font-family="monospace" font-size="12" x="352" y="41">x2</text>
   <text fill="#000000" font-family="sans-serif" font-size="16" font-weight="bold" x="393" y="43">rd</text>
   <circle cx="341" cy="35" fill="#000000" r="2" stroke="none" stroke-width="2"/>
   <path d="M148,135 H241 V155 H291" fill="none" stroke="#000000" stroke-linecap="square" stroke-width="4"/>
   <path d="M42,126 H136 L146,135 L136,144 H42 Z" fill="none" stroke="#000000" stroke-linecap="square" stroke-width="2"/>
   <text fill="#000000" font-family="monospace" font-size="12" x="82" y="141">x8</text>
   <text fill="#000000" font-family="sans-serif" font-size="16" font-weight="bold" x="5" y="143">rrs1</text>
   <circle cx="151" cy="135" fill="#000000" r="2" stroke="none" stroke-width="2"/>
   <path d="M148,185 H241 V175 H291" fill="none" stroke="#000000" stroke-linecap="square" stroke-width="4"/>
   <path d="M42,176 H136 L146,185 L136,194 H42 Z" fill="none" stroke="#000000" stroke-linecap="square" stroke-width="2"/>
   <text fill="#000000" font-family="monospace" font-size="12" x="82" y="191">x8</text>
   <text fill="#000000" font-family="sans-serif" font-size="16" font-weight="bold" x="5" y="193">rrs2</text>
   <circle cx="151" cy="185" fill="#000000" r="2" stroke="none" stroke-width="2"/>
   <rect fill="none" height="40" stroke="#000000" stroke-linecap="square" stroke-width="2" width="40" x="291" y="145"/>
   <circle cx="291" cy="155" fill="#000000" r="2" stroke="none" stroke-width="1"/>
   <circle cx="291" cy="175" fill="#000000" r="2" stroke="none" stroke-width="1"/>
   <circle cx="331" cy="165" fill="#000000" r="2" stroke="none" stroke-width="1"/>
   <circle cx="311" cy="145" fill="#000000" r="2" stroke="none" stroke-width="1"/>
   <text fill="#999999" font-family="sans-serif" font-size="12" x="301" y="160">c in</text>
   <circle cx="311" cy="185" fill="#000000" r="2" stroke="none" stroke-width="1"/>
   <text fill="#999999" font-family="sans-serif" font-size="12" x="297" y="182">c out</text>
   <path d="M316,165 H326" fill="none" stroke="#000000" stroke-linecap="square" stroke-width="2"/>
   <path d="M321,160 V170" fill="none" stroke="#000000" stroke-linecap="square" stroke-width="2"/>
   <path d="M395,165 H394" fill="none" stroke="#000000" stroke-linecap="square" stroke-width="4"/>
   <path d="M397,156 H491 L501,165 L491,174 H397 Z" fill="none" stroke="#000000" stroke-linecap="square" stroke-width="2"/>
   <text fill="#000000" font-family="monospace" font-size="12" x="432" y="171">x8</text>
   <text fill="#000000" font-family="sans-serif" font-size="16" font-weight="bold" x="503" y="173">rrd</text>
   <circle cx="391" cy="165" fill="#000000" r="2" stroke="none" stroke-width="2"/>
</svg>
