<?xml version="1.0" encoding="UTF-8" standalone="no"?>
<svg xmlns="http://www.w3.org/2000/svg" height="197" version="1.1" viewBox="0 0 498 197" width="498">
   <path d="M339,140 H429" fill="none" stroke="#000000" stroke-linecap="square" stroke-width="3"/>
   <path d="M399,30 H429" fill="none" stroke="#000000" stroke-linecap="square" stroke-width="3"/>
   <path d="M89,90 V140 H119" fill="none" stroke="#000000" stroke-linecap="square" stroke-width="3"/>
   <circle cx="89" cy="90" fill="#000000" r="5" stroke="none" stroke-width="3"/>
   <circle cx="399" cy="30" fill="#000000" r="5" stroke="none" stroke-width="3"/>
   <circle cx="369" cy="140" fill="#000000" r="5" stroke="none" stroke-width="3"/>
   <path d="M159,70 H169 V10 H281" fill="none" stroke="#000000" stroke-linecap="square" stroke-width="3"/>
   <path d="M369,140 V80 H199 V50 H281" fill="none" stroke="#000000" stroke-linecap="square" stroke-width="3"/>
   <path d="M329,30 Q309,5 279,5 Q292,30 279,55 Q309,55 329,30 Z" fill="none" stroke="#000000" stroke-linecap="square" stroke-width="2"/>
   <circle cx="334" cy="30" fill="none" r="4.5" stroke="#000000" stroke-width="2"/>
   <path d="M433,140 H430" fill="none" stroke="#000000" stroke-linecap="square" stroke-width="3"/>
   <path d="M435,131 H459 L469,140 L459,149 H435 Z" fill="none" stroke="#000000" stroke-linecap="square" stroke-width="2"/>
   <text fill="#000000" font-family="monospace" font-size="12" x="435" y="147">x1</text>
   <text fill="#000000" font-family="sans-serif" font-size="16" font-weight="bold" x="471" y="148">nQ</text>
   <circle cx="429" cy="140" fill="#000000" r="2" stroke="none" stroke-width="2"/>
   <path d="M433,30 H430" fill="none" stroke="#000000" stroke-linecap="square" stroke-width="3"/>
   <path d="M435,21 H459 L469,30 L459,39 H435 Z" fill="none" stroke="#000000" stroke-linecap="square" stroke-width="2"/>
   <text fill="#000000" font-family="monospace" font-size="12" x="435" y="37">x1</text>
   <text fill="#000000" font-family="sans-serif" font-size="16" font-weight="bold" x="471" y="38">Q</text>
   <circle cx="429" cy="30" fill="#000000" r="2" stroke="none" stroke-width="2"/>
   <path d="M339,30 H399 V100 H199 V120 H281" fill="none" stroke="#000000" stroke-linecap="square" stroke-width="3"/>
   <path d="M169,160 H281" fill="none" stroke="#000000" stroke-linecap="square" stroke-width="3"/>
   <path d="M329,140 Q309,115 279,115 Q292,140 279,165 Q309,165 329,140 Z" fill="none" stroke="#000000" stroke-linecap="square" stroke-width="2"/>
   <circle cx="334" cy="140" fill="none" r="4.5" stroke="#000000" stroke-width="2"/>
   <path d="M134,95 A25,25 90 0,0 134,45" fill="none" stroke="#000000" stroke-width="2"/>
   <path d="M134,45 H110 V95 H134" fill="none" stroke="#000000" stroke-linecap="square" stroke-width="2"/>
   <path d="M54,90 H109" fill="none" stroke="#000000" stroke-linecap="square" stroke-width="3"/>
   <path d="M20,81 H44 L54,90 L44,99 H20 Z" fill="none" stroke="#000000" stroke-linecap="square" stroke-width="2"/>
   <text fill="#000000" font-family="monospace" font-size="12" x="25" y="97">x1</text>
   <circle cx="59" cy="90" fill="#000000" r="2" stroke="none" stroke-width="2"/>
   <path d="M144,185 A25,25 90 0,0 144,135" fill="none" stroke="#000000" stroke-width="2"/>
   <path d="M144,135 H120 V185 H144" fill="none" stroke="#000000" stroke-linecap="square" stroke-width="2"/>
   <path d="M64,180 H119" fill="none" stroke="#000000" stroke-linecap="square" stroke-width="3"/>
   <path d="M30,171 H54 L64,180 L54,189 H30 Z" fill="none" stroke="#000000" stroke-linecap="square" stroke-width="2"/>
   <text fill="#000000" font-family="monospace" font-size="12" x="35" y="187">x1</text>
   <text fill="#000000" font-family="sans-serif" font-size="16" font-weight="bold" x="16" y="188">S</text>
   <circle cx="69" cy="180" fill="#000000" r="2" stroke="none" stroke-width="2"/>
   <path d="M54,50 H109" fill="none" stroke="#000000" stroke-linecap="square" stroke-width="3"/>
   <path d="M20,41 H44 L54,50 L44,59 H20 Z" fill="none" stroke="#000000" stroke-linecap="square" stroke-width="2"/>
   <text fill="#000000" font-family="monospace" font-size="12" x="25" y="57">x1</text>
   <text fill="#000000" font-family="sans-serif" font-size="16" font-weight="bold" x="5" y="58">R</text>
   <circle cx="59" cy="50" fill="#000000" r="2" stroke="none" stroke-width="2"/>
</svg>
