<?xml version="1.0" encoding="UTF-8" standalone="no"?>
<svg xmlns="http://www.w3.org/2000/svg" height="112" version="1.1" viewBox="0 0 231 112" width="231">
   <rect fill="#000000" height="3" stroke="none" stroke-linecap="square" stroke-width="1" width="10" x="5" y="15"/>
   <text fill="#404040" font-family="Dialog" font-size="12" x="20" y="20">A1</text>
   <rect fill="#000000" height="3" stroke="none" stroke-linecap="square" stroke-width="1" width="10" x="5" y="35"/>
   <text fill="#404040" font-family="Dialog" font-size="12" x="20" y="40">A0</text>
   <rect fill="#000000" height="3" stroke="none" stroke-linecap="square" stroke-width="1" width="10" x="215" y="15"/>
   <text fill="#404040" font-family="Dialog" font-size="12" x="195" y="20">Y3</text>
   <rect fill="#000000" height="3" stroke="none" stroke-linecap="square" stroke-width="1" width="10" x="215" y="35"/>
   <text fill="#404040" font-family="Dialog" font-size="12" x="195" y="40">Y2</text>
   <rect fill="#000000" height="3" stroke="none" stroke-linecap="square" stroke-width="1" width="10" x="215" y="55"/>
   <text fill="#404040" font-family="Dialog" font-size="12" x="195" y="60">Y1</text>
   <rect fill="#000000" height="3" stroke="none" stroke-linecap="square" stroke-width="1" width="10" x="215" y="75"/>
   <text fill="#404040" font-family="Dialog" font-size="12" x="195" y="80">Y0</text>
   <rect fill="#000000" height="20" stroke="none" stroke-linecap="square" stroke-width="1" width="200" x="15" y="86"/>
   <rect fill="none" height="100" stroke="#000000" stroke-linecap="square" stroke-width="2" width="200" x="15" y="6"/>
   <text fill="#FFFFFF" font-family="Dialog" font-size="14" font-weight="bold" x="104" y="100">tfd</text>
   <circle cx="5" cy="16" fill="#000000" r="2" stroke="none" stroke-width="1"/>
   <circle cx="5" cy="36" fill="#000000" r="2" stroke="none" stroke-width="1"/>
   <circle cx="225" cy="16" fill="#000000" r="2" stroke="none" stroke-width="1"/>
   <circle cx="225" cy="36" fill="#000000" r="2" stroke="none" stroke-width="1"/>
   <circle cx="225" cy="56" fill="#000000" r="2" stroke="none" stroke-width="1"/>
   <circle cx="225" cy="76" fill="#000000" r="2" stroke="none" stroke-width="1"/>
</svg>
