<?xml version="1.0" encoding="UTF-8" standalone="no"?>
<svg xmlns="http://www.w3.org/2000/svg" height="995" version="1.1" viewBox="0 0 1947 995" width="1947">
   <path d="M1419,325 H1519" fill="none" stroke="#000000" stroke-linecap="square" stroke-width="3"/>
   <path d="M1779,885 H1829" fill="none" stroke="#000000" stroke-linecap="square" stroke-width="3"/>
   <path d="M499,785 H629" fill="none" stroke="#000000" stroke-linecap="square" stroke-width="4"/>
   <path d="M169,845 H259 V805 H279" fill="none" stroke="#000000" stroke-linecap="square" stroke-width="3"/>
   <path d="M1499,15 H1569" fill="none" stroke="#000000" stroke-linecap="square" stroke-width="4"/>
   <path d="M1199,345 H1189 V605 H1129 V845 H1569" fill="none" stroke="#000000" stroke-linecap="square" stroke-width="3"/>
   <path d="M1419,305 H1429" fill="none" stroke="#000000" stroke-linecap="square" stroke-width="3"/>
   <path d="M1129,845 V965 H1559" fill="none" stroke="#000000" stroke-linecap="square" stroke-width="3"/>
   <path d="M1089,325 H1139 V305 H1199" fill="none" stroke="#000000" stroke-linecap="square" stroke-width="3"/>
   <path d="M1569,825 H1099 V505 H1159 V325 H1199" fill="none" stroke="#000000" stroke-linecap="square" stroke-width="3"/>
   <path d="M869,305 H809 V325 H769" fill="none" stroke="#000000" stroke-linecap="square" stroke-width="3"/>
   <path d="M549,305 H489 V325 H449" fill="none" stroke="#000000" stroke-linecap="square" stroke-width="3"/>
   <path d="M1429,865 H1559" fill="none" stroke="#000000" stroke-linecap="square" stroke-width="3"/>
   <path d="M1099,825 V945 H1559" fill="none" stroke="#000000" stroke-linecap="square" stroke-width="3"/>
   <path d="M1549,15 V255 H1619 V685 H149 V785 H279" fill="none" stroke="#000000" stroke-linecap="square" stroke-width="4"/>
   <circle cx="1129" cy="605" fill="#000000" r="5" stroke="none" stroke-width="4"/>
   <circle cx="1429" cy="305" fill="#000000" r="5" stroke="none" stroke-width="4"/>
   <circle cx="1099" cy="825" fill="#000000" r="5" stroke="none" stroke-width="4"/>
   <circle cx="1429" cy="865" fill="#000000" r="5" stroke="none" stroke-width="4"/>
   <circle cx="1549" cy="15" fill="#000000" r="6" stroke="none" stroke-width="4"/>
   <circle cx="1129" cy="845" fill="#000000" r="5" stroke="none" stroke-width="4"/>
   <circle cx="1099" cy="505" fill="#000000" r="5" stroke="none" stroke-width="4"/>
   <path d="M229,345 H199 V575 H145" fill="none" stroke="#000000" stroke-linecap="square" stroke-width="3"/>
   <path d="M549,345 H539 V585 H145" fill="none" stroke="#000000" stroke-linecap="square" stroke-width="3"/>
   <path d="M869,345 H849 V595 H145" fill="none" stroke="#000000" stroke-linecap="square" stroke-width="3"/>
   <path d="M1129,605 H145" fill="none" stroke="#000000" stroke-linecap="square" stroke-width="3"/>
   <path d="M145,576 V609 L140,614" fill="none" stroke="#000000" stroke-linecap="square" stroke-width="5"/>
   <text fill="#000000" font-family="sans-serif" font-size="7" x="148" y="582">0</text>
   <text fill="#000000" font-family="sans-serif" font-size="7" x="148" y="592">1</text>
   <text fill="#000000" font-family="sans-serif" font-size="7" x="148" y="602">2</text>
   <text fill="#000000" font-family="sans-serif" font-size="7" x="148" y="612">3</text>
   <circle cx="139" cy="615" fill="#000000" r="2" stroke="none" stroke-width="5"/>
   <circle cx="159" cy="575" fill="#000000" r="2" stroke="none" stroke-width="5"/>
   <circle cx="159" cy="585" fill="#000000" r="2" stroke="none" stroke-width="5"/>
   <circle cx="159" cy="595" fill="#000000" r="2" stroke="none" stroke-width="5"/>
   <circle cx="159" cy="605" fill="#000000" r="2" stroke="none" stroke-width="5"/>
   <rect fill="#000000" height="3" stroke="none" stroke-linecap="square" stroke-width="1" width="10" x="869" y="304"/>
   <text fill="#404040" font-family="Dialog" font-size="12" x="884" y="309">Cin</text>
   <rect fill="#000000" height="3" stroke="none" stroke-linecap="square" stroke-width="1" width="10" x="869" y="324"/>
   <text fill="#404040" font-family="Dialog" font-size="12" x="884" y="329">A</text>
   <rect fill="#000000" height="3" stroke="none" stroke-linecap="square" stroke-width="1" width="10" x="869" y="344"/>
   <text fill="#404040" font-family="Dialog" font-size="12" x="884" y="349">B</text>
   <rect fill="#000000" height="3" stroke="none" stroke-linecap="square" stroke-width="1" width="10" x="1079" y="304"/>
   <text fill="#404040" font-family="Dialog" font-size="12" x="1068" y="309">S</text>
   <rect fill="#000000" height="3" stroke="none" stroke-linecap="square" stroke-width="1" width="10" x="1079" y="324"/>
   <text fill="#404040" font-family="Dialog" font-size="12" x="1048" y="329">Cout</text>
   <rect fill="#000000" height="20" stroke="none" stroke-linecap="square" stroke-width="1" width="200" x="879" y="355"/>
   <rect fill="none" height="80" stroke="#000000" stroke-linecap="square" stroke-width="2" width="200" x="879" y="295"/>
   <text fill="#FFFFFF" font-family="Dialog" font-size="14" font-weight="bold" x="942" y="369">full_add_1</text>
   <circle cx="869" cy="305" fill="#000000" r="2" stroke="none" stroke-width="1"/>
   <circle cx="869" cy="325" fill="#000000" r="2" stroke="none" stroke-width="1"/>
   <circle cx="869" cy="345" fill="#000000" r="2" stroke="none" stroke-width="1"/>
   <circle cx="1089" cy="305" fill="#000000" r="2" stroke="none" stroke-width="1"/>
   <circle cx="1089" cy="325" fill="#000000" r="2" stroke="none" stroke-width="1"/>
   <text fill="#000000" font-family="monospace" font-size="12" x="159" y="849">1</text>
   <circle cx="169" cy="845" fill="#000000" r="2" stroke="none" stroke-width="1"/>
   <rect fill="#000000" height="3" stroke="none" stroke-linecap="square" stroke-width="1" width="10" x="1199" y="304"/>
   <text fill="#404040" font-family="Dialog" font-size="12" x="1214" y="309">Cin</text>
   <rect fill="#000000" height="3" stroke="none" stroke-linecap="square" stroke-width="1" width="10" x="1199" y="324"/>
   <text fill="#404040" font-family="Dialog" font-size="12" x="1214" y="329">A</text>
   <rect fill="#000000" height="3" stroke="none" stroke-linecap="square" stroke-width="1" width="10" x="1199" y="344"/>
   <text fill="#404040" font-family="Dialog" font-size="12" x="1214" y="349">B</text>
   <rect fill="#000000" height="3" stroke="none" stroke-linecap="square" stroke-width="1" width="10" x="1409" y="304"/>
   <text fill="#404040" font-family="Dialog" font-size="12" x="1398" y="309">S</text>
   <rect fill="#000000" height="3" stroke="none" stroke-linecap="square" stroke-width="1" width="10" x="1409" y="324"/>
   <text fill="#404040" font-family="Dialog" font-size="12" x="1378" y="329">Cout</text>
   <rect fill="#000000" height="20" stroke="none" stroke-linecap="square" stroke-width="1" width="200" x="1209" y="355"/>
   <rect fill="none" height="80" stroke="#000000" stroke-linecap="square" stroke-width="2" width="200" x="1209" y="295"/>
   <text fill="#FFFFFF" font-family="Dialog" font-size="14" font-weight="bold" x="1272" y="369">full_add_1</text>
   <circle cx="1199" cy="305" fill="#000000" r="2" stroke="none" stroke-width="1"/>
   <circle cx="1199" cy="325" fill="#000000" r="2" stroke="none" stroke-width="1"/>
   <circle cx="1199" cy="345" fill="#000000" r="2" stroke="none" stroke-width="1"/>
   <circle cx="1419" cy="305" fill="#000000" r="2" stroke="none" stroke-width="1"/>
   <circle cx="1419" cy="325" fill="#000000" r="2" stroke="none" stroke-width="1"/>
   <path d="M86,525 H139 V515" fill="none" stroke="#000000" stroke-linecap="square" stroke-width="4"/>
   <path d="M20,516 H74 L84,525 L74,534 H20 Z" fill="none" stroke="#000000" stroke-linecap="square" stroke-width="2"/>
   <text fill="#000000" font-family="monospace" font-size="12" x="40" y="531">x4</text>
   <text fill="#000000" font-family="sans-serif" font-size="16" font-weight="bold" x="5" y="533">A</text>
   <circle cx="89" cy="525" fill="#000000" r="2" stroke="none" stroke-width="2"/>
   <path d="M1573,15 H1572" fill="none" stroke="#000000" stroke-linecap="square" stroke-width="4"/>
   <path d="M1575,6 H1629 L1639,15 L1629,24 H1575 Z" fill="none" stroke="#000000" stroke-linecap="square" stroke-width="2"/>
   <text fill="#000000" font-family="monospace" font-size="12" x="1590" y="21">x4</text>
   <text fill="#000000" font-family="sans-serif" font-size="16" font-weight="bold" x="1641" y="23">S</text>
   <circle cx="1569" cy="15" fill="#000000" r="2" stroke="none" stroke-width="2"/>
   <path d="M449,305 V25 H1493" fill="none" stroke="#000000" stroke-linecap="square" stroke-width="3"/>
   <path d="M769,305 H799 V35 H1493" fill="none" stroke="#000000" stroke-linecap="square" stroke-width="3"/>
   <path d="M1089,305 H1109 V45 H1493" fill="none" stroke="#000000" stroke-linecap="square" stroke-width="3"/>
   <path d="M1569,985 H1429 V305 H1439 V55 H1493" fill="none" stroke="#000000" stroke-linecap="square" stroke-width="3"/>
   <path d="M1493,54 V21 L1498,16" fill="none" stroke="#000000" stroke-linecap="square" stroke-width="5"/>
   <text fill="#000000" font-family="sans-serif" font-size="7" x="1486" y="22">0</text>
   <text fill="#000000" font-family="sans-serif" font-size="7" x="1486" y="32">1</text>
   <text fill="#000000" font-family="sans-serif" font-size="7" x="1486" y="42">2</text>
   <text fill="#000000" font-family="sans-serif" font-size="7" x="1486" y="52">3</text>
   <circle cx="1499" cy="15" fill="#000000" r="2" stroke="none" stroke-width="5"/>
   <circle cx="1479" cy="25" fill="#000000" r="2" stroke="none" stroke-width="5"/>
   <circle cx="1479" cy="35" fill="#000000" r="2" stroke="none" stroke-width="5"/>
   <circle cx="1479" cy="45" fill="#000000" r="2" stroke="none" stroke-width="5"/>
   <circle cx="1479" cy="55" fill="#000000" r="2" stroke="none" stroke-width="5"/>
   <rect fill="none" height="60" stroke="#000000" stroke-linecap="square" stroke-width="2" width="40" x="724" y="765"/>
   <rect fill="#404040" height="4" stroke="none" stroke-linecap="square" stroke-width="1" width="19" x="732" y="773"/>
   <rect fill="#404040" height="19" stroke="none" stroke-linecap="square" stroke-width="1" width="4" x="752" y="775"/>
   <rect fill="#404040" height="19" stroke="none" stroke-linecap="square" stroke-width="1" width="4" x="752" y="795"/>
   <rect fill="#404040" height="4" stroke="none" stroke-linecap="square" stroke-width="1" width="19" x="732" y="812"/>
   <rect fill="#404040" height="19" stroke="none" stroke-linecap="square" stroke-width="1" width="4" x="727" y="795"/>
   <rect fill="#404040" height="19" stroke="none" stroke-linecap="square" stroke-width="1" width="4" x="727" y="775"/>
   <rect fill="#404040" height="4" stroke="none" stroke-linecap="square" stroke-width="1" width="19" x="732" y="793"/>
   <circle cx="759" cy="815" fill="#404040" r="2.5" stroke="none" stroke-width="1"/>
   <circle cx="749" cy="765" fill="#000000" r="2" stroke="none" stroke-width="1"/>
   <circle cx="759" cy="765" fill="#000000" r="2" stroke="none" stroke-width="1"/>
   <circle cx="749" cy="825" fill="#000000" r="2" stroke="none" stroke-width="1"/>
   <circle cx="739" cy="825" fill="#000000" r="2" stroke="none" stroke-width="1"/>
   <circle cx="729" cy="825" fill="#000000" r="2" stroke="none" stroke-width="1"/>
   <circle cx="739" cy="765" fill="#000000" r="2" stroke="none" stroke-width="1"/>
   <circle cx="729" cy="765" fill="#000000" r="2" stroke="none" stroke-width="1"/>
   <circle cx="759" cy="825" fill="#000000" r="2" stroke="none" stroke-width="1"/>
   <path d="M1523,325 H1520" fill="none" stroke="#000000" stroke-linecap="square" stroke-width="3"/>
   <path d="M1525,316 H1549 L1559,325 L1549,334 H1525 Z" fill="none" stroke="#000000" stroke-linecap="square" stroke-width="2"/>
   <text fill="#000000" font-family="monospace" font-size="12" x="1525" y="331">x1</text>
   <text fill="#000000" font-family="sans-serif" font-size="16" font-weight="bold" x="1561" y="333">Cout</text>
   <circle cx="1519" cy="325" fill="#000000" r="2" stroke="none" stroke-width="2"/>
   <rect fill="#000000" height="3" stroke="none" stroke-linecap="square" stroke-width="1" width="10" x="549" y="304"/>
   <text fill="#404040" font-family="Dialog" font-size="12" x="564" y="309">Cin</text>
   <rect fill="#000000" height="3" stroke="none" stroke-linecap="square" stroke-width="1" width="10" x="549" y="324"/>
   <text fill="#404040" font-family="Dialog" font-size="12" x="564" y="329">A</text>
   <rect fill="#000000" height="3" stroke="none" stroke-linecap="square" stroke-width="1" width="10" x="549" y="344"/>
   <text fill="#404040" font-family="Dialog" font-size="12" x="564" y="349">B</text>
   <rect fill="#000000" height="3" stroke="none" stroke-linecap="square" stroke-width="1" width="10" x="759" y="304"/>
   <text fill="#404040" font-family="Dialog" font-size="12" x="748" y="309">S</text>
   <rect fill="#000000" height="3" stroke="none" stroke-linecap="square" stroke-width="1" width="10" x="759" y="324"/>
   <text fill="#404040" font-family="Dialog" font-size="12" x="728" y="329">Cout</text>
   <rect fill="#000000" height="20" stroke="none" stroke-linecap="square" stroke-width="1" width="200" x="559" y="355"/>
   <rect fill="none" height="80" stroke="#000000" stroke-linecap="square" stroke-width="2" width="200" x="559" y="295"/>
   <text fill="#FFFFFF" font-family="Dialog" font-size="14" font-weight="bold" x="622" y="369">full_add_1</text>
   <circle cx="549" cy="305" fill="#000000" r="2" stroke="none" stroke-width="1"/>
   <circle cx="549" cy="325" fill="#000000" r="2" stroke="none" stroke-width="1"/>
   <circle cx="549" cy="345" fill="#000000" r="2" stroke="none" stroke-width="1"/>
   <circle cx="769" cy="305" fill="#000000" r="2" stroke="none" stroke-width="1"/>
   <circle cx="769" cy="325" fill="#000000" r="2" stroke="none" stroke-width="1"/>
   <path d="M84,245 H159 V305 H229" fill="none" stroke="#000000" stroke-linecap="square" stroke-width="3"/>
   <path d="M50,236 H74 L84,245 L74,254 H50 Z" fill="none" stroke="#000000" stroke-linecap="square" stroke-width="2"/>
   <text fill="#000000" font-family="monospace" font-size="12" x="55" y="251">x1</text>
   <text fill="#000000" font-family="sans-serif" font-size="16" font-weight="bold" x="20" y="253">Cin</text>
   <circle cx="89" cy="245" fill="#000000" r="2" stroke="none" stroke-width="2"/>
   <path d="M86,625 H139 V615" fill="none" stroke="#000000" stroke-linecap="square" stroke-width="4"/>
   <path d="M20,616 H74 L84,625 L74,634 H20 Z" fill="none" stroke="#000000" stroke-linecap="square" stroke-width="2"/>
   <text fill="#000000" font-family="monospace" font-size="12" x="40" y="631">x4</text>
   <text fill="#000000" font-family="sans-serif" font-size="16" font-weight="bold" x="7" y="633">B</text>
   <circle cx="89" cy="625" fill="#000000" r="2" stroke="none" stroke-width="2"/>
   <path d="M229,325 H159 V475 H145" fill="none" stroke="#000000" stroke-linecap="square" stroke-width="3"/>
   <path d="M549,325 H519 V485 H145" fill="none" stroke="#000000" stroke-linecap="square" stroke-width="3"/>
   <path d="M869,325 H829 V495 H145" fill="none" stroke="#000000" stroke-linecap="square" stroke-width="3"/>
   <path d="M1099,505 H145" fill="none" stroke="#000000" stroke-linecap="square" stroke-width="3"/>
   <path d="M145,476 V509 L140,514" fill="none" stroke="#000000" stroke-linecap="square" stroke-width="5"/>
   <text fill="#000000" font-family="sans-serif" font-size="7" x="148" y="482">0</text>
   <text fill="#000000" font-family="sans-serif" font-size="7" x="148" y="492">1</text>
   <text fill="#000000" font-family="sans-serif" font-size="7" x="148" y="502">2</text>
   <text fill="#000000" font-family="sans-serif" font-size="7" x="148" y="512">3</text>
   <circle cx="139" cy="515" fill="#000000" r="2" stroke="none" stroke-width="5"/>
   <circle cx="159" cy="475" fill="#000000" r="2" stroke="none" stroke-width="5"/>
   <circle cx="159" cy="485" fill="#000000" r="2" stroke="none" stroke-width="5"/>
   <circle cx="159" cy="495" fill="#000000" r="2" stroke="none" stroke-width="5"/>
   <circle cx="159" cy="505" fill="#000000" r="2" stroke="none" stroke-width="5"/>
   <rect fill="#000000" height="4" stroke="none" stroke-linecap="square" stroke-width="1" width="10" x="279" y="783"/>
   <rect fill="#000000" height="3" stroke="none" stroke-linecap="square" stroke-width="1" width="10" x="279" y="804"/>
   <text fill="#404040" font-family="Dialog" font-size="12" x="294" y="809">hex_enable</text>
   <rect fill="#000000" height="4" stroke="none" stroke-linecap="square" stroke-width="1" width="10" x="489" y="783"/>
   <rect fill="#000000" height="20" stroke="none" stroke-linecap="square" stroke-width="1" width="200" x="289" y="815"/>
   <rect fill="none" height="60" stroke="#000000" stroke-linecap="square" stroke-width="2" width="200" x="289" y="775"/>
   <text fill="#FFFFFF" font-family="Dialog" font-size="14" font-weight="bold" x="342" y="829">sevenSegHex</text>
   <circle cx="279" cy="785" fill="#000000" r="2" stroke="none" stroke-width="1"/>
   <circle cx="279" cy="805" fill="#000000" r="2" stroke="none" stroke-width="1"/>
   <circle cx="499" cy="785" fill="#000000" r="2" stroke="none" stroke-width="1"/>
   <path d="M749,765 V705 H635" fill="none" stroke="#000000" stroke-linecap="square" stroke-width="3"/>
   <path d="M759,765 V715 H635" fill="none" stroke="#000000" stroke-linecap="square" stroke-width="3"/>
   <path d="M749,825 V845 H779 V725 H635" fill="none" stroke="#000000" stroke-linecap="square" stroke-width="3"/>
   <path d="M739,825 V835 H709 V735 H635" fill="none" stroke="#000000" stroke-linecap="square" stroke-width="3"/>
   <path d="M729,825 V845 H699 V745 H635" fill="none" stroke="#000000" stroke-linecap="square" stroke-width="3"/>
   <path d="M739,765 V755 H635" fill="none" stroke="#000000" stroke-linecap="square" stroke-width="3"/>
   <path d="M729,765 V745 H809 V875 H689 V765 H635" fill="none" stroke="#000000" stroke-linecap="square" stroke-width="3"/>
   <path d="M759,825 V905 H649 V775 H635" fill="none" stroke="#000000" stroke-linecap="square" stroke-width="3"/>
   <path d="M635,706 V779 L630,784" fill="none" stroke="#000000" stroke-linecap="square" stroke-width="5"/>
   <text fill="#000000" font-family="sans-serif" font-size="7" x="638" y="712">0</text>
   <text fill="#000000" font-family="sans-serif" font-size="7" x="638" y="722">1</text>
   <text fill="#000000" font-family="sans-serif" font-size="7" x="638" y="732">2</text>
   <text fill="#000000" font-family="sans-serif" font-size="7" x="638" y="742">3</text>
   <text fill="#000000" font-family="sans-serif" font-size="7" x="638" y="752">4</text>
   <text fill="#000000" font-family="sans-serif" font-size="7" x="638" y="762">5</text>
   <text fill="#000000" font-family="sans-serif" font-size="7" x="638" y="772">6</text>
   <text fill="#000000" font-family="sans-serif" font-size="7" x="638" y="782">7</text>
   <circle cx="629" cy="785" fill="#000000" r="2" stroke="none" stroke-width="5"/>
   <circle cx="649" cy="705" fill="#000000" r="2" stroke="none" stroke-width="5"/>
   <circle cx="649" cy="715" fill="#000000" r="2" stroke="none" stroke-width="5"/>
   <circle cx="649" cy="725" fill="#000000" r="2" stroke="none" stroke-width="5"/>
   <circle cx="649" cy="735" fill="#000000" r="2" stroke="none" stroke-width="5"/>
   <circle cx="649" cy="745" fill="#000000" r="2" stroke="none" stroke-width="5"/>
   <circle cx="649" cy="755" fill="#000000" r="2" stroke="none" stroke-width="5"/>
   <circle cx="649" cy="765" fill="#000000" r="2" stroke="none" stroke-width="5"/>
   <circle cx="649" cy="775" fill="#000000" r="2" stroke="none" stroke-width="5"/>
   <rect fill="#000000" height="3" stroke="none" stroke-linecap="square" stroke-width="1" width="10" x="229" y="304"/>
   <text fill="#404040" font-family="Dialog" font-size="12" x="244" y="309">Cin</text>
   <rect fill="#000000" height="3" stroke="none" stroke-linecap="square" stroke-width="1" width="10" x="229" y="324"/>
   <text fill="#404040" font-family="Dialog" font-size="12" x="244" y="329">A</text>
   <rect fill="#000000" height="3" stroke="none" stroke-linecap="square" stroke-width="1" width="10" x="229" y="344"/>
   <text fill="#404040" font-family="Dialog" font-size="12" x="244" y="349">B</text>
   <rect fill="#000000" height="3" stroke="none" stroke-linecap="square" stroke-width="1" width="10" x="439" y="304"/>
   <text fill="#404040" font-family="Dialog" font-size="12" x="428" y="309">S</text>
   <rect fill="#000000" height="3" stroke="none" stroke-linecap="square" stroke-width="1" width="10" x="439" y="324"/>
   <text fill="#404040" font-family="Dialog" font-size="12" x="408" y="329">Cout</text>
   <rect fill="#000000" height="20" stroke="none" stroke-linecap="square" stroke-width="1" width="200" x="239" y="355"/>
   <rect fill="none" height="80" stroke="#000000" stroke-linecap="square" stroke-width="2" width="200" x="239" y="295"/>
   <text fill="#FFFFFF" font-family="Dialog" font-size="14" font-weight="bold" x="302" y="369">full_add_1</text>
   <circle cx="229" cy="305" fill="#000000" r="2" stroke="none" stroke-width="1"/>
   <circle cx="229" cy="325" fill="#000000" r="2" stroke="none" stroke-width="1"/>
   <circle cx="229" cy="345" fill="#000000" r="2" stroke="none" stroke-width="1"/>
   <circle cx="449" cy="305" fill="#000000" r="2" stroke="none" stroke-width="1"/>
   <circle cx="449" cy="325" fill="#000000" r="2" stroke="none" stroke-width="1"/>
   <circle cx="1564" cy="945" fill="none" r="4.5" stroke="#000000" stroke-width="2"/>
   <circle cx="1564" cy="965" fill="none" r="4.5" stroke="#000000" stroke-width="2"/>
   <path d="M1594,990 A25,25 90 0,0 1594,940" fill="none" stroke="#000000" stroke-width="2"/>
   <path d="M1594,940 H1570 V990 H1594" fill="none" stroke="#000000" stroke-linecap="square" stroke-width="2"/>
   <path d="M1619,845 H1649 V865 H1729" fill="none" stroke="#000000" stroke-linecap="square" stroke-width="3"/>
   <path d="M1729,905 H1649 V965 H1619" fill="none" stroke="#000000" stroke-linecap="square" stroke-width="3"/>
   <path d="M1779,885 Q1759,860 1729,860 Q1742,885 1729,910 Q1759,910 1779,885 Z" fill="none" stroke="#000000" stroke-linecap="square" stroke-width="2"/>
   <path d="M1833,885 H1830" fill="none" stroke="#000000" stroke-linecap="square" stroke-width="3"/>
   <path d="M1835,876 H1859 L1869,885 L1859,894 H1835 Z" fill="none" stroke="#000000" stroke-linecap="square" stroke-width="2"/>
   <text fill="#000000" font-family="monospace" font-size="12" x="1835" y="891">x1</text>
   <text fill="#000000" font-family="sans-serif" font-size="16" font-weight="bold" x="1871" y="893">overflow</text>
   <circle cx="1829" cy="885" fill="#000000" r="2" stroke="none" stroke-width="2"/>
   <circle cx="1564" cy="865" fill="none" r="4.5" stroke="#000000" stroke-width="2"/>
   <path d="M1594,870 A25,25 90 0,0 1594,820" fill="none" stroke="#000000" stroke-width="2"/>
   <path d="M1594,820 H1570 V870 H1594" fill="none" stroke="#000000" stroke-linecap="square" stroke-width="2"/>
</svg>
